<svg width="592" height="640" viewBox="0 0 592 640" fill="none" xmlns="http://www.w3.org/2000/svg">
<path fill-rule="evenodd" clip-rule="evenodd" d="M70.9253 499.325V530.8H39V531.7H70.9253V563.175H39V564.075H70.9253V596H71.8247V564.075H103.3V596H104.2V564.075H135.675V596H136.575V564.075H168.05V596H168.95V564.075H200.425V596H201.325V564.075H232.8V596H233.7V564.075H265.175V596H266.075V564.075H297.55V596H298.45V564.075H329.925V596H330.825V564.075H362.3V596H363.2V564.075H394.675V596H395.575V564.075H427.05V596H427.95V564.075H459.425V596H460.325V564.075H491.8V596H492.7V564.075H524.175V596H525.075V564.075H557V563.175H525.075V531.7H557V530.8H525.075V499.325H557V498.425H525.075V466.95H557V466.05H525.075V434.575H557V433.675H525.075V402.2H557V401.3H525.075V369.825H557V368.925H525.075V337.45H557V336.55H525.075V305.075H557V304.175H525.075V272.7H557V271.8H525.075V240.325H557V239.425H525.075V207.95H557V207.05H525.075V175.575H557V174.675H525.075V143.2H557V142.3H525.075V110.825H557V109.925H525.075V78H524.175V109.925H492.7V78H491.8V109.925H460.325V78H459.425V109.925H427.95V78H427.05V109.925H395.575V78H394.675V109.925H363.2V78H362.3V109.925H330.825V78H329.925V109.925H298.45V78H297.55V109.925H266.075V78H265.175V109.925H233.7V78H232.8V109.925H201.325V78H200.425V109.925H168.95V78H168.05V109.925H136.575V78H135.675V109.925H104.2V78H103.3V109.925H71.8247V78H70.9253V109.925H39V110.825H70.9253V142.3H39V143.2H70.9253V174.675H39V175.575H70.9253V207.05H39V207.95H70.9253V239.425H39V240.325H70.9253V271.8H39V272.7H70.9253V304.175H39V305.075H70.9253V336.55H39V337.45H70.9253V368.925H39V369.825H70.9253V401.3H39V402.2H70.9253V433.675H39V434.575H70.9253V466.05H39V466.95H70.9253V498.425H39V499.325H70.9253ZM524.175 563.175V531.7H492.7V563.175H524.175ZM491.8 563.175V531.7H460.325V563.175H491.8ZM459.425 563.175V531.7H427.95V563.175H459.425ZM427.05 563.175V531.7H395.575V563.175H427.05ZM394.675 563.175V531.7H363.2V563.175H394.675ZM362.3 563.175V531.7H330.825V563.175H362.3ZM329.925 563.175V531.7H298.45V563.175H329.925ZM297.55 563.175V531.7H266.075V563.175H297.55ZM265.175 563.175V531.7H233.7V563.175H265.175ZM232.8 563.175V531.7H201.325V563.175H232.8ZM200.425 563.175V531.7H168.95V563.175H200.425ZM168.05 563.175V531.7H136.575V563.175H168.05ZM135.675 563.175V531.7H104.2V563.175H135.675ZM103.3 563.175V531.7H71.8247V563.175H103.3ZM103.3 530.8H71.8247V499.325H103.3V530.8ZM135.675 530.8H104.2V499.325H135.675V530.8ZM168.05 530.8H136.575V499.325H168.05V530.8ZM200.425 530.8H168.95V499.325H200.425V530.8ZM232.8 530.8H201.325V499.325H232.8V530.8ZM265.175 530.8H233.7V499.325H265.175V530.8ZM297.55 530.8H266.075V499.325H297.55V530.8ZM329.925 530.8H298.45V499.325H329.925V530.8ZM362.3 530.8H330.825V499.325H362.3V530.8ZM394.675 530.8H363.2V499.325H394.675V530.8ZM427.05 530.8H395.575V499.325H427.05V530.8ZM459.425 530.8H427.95V499.325H459.425V530.8ZM491.8 530.8H460.325V499.325H491.8V530.8ZM524.175 530.8H492.7V499.325H524.175V530.8ZM524.175 110.825H492.7V142.3H524.175V110.825ZM524.175 143.2H492.7V174.675H524.175V143.2ZM524.175 175.575H492.7V207.05H524.175V175.575ZM524.175 207.95H492.7V239.425H524.175V207.95ZM524.175 240.325H492.7V271.8H524.175V240.325ZM524.175 272.7H492.7V304.175H524.175V272.7ZM524.175 305.075H492.7V336.55H524.175V305.075ZM524.175 337.45H492.7V368.925H524.175V337.45ZM524.175 369.825H492.7V401.3H524.175V369.825ZM524.175 402.2H492.7V433.675H524.175V402.2ZM524.175 434.575H492.7V466.05H524.175V434.575ZM524.175 466.95H492.7V498.425H524.175V466.95ZM491.8 466.95V498.425H460.325V466.95H491.8ZM491.8 434.575V466.05H460.325V434.575H491.8ZM491.8 402.2V433.675H460.325V402.2H491.8ZM491.8 369.825V401.3H460.325V369.825H491.8ZM491.8 337.45V368.925H460.325V337.45H491.8ZM491.8 305.075V336.55H460.325V305.075H491.8ZM491.8 272.7V304.175H460.325V272.7H491.8ZM491.8 240.325V271.8H460.325V240.325H491.8ZM491.8 207.95V239.425H460.325V207.95H491.8ZM491.8 175.575V207.05H460.325V175.575H491.8ZM491.8 143.2V174.675H460.325V143.2H491.8ZM491.8 110.825V142.3H460.325V110.825H491.8ZM71.8247 498.425H103.3V466.95H71.8247V498.425ZM104.2 498.425H135.675V466.95H104.2V498.425ZM136.575 498.425H168.05V466.95H136.575V498.425ZM168.95 498.425H200.425V466.95H168.95V498.425ZM201.325 498.425H232.8V466.95H201.325V498.425ZM233.7 498.425H265.175V466.95H233.7V498.425ZM266.075 498.425H297.55V466.95H266.075V498.425ZM298.45 498.425H329.925V466.95H298.45V498.425ZM330.825 498.425H362.3V466.95H330.825V498.425ZM363.2 498.425H394.675V466.95H363.2V498.425ZM395.575 498.425H427.05V466.95H395.575V498.425ZM427.95 498.425H459.425V466.95H427.95V498.425ZM459.425 434.575V466.05H427.95V434.575H459.425ZM459.425 402.2V433.675H427.95V402.2H459.425ZM459.425 369.825V401.3H427.95V369.825H459.425ZM459.425 337.45V368.925H427.95V337.45H459.425ZM459.425 305.075V336.55H427.95V305.075H459.425ZM459.425 272.7V304.175H427.95V272.7H459.425ZM459.425 240.325V271.8H427.95V240.325H459.425ZM459.425 207.95V239.425H427.95V207.95H459.425ZM459.425 175.575V207.05H427.95V175.575H459.425ZM459.425 143.2V174.675H427.95V143.2H459.425ZM459.425 110.825V142.3H427.95V110.825H459.425ZM71.8247 466.05H103.3V434.575H71.8247V466.05ZM104.2 466.05H135.675V434.575H104.2V466.05ZM136.575 466.05H168.05V434.575H136.575V466.05ZM168.95 466.05H200.425V434.575H168.95V466.05ZM201.325 466.05H232.8V434.575H201.325V466.05ZM233.7 466.05H265.175V434.575H233.7V466.05ZM266.075 466.05H297.55V434.575H266.075V466.05ZM298.45 466.05H329.925V434.575H298.45V466.05ZM330.825 466.05H362.3V434.575H330.825V466.05ZM363.2 466.05H394.675V434.575H363.2V466.05ZM395.575 466.05H427.05V434.575H395.575V466.05ZM427.05 402.2V433.675H395.575V402.2H427.05ZM427.05 369.825V401.3H395.575V369.825H427.05ZM427.05 337.45V368.925H395.575V337.45H427.05ZM427.05 305.075V336.55H395.575V305.075H427.05ZM427.05 272.7V304.175H395.575V272.7H427.05ZM427.05 240.325V271.8H395.575V240.325H427.05ZM427.05 207.95V239.425H395.575V207.95H427.05ZM427.05 175.575V207.05H395.575V175.575H427.05ZM427.05 143.2V174.675H395.575V143.2H427.05ZM427.05 110.825V142.3H395.575V110.825H427.05ZM71.8247 433.675H103.3V402.2H71.8247V433.675ZM104.2 433.675H135.675V402.2H104.2V433.675ZM136.575 433.675H168.05V402.2H136.575V433.675ZM168.95 433.675H200.425V402.2H168.95V433.675ZM201.325 433.675H232.8V402.2H201.325V433.675ZM233.7 433.675H265.175V402.2H233.7V433.675ZM266.075 433.675H297.55V402.2H266.075V433.675ZM298.45 433.675H329.925V402.2H298.45V433.675ZM330.825 433.675H362.3V402.2H330.825V433.675ZM363.2 433.675H394.675V402.2H363.2V433.675ZM394.675 369.825V401.3H363.2V369.825H394.675ZM394.675 337.45V368.925H363.2V337.45H394.675ZM394.675 305.075V336.55H363.2V305.075H394.675ZM394.675 272.7V304.175H363.2V272.7H394.675ZM394.675 240.325V271.8H363.2V240.325H394.675ZM394.675 207.95V239.425H363.2V207.95H394.675ZM394.675 175.575V207.05H363.2V175.575H394.675ZM394.675 143.2V174.675H363.2V143.2H394.675ZM394.675 110.825V142.3H363.2V110.825H394.675ZM71.8247 401.3H103.3V369.825H71.8247V401.3ZM104.2 401.3H135.675V369.825H104.2V401.3ZM136.575 401.3H168.05V369.825H136.575V401.3ZM168.95 401.3H200.425V369.825H168.95V401.3ZM201.325 401.3H232.8V369.825H201.325V401.3ZM233.7 401.3H265.175V369.825H233.7V401.3ZM266.075 401.3H297.55V369.825H266.075V401.3ZM298.45 401.3H329.925V369.825H298.45V401.3ZM330.825 401.3H362.3V369.825H330.825V401.3ZM362.3 337.45V368.925H330.825V337.45H362.3ZM362.3 305.075V336.55H330.825V305.075H362.3ZM362.3 272.7V304.175H330.825V272.7H362.3ZM362.3 240.325V271.8H330.825V240.325H362.3ZM362.3 207.95V239.425H330.825V207.95H362.3ZM362.3 175.575V207.05H330.825V175.575H362.3ZM362.3 143.2V174.675H330.825V143.2H362.3ZM362.3 110.825V142.3H330.825V110.825H362.3ZM71.8247 368.925H103.3V337.45H71.8247V368.925ZM104.2 368.925H135.675V337.45H104.2V368.925ZM136.575 368.925H168.05V337.45H136.575V368.925ZM168.95 368.925H200.425V337.45H168.95V368.925ZM201.325 368.925H232.8V337.45H201.325V368.925ZM233.7 368.925H265.175V337.45H233.7V368.925ZM266.075 368.925H297.55V337.45H266.075V368.925ZM298.45 368.925H329.925V337.45H298.45V368.925ZM329.925 305.075V336.55H298.45V305.075H329.925ZM329.925 272.7V304.175H298.45V272.7H329.925ZM329.925 240.325V271.8H298.45V240.325H329.925ZM329.925 207.95V239.425H298.45V207.95H329.925ZM329.925 175.575V207.05H298.45V175.575H329.925ZM329.925 143.2V174.675H298.45V143.2H329.925ZM329.925 110.825V142.3H298.45V110.825H329.925ZM71.8247 336.55H103.3V305.075H71.8247V336.55ZM104.2 336.55H135.675V305.075H104.2V336.55ZM136.575 336.55H168.05V305.075H136.575V336.55ZM168.95 336.55H200.425V305.075H168.95V336.55ZM201.325 336.55H232.8V305.075H201.325V336.55ZM233.7 336.55H265.175V305.075H233.7V336.55ZM266.075 336.55H297.55V305.075H266.075V336.55ZM297.55 272.7V304.175H266.075V272.7H297.55ZM297.55 240.325V271.8H266.075V240.325H297.55ZM297.55 207.95V239.425H266.075V207.95H297.55ZM297.55 175.575V207.05H266.075V175.575H297.55ZM297.55 143.2V174.675H266.075V143.2H297.55ZM297.55 110.825V142.3H266.075V110.825H297.55ZM71.8247 304.175H103.3V272.7H71.8247V304.175ZM104.2 304.175H135.675V272.7H104.2V304.175ZM136.575 304.175H168.05V272.7H136.575V304.175ZM168.95 304.175H200.425V272.7H168.95V304.175ZM201.325 304.175H232.8V272.7H201.325V304.175ZM233.7 304.175H265.175V272.7H233.7V304.175ZM265.175 240.325V271.8H233.7V240.325H265.175ZM265.175 207.95V239.425H233.7V207.95H265.175ZM265.175 175.575V207.05H233.7V175.575H265.175ZM265.175 143.2V174.675H233.7V143.2H265.175ZM265.175 110.825V142.3H233.7V110.825H265.175ZM71.8247 271.8H103.3V240.325H71.8247V271.8ZM104.2 271.8H135.675V240.325H104.2V271.8ZM136.575 271.8H168.05V240.325H136.575V271.8ZM168.95 271.8H200.425V240.325H168.95V271.8ZM201.325 271.8H232.8V240.325H201.325V271.8ZM232.8 207.95V239.425H201.325V207.95H232.8ZM232.8 175.575V207.05H201.325V175.575H232.8ZM232.8 143.2V174.675H201.325V143.2H232.8ZM232.8 110.825V142.3H201.325V110.825H232.8ZM71.8247 239.425H103.3V207.95H71.8247V239.425ZM104.2 239.425H135.675V207.95H104.2V239.425ZM136.575 239.425H168.05V207.95H136.575V239.425ZM168.95 239.425H200.425V207.95H168.95V239.425ZM200.425 175.575V207.05H168.95V175.575H200.425ZM200.425 143.2V174.675H168.95V143.2H200.425ZM200.425 110.825V142.3H168.95V110.825H200.425ZM71.8247 207.05H103.3V175.575H71.8247V207.05ZM104.2 207.05H135.675V175.575H104.2V207.05ZM136.575 207.05H168.05V175.575H136.575V207.05ZM168.05 143.2V174.675H136.575V143.2H168.05ZM168.05 110.825V142.3H136.575V110.825H168.05ZM71.8247 174.675H103.3V143.2H71.8247V174.675ZM104.2 174.675L135.675 174.675V143.2H104.2V174.675ZM135.675 110.825V142.3H104.2V110.825H135.675ZM71.8247 142.3H103.3V110.825H71.8247V142.3Z" fill="url(#paint0_radial_7860_109294)"/>
<g opacity="0.6">
<g filter="url(#filter0_f_7860_109294)">
<circle cx="297.792" cy="530.739" r="3.59316" fill="#640DFB"/>
</g>
<g filter="url(#filter1_f_7860_109294)">
<circle cx="297.792" cy="530.735" r="1.79658" fill="#640DFB"/>
</g>
</g>
<g filter="url(#filter2_f_7860_109294)">
<circle cx="330.131" cy="175.016" r="3.59316" fill="#640DFB"/>
</g>
<g filter="url(#filter3_f_7860_109294)">
<circle cx="330.131" cy="175.012" r="1.79658" fill="#640DFB"/>
</g>
<g filter="url(#filter4_f_7860_109294)">
<circle cx="136.1" cy="433.724" r="3.59316" fill="#640DFB"/>
</g>
<g filter="url(#filter5_f_7860_109294)">
<circle cx="136.1" cy="433.72" r="1.79658" fill="#640DFB"/>
</g>
<g filter="url(#filter6_f_7860_109294)">
<circle cx="459.485" cy="336.708" r="3.59316" fill="#640DFB"/>
</g>
<g filter="url(#filter7_f_7860_109294)">
<circle cx="459.485" cy="336.705" r="1.79658" fill="#640DFB"/>
</g>
<path d="M330.131 133.323V197.999" stroke="url(#paint1_radial_7860_109294)" stroke-width="0.5"/>
<path d="M362.469 175.015L297.792 175.015" stroke="url(#paint2_radial_7860_109294)" stroke-width="0.5"/>
<path d="M136.1 392.03V456.707" stroke="url(#paint3_radial_7860_109294)" stroke-width="0.5"/>
<path d="M168.438 433.723L103.762 433.723" stroke="url(#paint4_radial_7860_109294)" stroke-width="0.5"/>
<circle cx="140" cy="260" r="20" stroke="#D0D5DD" stroke-width="2"/>
<circle cx="140" cy="380" r="20" stroke="#D0D5DD" stroke-width="2"/>
<circle cx="60" cy="340" r="20" stroke="#D0D5DD" stroke-width="2"/>
<circle cx="180" cy="340" r="20" stroke="#D0D5DD" stroke-width="2"/>
<path d="M40 340C40 328.954 48.9543 320 60 320H180C191.046 320 200 328.954 200 340C200 351.046 191.046 360 180 360H60C48.9543 360 40 351.046 40 340Z" stroke="#D0D5DD" stroke-width="2"/>
<path d="M140 400C128.954 400 120 391.046 120 380L120 260C120 248.954 128.954 240 140 240C151.046 240 160 248.954 160 260L160 380C160 391.046 151.046 400 140 400Z" stroke="#D0D5DD" stroke-width="2"/>
<path d="M46.1421 353.995C38.3316 346.184 38.3316 333.521 46.1421 325.711L125.711 246.142C133.521 238.332 146.184 238.332 153.995 246.142C161.805 253.953 161.805 266.616 153.995 274.426L74.4264 353.995C66.6159 361.805 53.9526 361.805 46.1421 353.995Z" stroke="#D0D5DD" stroke-width="2"/>
<circle cx="492" cy="260" r="20" stroke="#D0D5DD" stroke-width="2"/>
<circle cx="492" cy="380" r="20" stroke="#D0D5DD" stroke-width="2"/>
<circle cx="412" cy="340" r="20" stroke="#D0D5DD" stroke-width="2"/>
<circle cx="532" cy="340" r="20" stroke="#D0D5DD" stroke-width="2"/>
<path d="M392 340C392 328.954 400.954 320 412 320H532C543.046 320 552 328.954 552 340C552 351.046 543.046 360 532 360H412C400.954 360 392 351.046 392 340Z" stroke="#D0D5DD" stroke-width="2"/>
<path d="M492 400C480.954 400 472 391.046 472 380L472 260C472 248.954 480.954 240 492 240C503.046 240 512 248.954 512 260L512 380C512 391.046 503.046 400 492 400Z" stroke="#D0D5DD" stroke-width="2"/>
<path d="M398.142 353.995C390.332 346.184 390.332 333.521 398.142 325.711L477.711 246.142C485.521 238.332 498.184 238.332 505.995 246.142C513.805 253.953 513.805 266.616 505.995 274.426L426.426 353.995C418.616 361.805 405.953 361.805 398.142 353.995Z" stroke="#D0D5DD" stroke-width="2"/>
<line x1="39" y1="239" x2="552" y2="239" stroke="#D0D5DD" stroke-width="2"/>
<line x1="39" y1="401" x2="552" y2="401" stroke="#D0D5DD" stroke-width="2"/>
<g filter="url(#filter8_b_7860_109294)">
<path d="M275.579 392.251L275.58 392.25C275.439 392.09 275.278 391.921 275.095 391.751C275.035 391.695 274.859 391.532 274.618 391.345C274.559 391.299 274.401 391.177 274.188 391.037C274.094 390.975 273.858 390.822 273.538 390.657C273.382 390.577 273.08 390.429 272.68 390.288C272.423 390.197 271.432 389.848 270.105 389.898C268.545 389.956 265.218 390.777 263.796 394.377C262.829 396.827 263.559 398.891 263.691 399.265L263.698 399.283C264.067 400.333 264.623 401.053 264.683 401.13L264.688 401.136C264.952 401.488 265.196 401.74 265.247 401.792L265.251 401.797L265.259 401.805L265.26 401.806L265.262 401.808L265.264 401.81L265.273 401.819L265.277 401.823L265.378 401.928L265.453 401.998C265.476 402.019 265.5 402.042 265.527 402.067L265.527 402.066M275.579 392.251C275.464 392.119 275.378 392.031 275.351 392.002L275.35 392.001L275.348 392L275.346 391.998L270.584 396.62L270.313 396.912L270.155 397.052L269.977 397.209L265.046 401.574C265.11 401.646 265.178 401.72 265.252 401.797C265.331 401.879 265.416 401.963 265.508 402.048C265.509 402.049 265.511 402.051 265.512 402.052C265.517 402.056 265.522 402.061 265.527 402.066M275.579 392.251C275.675 392.36 275.79 392.499 275.91 392.659L275.914 392.664C275.973 392.741 276.529 393.461 276.899 394.511L276.906 394.529C277.038 394.903 277.768 396.967 276.801 399.417C275.378 403.017 272.052 403.838 270.492 403.896C269.165 403.946 268.174 403.597 267.918 403.506C267.517 403.365 267.215 403.217 267.059 403.137C266.739 402.973 266.503 402.819 266.41 402.758C266.197 402.617 266.038 402.495 265.98 402.45C265.762 402.281 265.599 402.133 265.527 402.066M275.579 392.251L265.527 402.066M301.654 234.342L301.655 234.341C301.684 234.369 301.709 234.394 301.73 234.415L301.773 234.456L301.848 234.534L301.851 234.537C301.887 234.574 302.086 234.779 302.307 235.059C302.375 235.146 302.495 235.301 302.63 235.504C302.725 235.645 303.029 236.105 303.292 236.757C303.42 237.076 303.667 237.747 303.759 238.643C303.847 239.489 303.874 241.315 302.672 243.184C301.331 245.269 299.327 246.097 297.906 246.339C296.656 246.552 295.664 246.37 295.237 246.276C294.362 246.084 293.733 245.762 293.573 245.679L293.568 245.677C293.314 245.547 293.121 245.428 293.019 245.363C292.81 245.231 292.654 245.116 292.59 245.068C292.445 244.96 292.336 244.87 292.294 244.835C292.124 244.693 291.997 244.574 291.952 244.53C291.817 244.402 291.694 244.275 291.581 244.15L291.582 244.15M301.654 234.342C301.668 234.355 301.682 234.369 301.696 234.382C301.749 234.433 301.799 234.484 301.847 234.534C301.898 234.586 301.946 234.637 301.991 234.687L297.253 238.994L297.028 239.199L296.786 239.419L296.386 239.836L291.754 244.333L291.75 244.33C291.732 244.311 291.669 244.246 291.582 244.15C291.582 244.15 291.582 244.15 291.582 244.15M301.654 234.342C301.651 234.338 301.647 234.335 301.644 234.332C301.601 234.291 301.476 234.173 301.307 234.032C301.265 233.997 301.157 233.907 301.012 233.799C300.948 233.751 300.792 233.636 300.583 233.504C300.481 233.44 300.288 233.321 300.034 233.191L300.029 233.188C299.868 233.106 299.239 232.784 298.365 232.592C297.938 232.498 296.946 232.316 295.695 232.529C294.274 232.771 292.27 233.599 290.93 235.684C289.728 237.553 289.755 239.379 289.842 240.224C289.935 241.12 290.182 241.792 290.31 242.11C290.573 242.763 290.877 243.222 290.972 243.364C291.107 243.567 291.226 243.722 291.295 243.809C291.401 243.943 291.502 244.06 291.582 244.15M301.654 234.342L291.582 244.15M291.906 244.485L294.076 242.246L291.917 244.497C291.913 244.493 291.909 244.489 291.906 244.485Z" stroke="url(#paint5_radial_7860_109294)" stroke-opacity="0.9" stroke-width="14"/>
<path d="M275.579 392.251L275.58 392.25C275.439 392.09 275.278 391.921 275.095 391.751C275.035 391.695 274.859 391.532 274.618 391.345C274.559 391.299 274.401 391.177 274.188 391.037C274.094 390.975 273.858 390.822 273.538 390.657C273.382 390.577 273.08 390.429 272.68 390.288C272.423 390.197 271.432 389.848 270.105 389.898C268.545 389.956 265.218 390.777 263.796 394.377C262.829 396.827 263.559 398.891 263.691 399.265L263.698 399.283C264.067 400.333 264.623 401.053 264.683 401.13L264.688 401.136C264.952 401.488 265.196 401.74 265.247 401.792L265.251 401.797L265.259 401.805L265.26 401.806L265.262 401.808L265.264 401.81L265.273 401.819L265.277 401.823L265.378 401.928L265.453 401.998C265.476 402.019 265.5 402.042 265.527 402.067L265.527 402.066M275.579 392.251C275.464 392.119 275.378 392.031 275.351 392.002L275.35 392.001L275.348 392L275.346 391.998L270.584 396.62L270.313 396.912L270.155 397.052L269.977 397.209L265.046 401.574C265.11 401.646 265.178 401.72 265.252 401.797C265.331 401.879 265.416 401.963 265.508 402.048C265.509 402.049 265.511 402.051 265.512 402.052C265.517 402.056 265.522 402.061 265.527 402.066M275.579 392.251C275.675 392.36 275.79 392.499 275.91 392.659L275.914 392.664C275.973 392.741 276.529 393.461 276.899 394.511L276.906 394.529C277.038 394.903 277.768 396.967 276.801 399.417C275.378 403.017 272.052 403.838 270.492 403.896C269.165 403.946 268.174 403.597 267.918 403.506C267.517 403.365 267.215 403.217 267.059 403.137C266.739 402.973 266.503 402.819 266.41 402.758C266.197 402.617 266.038 402.495 265.98 402.45C265.762 402.281 265.599 402.133 265.527 402.066M275.579 392.251L265.527 402.066M301.654 234.342L301.655 234.341C301.684 234.369 301.709 234.394 301.73 234.415L301.773 234.456L301.848 234.534L301.851 234.537C301.887 234.574 302.086 234.779 302.307 235.059C302.375 235.146 302.495 235.301 302.63 235.504C302.725 235.645 303.029 236.105 303.292 236.757C303.42 237.076 303.667 237.747 303.759 238.643C303.847 239.489 303.874 241.315 302.672 243.184C301.331 245.269 299.327 246.097 297.906 246.339C296.656 246.552 295.664 246.37 295.237 246.276C294.362 246.084 293.733 245.762 293.573 245.679L293.568 245.677C293.314 245.547 293.121 245.428 293.019 245.363C292.81 245.231 292.654 245.116 292.59 245.068C292.445 244.96 292.336 244.87 292.294 244.835C292.124 244.693 291.997 244.574 291.952 244.53C291.817 244.402 291.694 244.275 291.581 244.15L291.582 244.15M301.654 234.342C301.668 234.355 301.682 234.369 301.696 234.382C301.749 234.433 301.799 234.484 301.847 234.534C301.898 234.586 301.946 234.637 301.991 234.687L297.253 238.994L297.028 239.199L296.786 239.419L296.386 239.836L291.754 244.333L291.75 244.33C291.732 244.311 291.669 244.246 291.582 244.15C291.582 244.15 291.582 244.15 291.582 244.15M301.654 234.342C301.651 234.338 301.647 234.335 301.644 234.332C301.601 234.291 301.476 234.173 301.307 234.032C301.265 233.997 301.157 233.907 301.012 233.799C300.948 233.751 300.792 233.636 300.583 233.504C300.481 233.44 300.288 233.321 300.034 233.191L300.029 233.188C299.868 233.106 299.239 232.784 298.365 232.592C297.938 232.498 296.946 232.316 295.695 232.529C294.274 232.771 292.27 233.599 290.93 235.684C289.728 237.553 289.755 239.379 289.842 240.224C289.935 241.12 290.182 241.792 290.31 242.11C290.573 242.763 290.877 243.222 290.972 243.364C291.107 243.567 291.226 243.722 291.295 243.809C291.401 243.943 291.502 244.06 291.582 244.15M301.654 234.342L291.582 244.15M291.906 244.485L294.076 242.246L291.917 244.497C291.913 244.493 291.909 244.489 291.906 244.485Z" stroke="url(#paint6_radial_7860_109294)" stroke-opacity="0.9" stroke-width="14"/>
<path d="M275.579 392.251L275.58 392.25C275.439 392.09 275.278 391.921 275.095 391.751C275.035 391.695 274.859 391.532 274.618 391.345C274.559 391.299 274.401 391.177 274.188 391.037C274.094 390.975 273.858 390.822 273.538 390.657C273.382 390.577 273.08 390.429 272.68 390.288C272.423 390.197 271.432 389.848 270.105 389.898C268.545 389.956 265.218 390.777 263.796 394.377C262.829 396.827 263.559 398.891 263.691 399.265L263.698 399.283C264.067 400.333 264.623 401.053 264.683 401.13L264.688 401.136C264.952 401.488 265.196 401.74 265.247 401.792L265.251 401.797L265.259 401.805L265.26 401.806L265.262 401.808L265.264 401.81L265.273 401.819L265.277 401.823L265.378 401.928L265.453 401.998C265.476 402.019 265.5 402.042 265.527 402.067L265.527 402.066M275.579 392.251C275.464 392.119 275.378 392.031 275.351 392.002L275.35 392.001L275.348 392L275.346 391.998L270.584 396.62L270.313 396.912L270.155 397.052L269.977 397.209L265.046 401.574C265.11 401.646 265.178 401.72 265.252 401.797C265.331 401.879 265.416 401.963 265.508 402.048C265.509 402.049 265.511 402.051 265.512 402.052C265.517 402.056 265.522 402.061 265.527 402.066M275.579 392.251C275.675 392.36 275.79 392.499 275.91 392.659L275.914 392.664C275.973 392.741 276.529 393.461 276.899 394.511L276.906 394.529C277.038 394.903 277.768 396.967 276.801 399.417C275.378 403.017 272.052 403.838 270.492 403.896C269.165 403.946 268.174 403.597 267.918 403.506C267.517 403.365 267.215 403.217 267.059 403.137C266.739 402.973 266.503 402.819 266.41 402.758C266.197 402.617 266.038 402.495 265.98 402.45C265.762 402.281 265.599 402.133 265.527 402.066M275.579 392.251L265.527 402.066M301.654 234.342L301.655 234.341C301.684 234.369 301.709 234.394 301.73 234.415L301.773 234.456L301.848 234.534L301.851 234.537C301.887 234.574 302.086 234.779 302.307 235.059C302.375 235.146 302.495 235.301 302.63 235.504C302.725 235.645 303.029 236.105 303.292 236.757C303.42 237.076 303.667 237.747 303.759 238.643C303.847 239.489 303.874 241.315 302.672 243.184C301.331 245.269 299.327 246.097 297.906 246.339C296.656 246.552 295.664 246.37 295.237 246.276C294.362 246.084 293.733 245.762 293.573 245.679L293.568 245.677C293.314 245.547 293.121 245.428 293.019 245.363C292.81 245.231 292.654 245.116 292.59 245.068C292.445 244.96 292.336 244.87 292.294 244.835C292.124 244.693 291.997 244.574 291.952 244.53C291.817 244.402 291.694 244.275 291.581 244.15L291.582 244.15M301.654 234.342C301.668 234.355 301.682 234.369 301.696 234.382C301.749 234.433 301.799 234.484 301.847 234.534C301.898 234.586 301.946 234.637 301.991 234.687L297.253 238.994L297.028 239.199L296.786 239.419L296.386 239.836L291.754 244.333L291.75 244.33C291.732 244.311 291.669 244.246 291.582 244.15C291.582 244.15 291.582 244.15 291.582 244.15M301.654 234.342C301.651 234.338 301.647 234.335 301.644 234.332C301.601 234.291 301.476 234.173 301.307 234.032C301.265 233.997 301.157 233.907 301.012 233.799C300.948 233.751 300.792 233.636 300.583 233.504C300.481 233.44 300.288 233.321 300.034 233.191L300.029 233.188C299.868 233.106 299.239 232.784 298.365 232.592C297.938 232.498 296.946 232.316 295.695 232.529C294.274 232.771 292.27 233.599 290.93 235.684C289.728 237.553 289.755 239.379 289.842 240.224C289.935 241.12 290.182 241.792 290.31 242.11C290.573 242.763 290.877 243.222 290.972 243.364C291.107 243.567 291.226 243.722 291.295 243.809C291.401 243.943 291.502 244.06 291.582 244.15M301.654 234.342L291.582 244.15M291.906 244.485L294.076 242.246L291.917 244.497C291.913 244.493 291.909 244.489 291.906 244.485Z" stroke="url(#paint7_radial_7860_109294)" stroke-opacity="0.9" stroke-width="14"/>
<path d="M275.579 392.251L275.58 392.25C275.439 392.09 275.278 391.921 275.095 391.751C275.035 391.695 274.859 391.532 274.618 391.345C274.559 391.299 274.401 391.177 274.188 391.037C274.094 390.975 273.858 390.822 273.538 390.657C273.382 390.577 273.08 390.429 272.68 390.288C272.423 390.197 271.432 389.848 270.105 389.898C268.545 389.956 265.218 390.777 263.796 394.377C262.829 396.827 263.559 398.891 263.691 399.265L263.698 399.283C264.067 400.333 264.623 401.053 264.683 401.13L264.688 401.136C264.952 401.488 265.196 401.74 265.247 401.792L265.251 401.797L265.259 401.805L265.26 401.806L265.262 401.808L265.264 401.81L265.273 401.819L265.277 401.823L265.378 401.928L265.453 401.998C265.476 402.019 265.5 402.042 265.527 402.067L265.527 402.066M275.579 392.251C275.464 392.119 275.378 392.031 275.351 392.002L275.35 392.001L275.348 392L275.346 391.998L270.584 396.62L270.313 396.912L270.155 397.052L269.977 397.209L265.046 401.574C265.11 401.646 265.178 401.72 265.252 401.797C265.331 401.879 265.416 401.963 265.508 402.048C265.509 402.049 265.511 402.051 265.512 402.052C265.517 402.056 265.522 402.061 265.527 402.066M275.579 392.251C275.675 392.36 275.79 392.499 275.91 392.659L275.914 392.664C275.973 392.741 276.529 393.461 276.899 394.511L276.906 394.529C277.038 394.903 277.768 396.967 276.801 399.417C275.378 403.017 272.052 403.838 270.492 403.896C269.165 403.946 268.174 403.597 267.918 403.506C267.517 403.365 267.215 403.217 267.059 403.137C266.739 402.973 266.503 402.819 266.41 402.758C266.197 402.617 266.038 402.495 265.98 402.45C265.762 402.281 265.599 402.133 265.527 402.066M275.579 392.251L265.527 402.066M301.654 234.342L301.655 234.341C301.684 234.369 301.709 234.394 301.73 234.415L301.773 234.456L301.848 234.534L301.851 234.537C301.887 234.574 302.086 234.779 302.307 235.059C302.375 235.146 302.495 235.301 302.63 235.504C302.725 235.645 303.029 236.105 303.292 236.757C303.42 237.076 303.667 237.747 303.759 238.643C303.847 239.489 303.874 241.315 302.672 243.184C301.331 245.269 299.327 246.097 297.906 246.339C296.656 246.552 295.664 246.37 295.237 246.276C294.362 246.084 293.733 245.762 293.573 245.679L293.568 245.677C293.314 245.547 293.121 245.428 293.019 245.363C292.81 245.231 292.654 245.116 292.59 245.068C292.445 244.96 292.336 244.87 292.294 244.835C292.124 244.693 291.997 244.574 291.952 244.53C291.817 244.402 291.694 244.275 291.581 244.15L291.582 244.15M301.654 234.342C301.668 234.355 301.682 234.369 301.696 234.382C301.749 234.433 301.799 234.484 301.847 234.534C301.898 234.586 301.946 234.637 301.991 234.687L297.253 238.994L297.028 239.199L296.786 239.419L296.386 239.836L291.754 244.333L291.75 244.33C291.732 244.311 291.669 244.246 291.582 244.15C291.582 244.15 291.582 244.15 291.582 244.15M301.654 234.342C301.651 234.338 301.647 234.335 301.644 234.332C301.601 234.291 301.476 234.173 301.307 234.032C301.265 233.997 301.157 233.907 301.012 233.799C300.948 233.751 300.792 233.636 300.583 233.504C300.481 233.44 300.288 233.321 300.034 233.191L300.029 233.188C299.868 233.106 299.239 232.784 298.365 232.592C297.938 232.498 296.946 232.316 295.695 232.529C294.274 232.771 292.27 233.599 290.93 235.684C289.728 237.553 289.755 239.379 289.842 240.224C289.935 241.12 290.182 241.792 290.31 242.11C290.573 242.763 290.877 243.222 290.972 243.364C291.107 243.567 291.226 243.722 291.295 243.809C291.401 243.943 291.502 244.06 291.582 244.15M301.654 234.342L291.582 244.15M291.906 244.485L294.076 242.246L291.917 244.497C291.913 244.493 291.909 244.489 291.906 244.485Z" stroke="url(#paint8_radial_7860_109294)" stroke-opacity="0.9" stroke-width="14"/>
<path d="M275.579 392.251L275.58 392.25C275.439 392.09 275.278 391.921 275.095 391.751C275.035 391.695 274.859 391.532 274.618 391.345C274.559 391.299 274.401 391.177 274.188 391.037C274.094 390.975 273.858 390.822 273.538 390.657C273.382 390.577 273.08 390.429 272.68 390.288C272.423 390.197 271.432 389.848 270.105 389.898C268.545 389.956 265.218 390.777 263.796 394.377C262.829 396.827 263.559 398.891 263.691 399.265L263.698 399.283C264.067 400.333 264.623 401.053 264.683 401.13L264.688 401.136C264.952 401.488 265.196 401.74 265.247 401.792L265.251 401.797L265.259 401.805L265.26 401.806L265.262 401.808L265.264 401.81L265.273 401.819L265.277 401.823L265.378 401.928L265.453 401.998C265.476 402.019 265.5 402.042 265.527 402.067L265.527 402.066M275.579 392.251C275.464 392.119 275.378 392.031 275.351 392.002L275.35 392.001L275.348 392L275.346 391.998L270.584 396.62L270.313 396.912L270.155 397.052L269.977 397.209L265.046 401.574C265.11 401.646 265.178 401.72 265.252 401.797C265.331 401.879 265.416 401.963 265.508 402.048C265.509 402.049 265.511 402.051 265.512 402.052C265.517 402.056 265.522 402.061 265.527 402.066M275.579 392.251C275.675 392.36 275.79 392.499 275.91 392.659L275.914 392.664C275.973 392.741 276.529 393.461 276.899 394.511L276.906 394.529C277.038 394.903 277.768 396.967 276.801 399.417C275.378 403.017 272.052 403.838 270.492 403.896C269.165 403.946 268.174 403.597 267.918 403.506C267.517 403.365 267.215 403.217 267.059 403.137C266.739 402.973 266.503 402.819 266.41 402.758C266.197 402.617 266.038 402.495 265.98 402.45C265.762 402.281 265.599 402.133 265.527 402.066M275.579 392.251L265.527 402.066M301.654 234.342L301.655 234.341C301.684 234.369 301.709 234.394 301.73 234.415L301.773 234.456L301.848 234.534L301.851 234.537C301.887 234.574 302.086 234.779 302.307 235.059C302.375 235.146 302.495 235.301 302.63 235.504C302.725 235.645 303.029 236.105 303.292 236.757C303.42 237.076 303.667 237.747 303.759 238.643C303.847 239.489 303.874 241.315 302.672 243.184C301.331 245.269 299.327 246.097 297.906 246.339C296.656 246.552 295.664 246.37 295.237 246.276C294.362 246.084 293.733 245.762 293.573 245.679L293.568 245.677C293.314 245.547 293.121 245.428 293.019 245.363C292.81 245.231 292.654 245.116 292.59 245.068C292.445 244.96 292.336 244.87 292.294 244.835C292.124 244.693 291.997 244.574 291.952 244.53C291.817 244.402 291.694 244.275 291.581 244.15L291.582 244.15M301.654 234.342C301.668 234.355 301.682 234.369 301.696 234.382C301.749 234.433 301.799 234.484 301.847 234.534C301.898 234.586 301.946 234.637 301.991 234.687L297.253 238.994L297.028 239.199L296.786 239.419L296.386 239.836L291.754 244.333L291.75 244.33C291.732 244.311 291.669 244.246 291.582 244.15C291.582 244.15 291.582 244.15 291.582 244.15M301.654 234.342C301.651 234.338 301.647 234.335 301.644 234.332C301.601 234.291 301.476 234.173 301.307 234.032C301.265 233.997 301.157 233.907 301.012 233.799C300.948 233.751 300.792 233.636 300.583 233.504C300.481 233.44 300.288 233.321 300.034 233.191L300.029 233.188C299.868 233.106 299.239 232.784 298.365 232.592C297.938 232.498 296.946 232.316 295.695 232.529C294.274 232.771 292.27 233.599 290.93 235.684C289.728 237.553 289.755 239.379 289.842 240.224C289.935 241.12 290.182 241.792 290.31 242.11C290.573 242.763 290.877 243.222 290.972 243.364C291.107 243.567 291.226 243.722 291.295 243.809C291.401 243.943 291.502 244.06 291.582 244.15M301.654 234.342L291.582 244.15M291.906 244.485L294.076 242.246L291.917 244.497C291.913 244.493 291.909 244.489 291.906 244.485Z" stroke="url(#paint9_radial_7860_109294)" stroke-opacity="0.9" stroke-width="14"/>
</g>
<path d="M300.362 240.041L300.509 240.203L300.333 240.364C300.331 240.361 300.328 240.357 300.324 240.351C300.321 240.346 300.311 240.329 300.302 240.306C300.298 240.294 300.29 240.27 300.288 240.238C300.285 240.207 300.287 240.142 300.332 240.077C300.341 240.063 300.351 240.052 300.362 240.041ZM300.102 240.129L300.34 240.391L355.56 319.83L355.569 319.843L355.58 319.855C359.873 324.596 360.073 332.508 356.032 337.545L284.429 396.034L284.408 396.051L284.391 396.072C284.391 396.072 284.391 396.072 284.391 396.072C280.456 400.955 273.962 401.306 269.662 396.971L269.567 396.866L269.338 396.614L227.358 319.205L227.344 319.179L227.324 319.157C223.028 314.413 222.831 306.492 226.881 301.456L285.263 240.941L285.278 240.925L285.285 240.915C289.22 236.039 295.711 235.691 300.008 240.026L300.102 240.129ZM269.362 396.874C269.347 396.907 269.329 396.933 269.308 396.954L269.163 396.794L269.299 396.669L269.345 396.644C269.352 396.655 269.363 396.675 269.371 396.699L269.371 396.7C269.375 396.713 269.399 396.788 269.362 396.874Z" fill="url(#paint10_linear_7860_109294)"/>
<path d="M300.362 240.041L300.509 240.203L300.333 240.364C300.331 240.361 300.328 240.357 300.324 240.351C300.321 240.346 300.311 240.329 300.302 240.306C300.298 240.294 300.29 240.27 300.288 240.238C300.285 240.207 300.287 240.142 300.332 240.077C300.341 240.063 300.351 240.052 300.362 240.041ZM300.102 240.129L300.34 240.391L355.56 319.83L355.569 319.843L355.58 319.855C359.873 324.596 360.073 332.508 356.032 337.545L284.429 396.034L284.408 396.051L284.391 396.072C284.391 396.072 284.391 396.072 284.391 396.072C280.456 400.955 273.962 401.306 269.662 396.971L269.567 396.866L269.338 396.614L227.358 319.205L227.344 319.179L227.324 319.157C223.028 314.413 222.831 306.492 226.881 301.456L285.263 240.941L285.278 240.925L285.285 240.915C289.22 236.039 295.711 235.691 300.008 240.026L300.102 240.129ZM269.362 396.874C269.347 396.907 269.329 396.933 269.308 396.954L269.163 396.794L269.299 396.669L269.345 396.644C269.352 396.655 269.363 396.675 269.371 396.699L269.371 396.7C269.375 396.713 269.399 396.788 269.362 396.874Z" stroke="url(#paint11_radial_7860_109294)" stroke-width="0.5"/>
<path d="M300.362 240.041L300.509 240.203L300.333 240.364C300.331 240.361 300.328 240.357 300.324 240.351C300.321 240.346 300.311 240.329 300.302 240.306C300.298 240.294 300.29 240.27 300.288 240.238C300.285 240.207 300.287 240.142 300.332 240.077C300.341 240.063 300.351 240.052 300.362 240.041ZM300.102 240.129L300.34 240.391L355.56 319.83L355.569 319.843L355.58 319.855C359.873 324.596 360.073 332.508 356.032 337.545L284.429 396.034L284.408 396.051L284.391 396.072C284.391 396.072 284.391 396.072 284.391 396.072C280.456 400.955 273.962 401.306 269.662 396.971L269.567 396.866L269.338 396.614L227.358 319.205L227.344 319.179L227.324 319.157C223.028 314.413 222.831 306.492 226.881 301.456L285.263 240.941L285.278 240.925L285.285 240.915C289.22 236.039 295.711 235.691 300.008 240.026L300.102 240.129ZM269.362 396.874C269.347 396.907 269.329 396.933 269.308 396.954L269.163 396.794L269.299 396.669L269.345 396.644C269.352 396.655 269.363 396.675 269.371 396.699L269.371 396.7C269.375 396.713 269.399 396.788 269.362 396.874Z" stroke="url(#paint12_linear_7860_109294)" stroke-opacity="0.05" stroke-width="0.5"/>
<g filter="url(#filter9_iii_7860_109294)">
<path d="M285.752 249.052C289.387 244.542 295.422 244.248 299.362 248.324L299.36 248.329L299.583 248.575L349.016 319.688C352.937 324.018 353.115 331.237 349.413 335.831L285.306 388.196L285.306 388.197C281.671 392.707 275.636 393 271.696 388.924L271.698 388.919L271.475 388.674L233.888 319.366C229.967 315.036 229.789 307.818 233.491 303.224L285.752 249.053L285.752 249.052ZM271.475 388.689C271.474 388.687 271.479 388.692 271.488 388.702C271.483 388.698 271.479 388.693 271.475 388.689ZM299.571 248.546C299.575 248.551 299.579 248.555 299.583 248.56C299.585 248.561 299.579 248.557 299.571 248.546Z" fill="#00ED76"/>
</g>
<path d="M233.865 303.553C230.333 307.955 230.508 314.885 234.26 319.028L234.299 319.072L234.328 319.124L271.887 388.38L272.069 388.581L272.151 388.671C275.883 392.43 281.5 392.125 284.917 387.886L233.865 303.553ZM233.865 303.553L286.11 249.398L286.141 249.366L286.154 249.347C289.572 245.122 295.181 244.824 298.909 248.58M233.865 303.553L298.909 248.58M271.696 388.924L271.698 388.919L271.511 388.714L271.675 388.564L271.908 388.436C271.922 388.459 271.938 388.492 271.951 388.531C271.954 388.542 271.97 388.588 271.974 388.655L271.751 388.871L271.7 388.92L271.696 388.924ZM271.696 388.924C271.737 388.967 271.778 389.008 271.819 389.05C271.837 389.033 271.854 389.014 271.87 388.992L271.696 388.924ZM299.362 248.324C299.322 248.282 299.281 248.241 299.24 248.2C299.223 248.216 299.206 248.235 299.19 248.255L299.362 248.324ZM299.362 248.324L299.358 248.328L299.31 248.376L299.084 248.594C299.085 248.594 299.085 248.595 299.085 248.596C299.089 248.661 299.104 248.71 299.113 248.733C299.13 248.782 299.151 248.816 299.158 248.826C299.166 248.84 299.174 248.851 299.179 248.858L299.287 248.782L299.552 248.54L299.36 248.329L299.362 248.324ZM298.909 248.58L298.989 248.668L299.19 248.889L348.605 319.976L348.623 320.002L348.644 320.026C352.39 324.162 352.571 331.075 349.058 335.478L284.992 387.81L284.951 387.844L284.918 387.885L298.909 248.58Z" stroke="url(#paint13_linear_7860_109294)" stroke-opacity="0.15"/>
<path d="M233.865 303.553C230.333 307.955 230.508 314.885 234.26 319.028L234.299 319.072L234.328 319.124L271.887 388.38L272.069 388.581L272.151 388.671C275.883 392.43 281.5 392.125 284.917 387.886L233.865 303.553ZM233.865 303.553L286.11 249.398L286.141 249.366L286.154 249.347C289.572 245.122 295.181 244.824 298.909 248.58M233.865 303.553L298.909 248.58M271.696 388.924L271.698 388.919L271.511 388.714L271.675 388.564L271.908 388.436C271.922 388.459 271.938 388.492 271.951 388.531C271.954 388.542 271.97 388.588 271.974 388.655L271.751 388.871L271.7 388.92L271.696 388.924ZM271.696 388.924C271.737 388.967 271.778 389.008 271.819 389.05C271.837 389.033 271.854 389.014 271.87 388.992L271.696 388.924ZM299.362 248.324C299.322 248.282 299.281 248.241 299.24 248.2C299.223 248.216 299.206 248.235 299.19 248.255L299.362 248.324ZM299.362 248.324L299.358 248.328L299.31 248.376L299.084 248.594C299.085 248.594 299.085 248.595 299.085 248.596C299.089 248.661 299.104 248.71 299.113 248.733C299.13 248.782 299.151 248.816 299.158 248.826C299.166 248.84 299.174 248.851 299.179 248.858L299.287 248.782L299.552 248.54L299.36 248.329L299.362 248.324ZM298.909 248.58L298.989 248.668L299.19 248.889L348.605 319.976L348.623 320.002L348.644 320.026C352.39 324.162 352.571 331.075 349.058 335.478L284.992 387.81L284.951 387.844L284.918 387.885L298.909 248.58Z" stroke="url(#paint14_linear_7860_109294)" stroke-opacity="0.25"/>
<path d="M289.775 264.312L311.995 319.573L282.076 316.956L260.539 313.92L289.775 264.312Z" fill="#DB81DD"/>
<g filter="url(#filter10_i_7860_109294)">
<path d="M290.017 263.468L313.001 319.589L282.153 316.89L282.227 316.896L290.017 263.468Z" fill="#4FA39E"/>
</g>
<path d="M289.775 264.311L311.995 319.573L282.076 316.955L282.147 316.961L289.775 264.311Z" fill="#A1FFF9"/>
<path d="M284.131 333.755L260.545 313.847L282.178 316.603L312.001 319.5L284.131 333.755Z" fill="#4D8BFF"/>
<path d="M284.131 333.755L282.178 316.603L282.178 316.603L312.001 319.5L284.131 333.755Z" fill="#824284"/>
<path d="M285.219 339.807L258.616 318.196L280.49 366.891L285.219 339.807Z" fill="#78A7FF"/>
<path d="M281.029 340.544L259.114 319.631L279.859 365.485L281.029 340.544Z" fill="#668CD2"/>
<path d="M281.061 340.89L312.421 324.574L279.889 366.771L281.061 340.89Z" fill="#785015"/>
<path d="M281.119 340.552L310.182 325.825L279.939 365.492L281.119 340.552Z" fill="#824284"/>
<defs>
<filter id="filter0_f_7860_109294" x="288.199" y="521.146" width="19.1863" height="19.1863" filterUnits="userSpaceOnUse" color-interpolation-filters="sRGB">
<feFlood flood-opacity="0" result="BackgroundImageFix"/>
<feBlend mode="normal" in="SourceGraphic" in2="BackgroundImageFix" result="shape"/>
<feGaussianBlur stdDeviation="3" result="effect1_foregroundBlur_7860_109294"/>
</filter>
<filter id="filter1_f_7860_109294" x="293.996" y="526.939" width="7.59314" height="7.59314" filterUnits="userSpaceOnUse" color-interpolation-filters="sRGB">
<feFlood flood-opacity="0" result="BackgroundImageFix"/>
<feBlend mode="normal" in="SourceGraphic" in2="BackgroundImageFix" result="shape"/>
<feGaussianBlur stdDeviation="1" result="effect1_foregroundBlur_7860_109294"/>
</filter>
<filter id="filter2_f_7860_109294" x="320.538" y="165.423" width="19.1863" height="19.1863" filterUnits="userSpaceOnUse" color-interpolation-filters="sRGB">
<feFlood flood-opacity="0" result="BackgroundImageFix"/>
<feBlend mode="normal" in="SourceGraphic" in2="BackgroundImageFix" result="shape"/>
<feGaussianBlur stdDeviation="3" result="effect1_foregroundBlur_7860_109294"/>
</filter>
<filter id="filter3_f_7860_109294" x="326.334" y="171.216" width="7.59326" height="7.59314" filterUnits="userSpaceOnUse" color-interpolation-filters="sRGB">
<feFlood flood-opacity="0" result="BackgroundImageFix"/>
<feBlend mode="normal" in="SourceGraphic" in2="BackgroundImageFix" result="shape"/>
<feGaussianBlur stdDeviation="1" result="effect1_foregroundBlur_7860_109294"/>
</filter>
<filter id="filter4_f_7860_109294" x="126.507" y="424.131" width="19.1863" height="19.1863" filterUnits="userSpaceOnUse" color-interpolation-filters="sRGB">
<feFlood flood-opacity="0" result="BackgroundImageFix"/>
<feBlend mode="normal" in="SourceGraphic" in2="BackgroundImageFix" result="shape"/>
<feGaussianBlur stdDeviation="3" result="effect1_foregroundBlur_7860_109294"/>
</filter>
<filter id="filter5_f_7860_109294" x="132.303" y="429.923" width="7.59314" height="7.59314" filterUnits="userSpaceOnUse" color-interpolation-filters="sRGB">
<feFlood flood-opacity="0" result="BackgroundImageFix"/>
<feBlend mode="normal" in="SourceGraphic" in2="BackgroundImageFix" result="shape"/>
<feGaussianBlur stdDeviation="1" result="effect1_foregroundBlur_7860_109294"/>
</filter>
<filter id="filter6_f_7860_109294" x="449.892" y="327.115" width="19.1863" height="19.1863" filterUnits="userSpaceOnUse" color-interpolation-filters="sRGB">
<feFlood flood-opacity="0" result="BackgroundImageFix"/>
<feBlend mode="normal" in="SourceGraphic" in2="BackgroundImageFix" result="shape"/>
<feGaussianBlur stdDeviation="3" result="effect1_foregroundBlur_7860_109294"/>
</filter>
<filter id="filter7_f_7860_109294" x="455.688" y="332.908" width="7.59326" height="7.59314" filterUnits="userSpaceOnUse" color-interpolation-filters="sRGB">
<feFlood flood-opacity="0" result="BackgroundImageFix"/>
<feBlend mode="normal" in="SourceGraphic" in2="BackgroundImageFix" result="shape"/>
<feGaussianBlur stdDeviation="1" result="effect1_foregroundBlur_7860_109294"/>
</filter>
<filter id="filter8_b_7860_109294" x="221.307" y="190.426" width="178.887" height="255.48" filterUnits="userSpaceOnUse" color-interpolation-filters="sRGB">
<feFlood flood-opacity="0" result="BackgroundImageFix"/>
<feGaussianBlur in="BackgroundImage" stdDeviation="17.5"/>
<feComposite in2="SourceAlpha" operator="in" result="effect1_backgroundBlur_7860_109294"/>
<feBlend mode="normal" in="SourceGraphic" in2="effect1_backgroundBlur_7860_109294" result="shape"/>
</filter>
<filter id="filter9_iii_7860_109294" x="226.827" y="241.457" width="129.251" height="154.335" filterUnits="userSpaceOnUse" color-interpolation-filters="sRGB">
<feFlood flood-opacity="0" result="BackgroundImageFix"/>
<feBlend mode="normal" in="SourceGraphic" in2="BackgroundImageFix" result="shape"/>
<feColorMatrix in="SourceAlpha" type="matrix" values="0 0 0 0 0 0 0 0 0 0 0 0 0 0 0 0 0 0 127 0" result="hardAlpha"/>
<feOffset dx="4" dy="-6"/>
<feGaussianBlur stdDeviation="2"/>
<feComposite in2="hardAlpha" operator="arithmetic" k2="-1" k3="1"/>
<feColorMatrix type="matrix" values="0 0 0 0 0.316667 0 0 0 0 0.316667 0 0 0 0 0.316667 0 0 0 0.25 0"/>
<feBlend mode="normal" in2="shape" result="effect1_innerShadow_7860_109294"/>
<feColorMatrix in="SourceAlpha" type="matrix" values="0 0 0 0 0 0 0 0 0 0 0 0 0 0 0 0 0 0 127 0" result="hardAlpha"/>
<feOffset dx="-4" dy="6"/>
<feGaussianBlur stdDeviation="2"/>
<feComposite in2="hardAlpha" operator="arithmetic" k2="-1" k3="1"/>
<feColorMatrix type="matrix" values="0 0 0 0 0.270833 0 0 0 0 0.270833 0 0 0 0 0.270833 0 0 0 0.25 0"/>
<feBlend mode="normal" in2="effect1_innerShadow_7860_109294" result="effect2_innerShadow_7860_109294"/>
<feColorMatrix in="SourceAlpha" type="matrix" values="0 0 0 0 0 0 0 0 0 0 0 0 0 0 0 0 0 0 127 0" result="hardAlpha"/>
<feOffset dx="-4" dy="-4"/>
<feGaussianBlur stdDeviation="2"/>
<feComposite in2="hardAlpha" operator="arithmetic" k2="-1" k3="1"/>
<feColorMatrix type="matrix" values="0 0 0 0 0.270833 0 0 0 0 0.270833 0 0 0 0 0.270833 0 0 0 0.25 0"/>
<feBlend mode="normal" in2="effect2_innerShadow_7860_109294" result="effect3_innerShadow_7860_109294"/>
</filter>
<filter id="filter10_i_7860_109294" x="282.153" y="263.469" width="30.8479" height="56.1201" filterUnits="userSpaceOnUse" color-interpolation-filters="sRGB">
<feFlood flood-opacity="0" result="BackgroundImageFix"/>
<feBlend mode="normal" in="SourceGraphic" in2="BackgroundImageFix" result="shape"/>
<feColorMatrix in="SourceAlpha" type="matrix" values="0 0 0 0 0 0 0 0 0 0 0 0 0 0 0 0 0 0 127 0" result="hardAlpha"/>
<feOffset dy="8"/>
<feComposite in2="hardAlpha" operator="arithmetic" k2="-1" k3="1"/>
<feColorMatrix type="matrix" values="0 0 0 0 0.393316 0 0 0 0 0.820833 0 0 0 0 0.793545 0 0 0 1 0"/>
<feBlend mode="normal" in2="shape" result="effect1_innerShadow_7860_109294"/>
</filter>
<radialGradient id="paint0_radial_7860_109294" cx="0" cy="0" r="1" gradientUnits="userSpaceOnUse" gradientTransform="translate(298 337) rotate(75.6832) scale(231.701 194.935)">
<stop stop-color="#00ED76"/>
<stop offset="1" stop-color="#00ED77" stop-opacity="0"/>
</radialGradient>
<radialGradient id="paint1_radial_7860_109294" cx="0" cy="0" r="1" gradientUnits="userSpaceOnUse" gradientTransform="translate(330.631 165.661) rotate(90) scale(32.3385 18)">
<stop stop-color="#640DFB"/>
<stop offset="1" stop-color="#640DFB" stop-opacity="0"/>
</radialGradient>
<radialGradient id="paint2_radial_7860_109294" cx="0" cy="0" r="1" gradientUnits="userSpaceOnUse" gradientTransform="translate(330.131 175.515) rotate(-180) scale(32.3385 18)">
<stop stop-color="#640DFB"/>
<stop offset="1" stop-color="#640DFB" stop-opacity="0"/>
</radialGradient>
<radialGradient id="paint3_radial_7860_109294" cx="0" cy="0" r="1" gradientUnits="userSpaceOnUse" gradientTransform="translate(136.6 424.369) rotate(90) scale(32.3385 18)">
<stop stop-color="#640DFB"/>
<stop offset="1" stop-color="#640DFB" stop-opacity="0"/>
</radialGradient>
<radialGradient id="paint4_radial_7860_109294" cx="0" cy="0" r="1" gradientUnits="userSpaceOnUse" gradientTransform="translate(136.1 434.223) rotate(-180) scale(32.3385 18)">
<stop stop-color="#640DFB"/>
<stop offset="1" stop-color="#640DFB" stop-opacity="0"/>
</radialGradient>
<radialGradient id="paint5_radial_7860_109294" cx="0" cy="0" r="1" gradientUnits="userSpaceOnUse" gradientTransform="translate(369.206 346.783) rotate(-136.54) scale(35.7485 16.7968)">
<stop stop-color="#00ED7B"/>
<stop offset="0.302247" stop-color="#1A7233"/>
<stop offset="0.989583" stop-color="#1A7233" stop-opacity="0"/>
</radialGradient>
<radialGradient id="paint6_radial_7860_109294" cx="0" cy="0" r="1" gradientUnits="userSpaceOnUse" gradientTransform="translate(386.184 275.015) rotate(140.888) scale(94.6475 39.7669)">
<stop stop-color="#FF7070"/>
<stop offset="1" stop-color="#FF7070" stop-opacity="0"/>
</radialGradient>
<radialGradient id="paint7_radial_7860_109294" cx="0" cy="0" r="1" gradientUnits="userSpaceOnUse" gradientTransform="translate(339.539 239.563) rotate(92.8233) scale(40.9808 22.9334)">
<stop stop-color="#FF7070"/>
<stop offset="1" stop-color="#FF7070" stop-opacity="0"/>
</radialGradient>
<radialGradient id="paint8_radial_7860_109294" cx="0" cy="0" r="1" gradientUnits="userSpaceOnUse" gradientTransform="translate(388.406 282.687) rotate(145.955) scale(73.4302 57.2936)">
<stop offset="0.00401228" stop-color="#148812"/>
<stop offset="0.317708" stop-color="#83C9C2"/>
<stop offset="0.713542" stop-color="#A8E22C"/>
<stop offset="1" stop-color="#CCFFFA" stop-opacity="0"/>
</radialGradient>
<radialGradient id="paint9_radial_7860_109294" cx="0" cy="0" r="1" gradientUnits="userSpaceOnUse" gradientTransform="translate(311.717 316.31) rotate(79.3978) scale(76.4309 42.8807)">
<stop stop-color="#52FF63"/>
<stop offset="1" stop-color="white" stop-opacity="0"/>
</radialGradient>
<linearGradient id="paint10_linear_7860_109294" x1="360.607" y1="290.889" x2="183.864" y2="337.722" gradientUnits="userSpaceOnUse">
<stop stop-color="#010101" stop-opacity="0"/>
<stop stop-color="#06542D" stop-opacity="0.9"/>
<stop offset="0.459707" stop-color="#00ED76"/>
<stop offset="0.827067" stop-color="#085B32" stop-opacity="0.995031"/>
<stop offset="1" stop-color="#010101"/>
<stop offset="1" stop-color="white" stop-opacity="0"/>
</linearGradient>
<radialGradient id="paint11_radial_7860_109294" cx="0" cy="0" r="1" gradientUnits="userSpaceOnUse" gradientTransform="translate(194.993 367.73) rotate(-28.7106) scale(102.489 89.8016)">
<stop stop-color="#343434"/>
<stop offset="1" stop-color="#A4A4A4" stop-opacity="0"/>
</radialGradient>
<linearGradient id="paint12_linear_7860_109294" x1="283.791" y1="318.534" x2="435.984" y2="379.645" gradientUnits="userSpaceOnUse">
<stop stop-color="#3D3F3E"/>
<stop offset="1" stop-color="#606261"/>
</linearGradient>
<linearGradient id="paint13_linear_7860_109294" x1="169.358" y1="246.77" x2="332.903" y2="291.314" gradientUnits="userSpaceOnUse">
<stop stop-color="#58CBC2" stop-opacity="0.25"/>
<stop offset="1" stop-color="white" stop-opacity="0"/>
</linearGradient>
<linearGradient id="paint14_linear_7860_109294" x1="388.924" y1="334.159" x2="285.46" y2="309.572" gradientUnits="userSpaceOnUse">
<stop stop-color="#3D3F3B"/>
<stop offset="1" stop-color="#EBEBEB" stop-opacity="0.33"/>
</linearGradient>
</defs>
</svg>
