<svg width="50" height="50" viewBox="0 0 50 50" fill="none" xmlns="http://www.w3.org/2000/svg">
    <path d="M1 25C1 11.7452 11.7452 1 25 1V1C38.2548 1 49 11.7452 49 25V25C49 38.2548 38.2548 49 25 49V49C11.7452 49 1 38.2548 1 25V25Z" fill="#FEE4E2"/>
    <path d="M25 21V25M25 29H25.01M35 25C35 30.5228 30.5228 35 25 35C19.4772 35 15 30.5228 15 25C15 19.4772 19.4772 15 25 15C30.5228 15 35 19.4772 35 25Z" stroke="#D92D20" stroke-width="2" stroke-linecap="round" stroke-linejoin="round"/>
    <path d="M25 48C12.2975 48 2 37.7025 2 25H0C0 38.8071 11.1929 50 25 50V48ZM48 25C48 37.7025 37.7025 48 25 48V50C38.8071 50 50 38.8071 50 25H48ZM25 2C37.7025 2 48 12.2975 48 25H50C50 11.1929 38.8071 0 25 0V2ZM25 0C11.1929 0 0 11.1929 0 25H2C2 12.2975 12.2975 2 25 2V0Z" fill="#FEF3F2"/>
</svg>
