<svg width="158" height="80" viewBox="0 0 158 80" fill="none" xmlns="http://www.w3.org/2000/svg">
<g clip-path="url(#clip0_3467_86929)">
<ellipse cx="38.5" cy="76.5" rx="34.5" ry="1.5" fill="#242424"/>
<ellipse cx="66.5" cy="70.5" rx="13.5" ry="1.5" fill="#242424"/>
<ellipse cx="116" cy="78.5" rx="33" ry="1.5" fill="#242424"/>
<g filter="url(#filter0_d_3467_86929)">
<path d="M22.3682 31.1619L50.3849 44.2195C51.8822 44.9173 52.53 46.696 51.8319 48.1923L38.7685 76.192C38.0704 77.6883 36.2908 78.3356 34.7935 77.6378L6.77678 64.5803C5.27956 63.8825 4.63175 62.1038 5.32985 60.6075L18.3932 32.6078C19.0913 31.1114 20.871 30.4641 22.3682 31.1619Z" fill="black"/>
</g>
<path d="M22.3682 31.1619L50.3849 44.2195C51.8822 44.9173 52.53 46.696 51.8319 48.1923L38.7685 76.192C38.0704 77.6883 36.2908 78.3356 34.7935 77.6378L6.77678 64.5803C5.27956 63.8825 4.63175 62.1038 5.32985 60.6075L18.3932 32.6078C19.0913 31.1114 20.871 30.4641 22.3682 31.1619Z" fill="#D1ADFF" stroke="#121212"/>
<path fill-rule="evenodd" clip-rule="evenodd" d="M18.4575 59.3906L31.3499 61.8648L34.5628 70.6849L18.4575 59.3906Z" fill="#78A7FF"/>
<path fill-rule="evenodd" clip-rule="evenodd" d="M39.6367 51.6875L31.3523 61.8629L34.5652 70.683L39.6367 51.6875Z" fill="#D1ADFF"/>
<path fill-rule="evenodd" clip-rule="evenodd" d="M17.685 57.2661L30.5231 59.5898L26.4814 48.4949L17.685 57.2661Z" fill="#78A7FF"/>
<path fill-rule="evenodd" clip-rule="evenodd" d="M38.8647 49.563L30.525 59.5882L26.4834 48.4933L38.8647 49.563Z" fill="#D1ADFF"/>
<path fill-rule="evenodd" clip-rule="evenodd" d="M17.6912 57.278L26.4867 48.5061L21.8646 35.8174L17.6912 57.278Z" fill="#D1ADFF"/>
<path fill-rule="evenodd" clip-rule="evenodd" d="M38.8695 49.5749L26.4886 48.5042L21.8664 35.8154L38.8695 49.5749Z" fill="#89FEF7"/>
<path fill-rule="evenodd" clip-rule="evenodd" d="M39.4207 51.8743L34.4571 70.582L18.6199 59.4391L31.2908 61.8898L39.4207 51.8743ZM26.5075 48.7584L38.6707 49.8152L30.4823 59.6702L17.8698 57.38L26.5075 48.7584ZM17.7975 57.1814L21.8931 36.0907L38.5984 49.6167L26.436 48.562L17.7975 57.1814Z" stroke="black" stroke-width="0.4" stroke-linejoin="round"/>
<g filter="url(#filter1_d_3467_86929)">
<path d="M74.237 10.1165L81.5999 21.4482C82.4996 22.8329 82.1059 24.6844 80.7204 25.5836L69.3822 32.9427C67.9968 33.8419 66.1443 33.4484 65.2446 32.0637L57.8816 20.732C56.9819 19.3473 57.3757 17.4958 58.7611 16.5966L70.0993 9.23758C71.4848 8.33835 73.3373 8.73187 74.237 10.1165Z" fill="black"/>
</g>
<path d="M74.237 10.1165L81.5999 21.4482C82.4996 22.8329 82.1059 24.6844 80.7204 25.5836L69.3822 32.9427C67.9968 33.8419 66.1443 33.4484 65.2446 32.0637L57.8816 20.732C56.9819 19.3473 57.3757 17.4958 58.7611 16.5966L70.0993 9.23758C71.4848 8.33835 73.3373 8.73187 74.237 10.1165Z" fill="#78A7FF" stroke="#121212"/>
<path fill-rule="evenodd" clip-rule="evenodd" d="M63.4941 20.498L68.6253 25.1983L67.6 30.0161L63.4941 20.498Z" fill="#78A7FF"/>
<path fill-rule="evenodd" clip-rule="evenodd" d="M75.2285 22.9902L68.627 25.1995L67.6017 30.0173L75.2285 22.9902Z" fill="#D1ADFF"/>
<path fill-rule="evenodd" clip-rule="evenodd" d="M63.7401 19.3361L68.8889 23.9543L70.1786 17.894L63.7401 19.3361Z" fill="#78A7FF"/>
<path fill-rule="evenodd" clip-rule="evenodd" d="M75.4744 21.8303L68.8901 23.9574L70.1798 17.8971L75.4744 21.8303Z" fill="#D1ADFF"/>
<path fill-rule="evenodd" clip-rule="evenodd" d="M63.7382 19.3457L70.1764 17.9029L71.6513 10.972L63.7382 19.3457Z" fill="#D1ADFF"/>
<path fill-rule="evenodd" clip-rule="evenodd" d="M75.4726 21.8359L70.1784 17.9023L71.6534 10.9713L75.4726 21.8359Z" fill="#89FEF7"/>
<path fill-rule="evenodd" clip-rule="evenodd" d="M75.0777 23.0133L67.5807 29.9423L63.5531 20.5663L68.5909 25.1944L75.0777 23.0133ZM70.1171 18.0218L75.317 21.8886L68.8489 23.9821L63.7924 19.4416L70.1171 18.0218ZM63.8155 19.3331L71.5894 11.1024L75.3401 21.7802L70.14 17.9146L63.8155 19.3331Z" stroke="black" stroke-width="0.2" stroke-linejoin="round"/>
<g filter="url(#filter2_d_3467_86929)">
<path d="M107.207 7.70035L140.624 23.2745C142.409 24.1068 143.182 26.2283 142.349 28.013L126.768 61.4091C125.936 63.1938 123.813 63.9659 122.027 63.1336L88.6107 47.5595C86.8249 46.7272 86.0523 44.6057 86.8849 42.821L102.466 9.42484C103.299 7.64014 105.421 6.86806 107.207 7.70035Z" fill="black"/>
</g>
<path d="M107.207 7.70035L140.624 23.2745C142.409 24.1068 143.182 26.2283 142.349 28.013L126.768 61.4091C125.936 63.1938 123.813 63.9659 122.027 63.1336L88.6107 47.5595C86.8249 46.7272 86.0523 44.6057 86.8849 42.821L102.466 9.42484C103.299 7.64014 105.421 6.86806 107.207 7.70035Z" fill="#00ED76" stroke="#121212"/>
<path fill-rule="evenodd" clip-rule="evenodd" d="M102.542 41.3691L117.92 44.3201L121.752 54.8401L102.542 41.3691Z" fill="#78A7FF"/>
<path fill-rule="evenodd" clip-rule="evenodd" d="M127.804 32.1816L117.923 44.3181L121.755 54.8382L127.804 32.1816Z" fill="#D1ADFF"/>
<path fill-rule="evenodd" clip-rule="evenodd" d="M101.621 38.8375L116.933 41.609L112.113 28.3758L101.621 38.8375Z" fill="#78A7FF"/>
<path fill-rule="evenodd" clip-rule="evenodd" d="M126.882 29.65L116.935 41.6074L112.114 28.3742L126.882 29.65Z" fill="#D1ADFF"/>
<path fill-rule="evenodd" clip-rule="evenodd" d="M101.627 38.8498L112.118 28.3873L106.605 13.253L101.627 38.8498Z" fill="#D1ADFF"/>
<path fill-rule="evenodd" clip-rule="evenodd" d="M126.888 29.6623L112.121 28.3852L106.608 13.2509L126.888 29.6623Z" fill="#89FEF7"/>
<path fill-rule="evenodd" clip-rule="evenodd" d="M127.546 32.4022L121.625 54.7155L102.736 41.4249L117.849 44.3479L127.546 32.4022ZM112.144 28.6857L126.651 29.9463L116.884 41.7006L101.841 38.969L112.144 28.6857ZM101.755 38.7322L106.64 13.5765L126.565 29.7094L112.058 28.4515L101.755 38.7322Z" stroke="black" stroke-width="0.5" stroke-linejoin="round"/>
</g>
<defs>
<filter id="filter0_d_3467_86929" x="-2.95117" y="30.8809" width="63.064" height="63.0381" filterUnits="userSpaceOnUse" color-interpolation-filters="sRGB">
<feFlood flood-opacity="0" result="BackgroundImageFix"/>
<feColorMatrix in="SourceAlpha" type="matrix" values="0 0 0 0 0 0 0 0 0 0 0 0 0 0 0 0 0 0 127 0" result="hardAlpha"/>
<feOffset dy="8"/>
<feGaussianBlur stdDeviation="4"/>
<feColorMatrix type="matrix" values="0 0 0 0 0 0 0 0 0 0 0 0 0 0 0 0 0 0 0.5 0"/>
<feBlend mode="normal" in2="BackgroundImageFix" result="effect1_dropShadow_3467_86929"/>
<feBlend mode="normal" in="SourceGraphic" in2="effect1_dropShadow_3467_86929" result="shape"/>
</filter>
<filter id="filter1_d_3467_86929" x="49.3989" y="8.75488" width="40.6841" height="40.6709" filterUnits="userSpaceOnUse" color-interpolation-filters="sRGB">
<feFlood flood-opacity="0" result="BackgroundImageFix"/>
<feColorMatrix in="SourceAlpha" type="matrix" values="0 0 0 0 0 0 0 0 0 0 0 0 0 0 0 0 0 0 127 0" result="hardAlpha"/>
<feOffset dy="8"/>
<feGaussianBlur stdDeviation="4"/>
<feColorMatrix type="matrix" values="0 0 0 0 0 0 0 0 0 0 0 0 0 0 0 0 0 0 0.5 0"/>
<feBlend mode="normal" in2="BackgroundImageFix" result="effect1_dropShadow_3467_86929"/>
<feBlend mode="normal" in="SourceGraphic" in2="effect1_dropShadow_3467_86929" result="shape"/>
</filter>
<filter id="filter2_d_3467_86929" x="78.5498" y="7.36523" width="72.1348" height="72.1035" filterUnits="userSpaceOnUse" color-interpolation-filters="sRGB">
<feFlood flood-opacity="0" result="BackgroundImageFix"/>
<feColorMatrix in="SourceAlpha" type="matrix" values="0 0 0 0 0 0 0 0 0 0 0 0 0 0 0 0 0 0 127 0" result="hardAlpha"/>
<feOffset dy="8"/>
<feGaussianBlur stdDeviation="4"/>
<feColorMatrix type="matrix" values="0 0 0 0 0 0 0 0 0 0 0 0 0 0 0 0 0 0 0.5 0"/>
<feBlend mode="normal" in2="BackgroundImageFix" result="effect1_dropShadow_3467_86929"/>
<feBlend mode="normal" in="SourceGraphic" in2="effect1_dropShadow_3467_86929" result="shape"/>
</filter>
<clipPath id="clip0_3467_86929">
<rect width="158" height="80" fill="white"/>
</clipPath>
</defs>
</svg>
