<svg width="41" height="40" viewBox="0 0 41 40" fill="none" xmlns="http://www.w3.org/2000/svg">
<path d="M0.5 20C0.5 8.95431 9.45431 0 20.5 0C31.5457 0 40.5 8.95431 40.5 20C40.5 31.0457 31.5457 40 20.5 40C9.45431 40 0.5 31.0457 0.5 20Z" fill="#B3FAD7"/>
<path d="M21.3335 11.6667H15.5002C15.0581 11.6667 14.6342 11.8423 14.3217 12.1549C14.0091 12.4675 13.8335 12.8914 13.8335 13.3334V26.6667C13.8335 27.1088 14.0091 27.5327 14.3217 27.8453C14.6342 28.1578 15.0581 28.3334 15.5002 28.3334H25.5002C25.9422 28.3334 26.3661 28.1578 26.6787 27.8453C26.9912 27.5327 27.1668 27.1088 27.1668 26.6667V17.5001M21.3335 11.6667L27.1668 17.5001M21.3335 11.6667V17.5001H27.1668" stroke="#00ED76" stroke-width="1.66667" stroke-linecap="round" stroke-linejoin="round"/>
</svg>
