<svg width="25" height="25" viewBox="0 0 25 25" fill="none" xmlns="http://www.w3.org/2000/svg">
<path d="M14.0375 12.5004L17.8925 8.62822C18.0827 8.42003 18.1855 8.1461 18.1794 7.86363C18.1733 7.58116 18.0588 7.31197 17.8598 7.11226C17.6609 6.91254 17.3928 6.79772 17.1116 6.79178C16.8303 6.78584 16.5577 6.88923 16.3505 7.08037L16.3515 7.07937L12.4965 10.9515L8.64154 7.07937C8.43427 6.88836 8.16156 6.78515 7.88034 6.79127C7.59912 6.7974 7.33112 6.91239 7.13229 7.11223C6.93345 7.31208 6.81915 7.58135 6.81323 7.86382C6.80732 8.1463 6.91025 8.42015 7.10054 8.62822L7.09954 8.62721L10.9545 12.4993L7.09954 16.3715C6.99108 16.4714 6.90387 16.5924 6.84318 16.7271C6.78248 16.8618 6.74954 17.0074 6.74635 17.1552C6.74316 17.303 6.76978 17.45 6.82461 17.5872C6.87944 17.7244 6.96134 17.849 7.06539 17.9536C7.16944 18.0582 7.29348 18.1405 7.43004 18.1957C7.56661 18.2509 7.71287 18.2777 7.86004 18.2746C8.0072 18.2715 8.15221 18.2385 8.28635 18.1776C8.42048 18.1167 8.54096 18.0292 8.64054 17.9203L8.64154 17.9193L12.4965 14.0472L16.3515 17.9193C16.451 18.0283 16.5715 18.1159 16.7056 18.1768C16.8397 18.2378 16.9847 18.2709 17.1318 18.2741C17.279 18.2773 17.4253 18.2506 17.5619 18.1955C17.6985 18.1404 17.8226 18.0581 17.9267 17.9536C18.0308 17.8491 18.1128 17.7245 18.1677 17.5874C18.2226 17.4502 18.2493 17.3033 18.2462 17.1555C18.2431 17.0076 18.2103 16.862 18.1497 16.7273C18.0891 16.5925 18.0019 16.4715 17.8935 16.3715L17.8925 16.3705L14.0375 12.5004Z" fill="white"/>
</svg>
