<svg width="24" height="24" viewBox="0 0 24 24" fill="none" xmlns="http://www.w3.org/2000/svg">
    <path d="M16.34 9.32303C16.4361 9.23346 16.5136 9.12586 16.568 9.00635C16.6225 8.88685 16.6529 8.75778 16.6575 8.62653C16.6621 8.49527 16.6408 8.3644 16.5948 8.24137C16.5488 8.11835 16.4791 8.00559 16.3895 7.90953C16.2999 7.81346 16.1923 7.73598 16.0728 7.68151C15.9533 7.62703 15.8243 7.59663 15.693 7.59203C15.5618 7.58743 15.4309 7.60874 15.3079 7.65472C15.1848 7.7007 15.0721 7.77046 14.976 7.86003L12.05 10.588L9.32201 7.66103C9.13948 7.47407 8.89102 7.36598 8.6298 7.35989C8.36859 7.3538 8.11536 7.45019 7.92431 7.62843C7.73327 7.80667 7.61957 8.05261 7.60755 8.31362C7.59553 8.57463 7.68615 8.82998 7.86001 9.02503L10.588 11.951L7.66101 14.679C7.56155 14.7677 7.48082 14.8753 7.42354 14.9956C7.36626 15.1159 7.3336 15.2464 7.32747 15.3795C7.32135 15.5126 7.34188 15.6456 7.38786 15.7706C7.43384 15.8957 7.50434 16.0103 7.59523 16.1077C7.68612 16.2051 7.79555 16.2834 7.91711 16.3379C8.03867 16.3924 8.16991 16.4221 8.3031 16.4252C8.4363 16.4283 8.56877 16.4048 8.69274 16.356C8.81671 16.3072 8.92968 16.2341 9.02501 16.141L11.951 13.414L14.679 16.34C14.7671 16.4413 14.8747 16.5238 14.9953 16.5827C15.116 16.6415 15.2472 16.6754 15.3813 16.6825C15.5153 16.6895 15.6494 16.6694 15.7756 16.6235C15.9017 16.5776 16.0173 16.5068 16.1155 16.4153C16.2137 16.3237 16.2924 16.2134 16.3471 16.0907C16.4017 15.9681 16.4311 15.8358 16.4334 15.7016C16.4358 15.5673 16.4112 15.434 16.3609 15.3096C16.3107 15.1851 16.2359 15.072 16.141 14.977L13.414 12.051L16.34 9.32303Z" fill="white"/>
    <path fill-rule="evenodd" clip-rule="evenodd" d="M1 12.0012C1 5.92622 5.925 1.00122 12 1.00122C18.075 1.00122 23 5.92622 23 12.0012C23 18.0762 18.075 23.0012 12 23.0012C5.925 23.0012 1 18.0762 1 12.0012ZM12 21.0012C10.8181 21.0012 9.64778 20.7684 8.55585 20.3161C7.46392 19.8638 6.47177 19.2009 5.63604 18.3652C4.80031 17.5295 4.13738 16.5373 3.68508 15.4454C3.23279 14.3534 3 13.1831 3 12.0012C3 10.8193 3.23279 9.649 3.68508 8.55707C4.13738 7.46514 4.80031 6.47299 5.63604 5.63726C6.47177 4.80153 7.46392 4.1386 8.55585 3.6863C9.64778 3.23401 10.8181 3.00122 12 3.00122C14.3869 3.00122 16.6761 3.94943 18.364 5.63726C20.0518 7.32509 21 9.61427 21 12.0012C21 14.3882 20.0518 16.6774 18.364 18.3652C16.6761 20.053 14.3869 21.0012 12 21.0012Z" fill="white"/>
</svg>
