<svg width="16" height="16" viewBox="0 0 16 16" fill="none" xmlns="http://www.w3.org/2000/svg">
<path d="M5.33331 2.66683V10.6668C5.33331 11.0205 5.47379 11.3596 5.72384 11.6096C5.97389 11.8597 6.31302 12.0002 6.66665 12.0002H12C12.3536 12.0002 12.6927 11.8597 12.9428 11.6096C13.1928 11.3596 13.3333 11.0205 13.3333 10.6668V4.82816C13.3333 4.65054 13.2978 4.4747 13.2289 4.31099C13.1599 4.14728 13.059 3.99899 12.932 3.87483L10.722 1.7135C10.4729 1.46993 10.1384 1.33354 9.78998 1.3335H6.66665C6.31302 1.3335 5.97389 1.47397 5.72384 1.72402C5.47379 1.97407 5.33331 2.31321 5.33331 2.66683V2.66683Z" stroke="currentColor" stroke-linecap="round" stroke-linejoin="round"/>
<path d="M10.6667 12.0003V13.3337C10.6667 13.6873 10.5262 14.0264 10.2761 14.2765C10.0261 14.5265 9.68695 14.667 9.33332 14.667H3.99999C3.64637 14.667 3.30723 14.5265 3.05718 14.2765C2.80713 14.0264 2.66666 13.6873 2.66666 13.3337V6.00033C2.66666 5.6467 2.80713 5.30756 3.05718 5.05752C3.30723 4.80747 3.64637 4.66699 3.99999 4.66699H5.33332" stroke="currentColor" stroke-linecap="round" stroke-linejoin="round"/>
</svg>
