<svg width="16" height="16" viewBox="0 0 16 16" fill="none" xmlns="http://www.w3.org/2000/svg">
<path d="M1.33333 13.3333C0.966667 13.3333 0.652889 13.2029 0.392 12.942C0.130667 12.6807 0 12.3667 0 12H2.66667C2.3 12 1.98622 11.8696 1.72533 11.6087C1.464 11.3473 1.33333 11.0333 1.33333 10.6667V3.33333C1.33333 2.96667 1.464 2.65267 1.72533 2.39133C1.98622 2.13044 2.3 2 2.66667 2H13.3333C13.7 2 14.014 2.13044 14.2753 2.39133C14.5362 2.65267 14.6667 2.96667 14.6667 3.33333V10.6667C14.6667 11.0333 14.5362 11.3473 14.2753 11.6087C14.014 11.8696 13.7 12 13.3333 12H16C16 12.3667 15.8696 12.6807 15.6087 12.942C15.3473 13.2029 15.0333 13.3333 14.6667 13.3333H1.33333ZM8 12.6667C8.18889 12.6667 8.34733 12.6027 8.47533 12.4747C8.60289 12.3471 8.66667 12.1889 8.66667 12C8.66667 11.8111 8.60289 11.6529 8.47533 11.5253C8.34733 11.3973 8.18889 11.3333 8 11.3333C7.81111 11.3333 7.65289 11.3973 7.52533 11.5253C7.39733 11.6529 7.33333 11.8111 7.33333 12C7.33333 12.1889 7.39733 12.3471 7.52533 12.4747C7.65289 12.6027 7.81111 12.6667 8 12.6667ZM2.66667 10.6667H13.3333V3.33333H2.66667V10.6667ZM2.66667 10.6667V3.33333V10.6667Z" fill="white"/>
</svg>
