<svg width="60" height="60" viewBox="0 0 60 60" fill="none" xmlns="http://www.w3.org/2000/svg">
    <rect x="2" y="2" width="56" height="56" rx="28" fill="#121212"/>
    <path d="M37.3563 30.7406C37.3438 28.6094 38.3094 27.0031 40.2594 25.8188C39.1687 24.2563 37.5187 23.3969 35.3438 23.2312C33.2844 23.0687 31.0312 24.4312 30.2062 24.4312C29.3344 24.4312 27.3406 23.2875 25.7719 23.2875C22.5344 23.3375 19.0938 25.8687 19.0938 31.0187C19.0938 32.5406 19.3719 34.1125 19.9281 35.7313C20.6719 37.8625 23.3531 43.0844 26.15 43C27.6125 42.9656 28.6469 41.9625 30.55 41.9625C32.3969 41.9625 33.3531 43 34.9844 43C37.8062 42.9594 40.2313 38.2125 40.9375 36.075C37.1531 34.2906 37.3563 30.85 37.3563 30.7406ZM34.0719 21.2094C35.6562 19.3281 35.5125 17.6156 35.4656 17C34.0656 17.0812 32.4469 17.9531 31.525 19.025C30.5094 20.175 29.9125 21.5969 30.0406 23.2C31.5531 23.3156 32.9344 22.5375 34.0719 21.2094Z" fill="white"/>
    <rect x="2" y="2" width="56" height="56" rx="28" stroke="#393939" stroke-width="4"/>
</svg>
