<svg width="16" height="16" viewBox="0 0 16 16" fill="none" xmlns="http://www.w3.org/2000/svg">
<path d="M9.66667 1.3335H4.33333C3.97971 1.3335 3.64057 1.47397 3.39052 1.72402C3.14048 1.97407 3 2.31321 3 2.66683V13.3335C3 13.6871 3.14048 14.0263 3.39052 14.2763C3.64057 14.5264 3.97971 14.6668 4.33333 14.6668H12.3333C12.687 14.6668 13.0261 14.5264 13.2761 14.2763C13.5262 14.0263 13.6667 13.6871 13.6667 13.3335V5.3335M9.66667 1.3335L13.6667 5.3335M9.66667 1.3335V5.3335H13.6667M11 8.66683H5.66667M11 11.3335H5.66667M7 6.00016H5.66667" stroke="white" stroke-linecap="round" stroke-linejoin="round"/>
</svg>
