<svg width="16" height="16" viewBox="0 0 16 16" fill="none" xmlns="http://www.w3.org/2000/svg">
<path d="M7.25 8C7.25 8.19891 7.32901 8.38968 7.46967 8.53033C7.61032 8.67098 7.80108 8.75 8 8.75C8.19891 8.75 8.38967 8.67098 8.53033 8.53033C8.67098 8.38968 8.75 8.19891 8.75 8C8.75 7.80109 8.67098 7.61032 8.53033 7.46967C8.38967 7.32902 8.19891 7.25 8 7.25C7.80108 7.25 7.61032 7.32902 7.46967 7.46967C7.32901 7.61032 7.25 7.80109 7.25 8ZM10.375 8C10.375 8.19891 10.454 8.38968 10.5947 8.53033C10.7353 8.67098 10.9261 8.75 11.125 8.75C11.3239 8.75 11.5147 8.67098 11.6553 8.53033C11.796 8.38968 11.875 8.19891 11.875 8C11.875 7.80109 11.796 7.61032 11.6553 7.46967C11.5147 7.32902 11.3239 7.25 11.125 7.25C10.9261 7.25 10.7353 7.32902 10.5947 7.46967C10.454 7.61032 10.375 7.80109 10.375 8ZM4.125 8C4.125 8.19891 4.20401 8.38968 4.34467 8.53033C4.48532 8.67098 4.67608 8.75 4.875 8.75C5.07391 8.75 5.26468 8.67098 5.40533 8.53033C5.54598 8.38968 5.625 8.19891 5.625 8C5.625 7.80109 5.54598 7.61032 5.40533 7.46967C5.26468 7.32902 5.07391 7.25 4.875 7.25C4.67608 7.25 4.48532 7.32902 4.34467 7.46967C4.20401 7.61032 4.125 7.80109 4.125 8ZM14.4562 5.2875C14.1031 4.44844 13.5969 3.69531 12.9516 3.04844C12.3108 2.40531 11.5501 1.8941 10.7125 1.54375C9.85312 1.18281 8.94062 1 8 1H7.96875C7.02187 1.00469 6.10468 1.19219 5.24218 1.56094C4.41181 1.91488 3.65822 2.427 3.02343 3.06875C2.38437 3.71406 1.88281 4.46406 1.53593 5.3C1.17656 6.16563 0.99531 7.08594 0.999997 8.03281C1.0053 9.11792 1.26202 10.187 1.75 11.1562V13.5312C1.75 13.7219 1.82572 13.9047 1.96051 14.0395C2.09531 14.1743 2.27812 14.25 2.46875 14.25H4.84531C5.81452 14.738 6.88364 14.9947 7.96875 15H8.00156C8.9375 15 9.84531 14.8188 10.7 14.4641C11.5333 14.1179 12.2912 13.6126 12.9312 12.9766C13.5766 12.3375 14.0844 11.5906 14.4391 10.7578C14.8078 9.89531 14.9953 8.97813 15 8.03125C15.0047 7.07969 14.8203 6.15625 14.4562 5.2875ZM12.0953 12.1313C11 13.2156 9.54687 13.8125 8 13.8125H7.97343C7.03125 13.8078 6.09531 13.5734 5.26875 13.1328L5.1375 13.0625H2.9375V10.8625L2.86718 10.7312C2.42656 9.90469 2.19218 8.96875 2.1875 8.02656C2.18125 6.46875 2.77656 5.00625 3.86875 3.90469C4.95937 2.80312 6.41718 2.19375 7.975 2.1875H8.00156C8.78281 2.1875 9.54062 2.33906 10.2547 2.63906C10.9516 2.93125 11.5766 3.35156 12.1141 3.88906C12.65 4.425 13.0719 5.05156 13.3641 5.74844C13.6672 6.47031 13.8187 7.23594 13.8156 8.02656C13.8062 9.58281 13.1953 11.0406 12.0953 12.1313Z" fill="white"/>
</svg>
