<svg width="46" height="46" viewBox="0 0 46 46" fill="none" xmlns="http://www.w3.org/2000/svg">
<rect x="3" y="3" width="40" height="40" rx="20" fill="#00ED76"/>
<path d="M29.9859 24.9875C30.6502 23.9458 31.0021 22.7355 30.9999 21.5C30.9999 17.91 28.0899 15 24.4999 15C23.2164 15 22.0199 15.372 21.0124 16.0135C20.3419 16.0511 19.6782 16.1683 19.0354 16.3625C19.524 15.843 20.084 15.3956 20.6984 15.0335C21.8429 14.3591 23.1465 14.0024 24.4749 14H24.4999C28.6419 14 31.9999 17.358 31.9999 21.5C31.9999 21.5675 31.9989 21.6345 31.9974 21.7015L31.9964 21.7255C31.9606 22.9854 31.6063 24.2156 30.9664 25.3015C30.6044 25.916 30.1569 26.4759 29.6374 26.9645C29.8279 26.333 29.9474 25.671 29.9859 24.9875Z" fill="#121212"/>
<path fill-rule="evenodd" clip-rule="evenodd" d="M23.886 22.3335C23.7481 21.9435 23.4927 21.6059 23.1549 21.3671C22.8171 21.1282 22.4137 21 22 21V20.5H21V21C20.4696 21 19.9609 21.2107 19.5858 21.5858C19.2107 21.9609 19 22.4696 19 23C19 23.5304 19.2107 24.0391 19.5858 24.4142C19.9609 24.7893 20.4696 25 21 25V27C20.565 27 20.1945 26.7225 20.0565 26.3335C20.036 26.2699 20.003 26.211 19.9594 26.1603C19.9157 26.1097 19.8624 26.0683 19.8025 26.0386C19.7426 26.0089 19.6773 25.9916 19.6106 25.9875C19.5439 25.9835 19.477 25.9929 19.414 26.0152C19.3509 26.0375 19.293 26.0721 19.2436 26.1172C19.1942 26.1622 19.1543 26.2167 19.1264 26.2775C19.0984 26.3382 19.0829 26.4039 19.0808 26.4707C19.0787 26.5376 19.0899 26.6041 19.114 26.6665C19.2519 27.0565 19.5073 27.3941 19.8451 27.6329C20.1829 27.8718 20.5863 28 21 28V28.5H22V28C22.5304 28 23.0391 27.7893 23.4142 27.4142C23.7893 27.0391 24 26.5304 24 26C24 25.4696 23.7893 24.9609 23.4142 24.5858C23.0391 24.2107 22.5304 24 22 24V22C22.435 22 22.8055 22.2775 22.9435 22.6665C22.964 22.7301 22.997 22.789 23.0406 22.8397C23.0843 22.8903 23.1376 22.9317 23.1975 22.9614C23.2574 22.9911 23.3227 23.0084 23.3894 23.0125C23.4561 23.0165 23.523 23.0071 23.586 22.9848C23.6491 22.9625 23.707 22.9279 23.7564 22.8828C23.8058 22.8378 23.8457 22.7833 23.8736 22.7225C23.9016 22.6618 23.9171 22.5961 23.9192 22.5293C23.9213 22.4624 23.9101 22.3959 23.886 22.3335ZM21 22C20.7348 22 20.4804 22.1054 20.2929 22.2929C20.1054 22.4804 20 22.7348 20 23C20 23.2652 20.1054 23.5196 20.2929 23.7071C20.4804 23.8946 20.7348 24 21 24V22ZM22 27C22.2652 27 22.5196 26.8946 22.7071 26.7071C22.8946 26.5196 23 26.2652 23 26C23 25.7348 22.8946 25.4804 22.7071 25.2929C22.5196 25.1054 22.2652 25 22 25V27Z" fill="#121212"/>
<path fill-rule="evenodd" clip-rule="evenodd" d="M29 24.5C29 28.642 25.642 32 21.5 32C17.358 32 14 28.642 14 24.5C14 20.358 17.358 17 21.5 17C25.642 17 29 20.358 29 24.5ZM28 24.5C28 28.09 25.09 31 21.5 31C17.91 31 15 28.09 15 24.5C15 20.91 17.91 18 21.5 18C25.09 18 28 20.91 28 24.5Z" fill="#121212"/>
<rect x="3" y="3" width="40" height="40" rx="20" stroke="#41C681" stroke-width="6"/>
</svg>
