<svg width="16" height="16" viewBox="0 0 16 16" fill="none" xmlns="http://www.w3.org/2000/svg">
<path d="M8 10.0001C9.10457 10.0001 10 9.10465 10 8.00008C10 6.89551 9.10457 6.00008 8 6.00008C6.89543 6.00008 6 6.89551 6 8.00008C6 9.10465 6.89543 10.0001 8 10.0001Z" stroke="#F2F4F7" stroke-width="1.2" stroke-linecap="round" stroke-linejoin="round"/>
<path d="M12.9333 10.0001C12.8446 10.2012 12.8181 10.4242 12.8573 10.6405C12.8965 10.8567 12.9996 11.0563 13.1533 11.2134L13.1933 11.2534C13.3173 11.3772 13.4156 11.5243 13.4827 11.6862C13.5498 11.848 13.5844 12.0215 13.5844 12.1967C13.5844 12.372 13.5498 12.5455 13.4827 12.7073C13.4156 12.8692 13.3173 13.0162 13.1933 13.1401C13.0695 13.264 12.9224 13.3624 12.7606 13.4295C12.5987 13.4966 12.4252 13.5311 12.25 13.5311C12.0748 13.5311 11.9013 13.4966 11.7394 13.4295C11.5775 13.3624 11.4305 13.264 11.3067 13.1401L11.2667 13.1001C11.1095 12.9464 10.91 12.8433 10.6937 12.8041C10.4775 12.7649 10.2544 12.7913 10.0533 12.8801C9.85615 12.9646 9.68799 13.1049 9.56954 13.2838C9.45109 13.4626 9.38752 13.6722 9.38667 13.8867V14.0001C9.38667 14.3537 9.24619 14.6928 8.99614 14.9429C8.74609 15.1929 8.40695 15.3334 8.05333 15.3334C7.69971 15.3334 7.36057 15.1929 7.11052 14.9429C6.86047 14.6928 6.72 14.3537 6.72 14.0001V13.9401C6.71484 13.7194 6.64341 13.5054 6.51501 13.3259C6.3866 13.1464 6.20716 13.0096 6 12.9334C5.79892 12.8447 5.57587 12.8182 5.35961 12.8574C5.14334 12.8966 4.94379 12.9997 4.78667 13.1534L4.74667 13.1934C4.62283 13.3174 4.47578 13.4157 4.31392 13.4828C4.15206 13.5499 3.97855 13.5845 3.80333 13.5845C3.62811 13.5845 3.45461 13.5499 3.29275 13.4828C3.13088 13.4157 2.98383 13.3174 2.86 13.1934C2.73603 13.0696 2.63769 12.9225 2.57059 12.7607C2.50349 12.5988 2.46895 12.4253 2.46895 12.2501C2.46895 12.0749 2.50349 11.9014 2.57059 11.7395C2.63769 11.5776 2.73603 11.4306 2.86 11.3067L2.9 11.2667C3.05369 11.1096 3.15679 10.9101 3.196 10.6938C3.23521 10.4775 3.20874 10.2545 3.12 10.0534C3.03549 9.85623 2.89517 9.68807 2.71631 9.56962C2.53745 9.45117 2.32786 9.3876 2.11333 9.38675H2C1.64638 9.38675 1.30724 9.24627 1.05719 8.99622C0.807142 8.74617 0.666666 8.40704 0.666666 8.05341C0.666666 7.69979 0.807142 7.36065 1.05719 7.11061C1.30724 6.86056 1.64638 6.72008 2 6.72008H2.06C2.28066 6.71492 2.49467 6.64349 2.6742 6.51509C2.85373 6.38668 2.99048 6.20724 3.06667 6.00008C3.15541 5.799 3.18188 5.57595 3.14267 5.35969C3.10346 5.14343 3.00036 4.94387 2.84667 4.78675L2.80667 4.74675C2.6827 4.62292 2.58435 4.47587 2.51725 4.314C2.45015 4.15214 2.41562 3.97864 2.41562 3.80341C2.41562 3.62819 2.45015 3.45469 2.51725 3.29283C2.58435 3.13096 2.6827 2.98391 2.80667 2.86008C2.9305 2.73611 3.07755 2.63777 3.23941 2.57067C3.40128 2.50357 3.57478 2.46903 3.75 2.46903C3.92522 2.46903 4.09872 2.50357 4.26059 2.57067C4.42245 2.63777 4.5695 2.73611 4.69333 2.86008L4.73333 2.90008C4.89045 3.05377 5.09001 3.15687 5.30627 3.19608C5.52254 3.2353 5.74559 3.20882 5.94667 3.12008H6C6.19718 3.03557 6.36534 2.89525 6.48379 2.71639C6.60224 2.53753 6.66581 2.32794 6.66667 2.11341V2.00008C6.66667 1.64646 6.80714 1.30732 7.05719 1.05727C7.30724 0.807224 7.64638 0.666748 8 0.666748C8.35362 0.666748 8.69276 0.807224 8.94281 1.05727C9.19286 1.30732 9.33333 1.64646 9.33333 2.00008V2.06008C9.33419 2.27461 9.39775 2.4842 9.5162 2.66306C9.63465 2.84192 9.80282 2.98224 10 3.06675C10.2011 3.15549 10.4241 3.18196 10.6404 3.14275C10.8567 3.10354 11.0562 3.00044 11.2133 2.84675L11.2533 2.80675C11.3772 2.68278 11.5242 2.58443 11.6861 2.51733C11.8479 2.45024 12.0214 2.4157 12.1967 2.4157C12.3719 2.4157 12.5454 2.45024 12.7073 2.51733C12.8691 2.58443 13.0162 2.68278 13.14 2.80675C13.264 2.93058 13.3623 3.07763 13.4294 3.23949C13.4965 3.40136 13.531 3.57486 13.531 3.75008C13.531 3.9253 13.4965 4.0988 13.4294 4.26067C13.3623 4.42253 13.264 4.56958 13.14 4.69341L13.1 4.73341C12.9463 4.89053 12.8432 5.09009 12.804 5.30636C12.7648 5.52262 12.7913 5.74567 12.88 5.94675V6.00008C12.9645 6.19726 13.1048 6.36543 13.2837 6.48388C13.4625 6.60233 13.6721 6.66589 13.8867 6.66675H14C14.3536 6.66675 14.6928 6.80722 14.9428 7.05727C15.1929 7.30732 15.3333 7.64646 15.3333 8.00008C15.3333 8.3537 15.1929 8.69284 14.9428 8.94289C14.6928 9.19294 14.3536 9.33341 14 9.33341H13.94C13.7255 9.33427 13.5159 9.39784 13.337 9.51629C13.1582 9.63474 13.0178 9.8029 12.9333 10.0001Z" stroke="#F2F4F7" stroke-width="1.2" stroke-linecap="round" stroke-linejoin="round"/>
</svg>
