<svg width="25" height="24" viewBox="0 0 25 24" fill="none" xmlns="http://www.w3.org/2000/svg">
<path d="M9.1998 17.2998C9.01647 17.1165 8.9248 16.8831 8.9248 16.5998C8.9248 16.3165 9.01647 16.0831 9.1998 15.8998L13.0998 11.9998L9.1998 8.0998C9.01647 7.91647 8.9248 7.68314 8.9248 7.3998C8.9248 7.11647 9.01647 6.88314 9.1998 6.6998C9.38314 6.51647 9.61647 6.4248 9.8998 6.4248C10.1831 6.4248 10.4165 6.51647 10.5998 6.6998L15.1998 11.2998C15.2998 11.3998 15.3708 11.5081 15.4128 11.6248C15.4541 11.7415 15.4748 11.8665 15.4748 11.9998C15.4748 12.1331 15.4541 12.2581 15.4128 12.3748C15.3708 12.4915 15.2998 12.5998 15.1998 12.6998L10.5998 17.2998C10.4165 17.4831 10.1831 17.5748 9.8998 17.5748C9.61647 17.5748 9.38314 17.4831 9.1998 17.2998Z" fill="currentColor"/>
</svg>
