<svg width="21" height="20" viewBox="0 0 21 20" fill="none" xmlns="http://www.w3.org/2000/svg">
    <path d="M3 5.00033H4.66667M4.66667 5.00033H18M4.66667 5.00033V16.667C4.66667 17.109 4.84226 17.5329 5.15482 17.8455C5.46738 18.1581 5.89131 18.3337 6.33333 18.3337H14.6667C15.1087 18.3337 15.5326 18.1581 15.8452 17.8455C16.1577 17.5329 16.3333 17.109 16.3333 16.667V5.00033H4.66667ZM7.16667 5.00033V3.33366C7.16667 2.89163 7.34226 2.46771 7.65482 2.15515C7.96738 1.84259 8.39131 1.66699 8.83333 1.66699H12.1667C12.6087 1.66699 13.0326 1.84259 13.3452 2.15515C13.6577 2.46771 13.8333 2.89163 13.8333 3.33366V5.00033M8.83333 9.16699V14.167M12.1667 9.16699V14.167" stroke="#D0D5DD" stroke-width="1.66667" stroke-linecap="round" stroke-linejoin="round"/>
</svg>
