<svg width="24" height="24" viewBox="0 0 24 24" fill="none" xmlns="http://www.w3.org/2000/svg">
<g clip-path="url(#clip0_1223_109319)">
<path d="M6.86294 17.7C6.56922 17.7005 6.28562 17.5928 6.06614 17.3976L-0.00585938 12L6.40334 6.30244C6.64224 6.09807 6.95179 5.99562 7.26544 6.01711C7.57909 6.0386 7.87178 6.18232 8.08057 6.41736C8.28935 6.65241 8.39756 6.96 8.38192 7.27399C8.36629 7.58799 8.22805 7.88331 7.99694 8.09644L3.60614 12L7.65974 15.6024C7.84185 15.764 7.97051 15.9772 8.02862 16.2136C8.08673 16.4501 8.07155 16.6986 7.98509 16.9262C7.89864 17.1538 7.74499 17.3497 7.54457 17.4879C7.34414 17.6261 7.10641 17.7001 6.86294 17.7ZM17.5969 17.6976L24.0061 12L17.9341 6.60244C17.6962 6.39112 17.3841 6.28295 17.0665 6.30174C16.7488 6.32053 16.4517 6.46474 16.2403 6.70264C16.029 6.94054 15.9209 7.25264 15.9396 7.57029C15.9584 7.88794 16.1026 8.18512 16.3405 8.39644L20.3941 12L16.0033 15.9024C15.7653 16.1138 15.6209 16.411 15.602 16.7288C15.5831 17.0465 15.6912 17.3588 15.9025 17.5968C16.1139 17.8349 16.4111 17.9793 16.7289 17.9982C17.0466 18.0171 17.3589 17.909 17.5969 17.6976ZM11.9833 19.398L14.3833 4.99804C14.414 4.84066 14.4129 4.67873 14.3799 4.52181C14.347 4.36489 14.2829 4.21617 14.1915 4.08442C14.1002 3.95267 13.9833 3.84057 13.8479 3.75474C13.7124 3.66892 13.5612 3.61111 13.403 3.58472C13.2448 3.55833 13.083 3.56391 12.927 3.60112C12.7711 3.63833 12.6242 3.70642 12.4949 3.80137C12.3657 3.89631 12.2569 4.01619 12.1748 4.15391C12.0927 4.29164 12.039 4.44442 12.0169 4.60324L9.61694 19.0032C9.58625 19.1606 9.58741 19.3225 9.62035 19.4795C9.6533 19.6364 9.71735 19.7851 9.80874 19.9169C9.90013 20.0486 10.017 20.1607 10.1524 20.2465C10.2879 20.3324 10.4391 20.3902 10.5973 20.4166C10.7554 20.4429 10.9173 20.4374 11.0732 20.4002C11.2292 20.3629 11.3761 20.2949 11.5053 20.1999C11.6345 20.105 11.7434 19.9851 11.8255 19.8474C11.9076 19.7096 11.9613 19.5569 11.9833 19.398Z" fill="#D0D5DD"/>
</g>
<defs>
<clipPath id="clip0_1223_109319">
<rect width="24" height="24" fill="white"/>
</clipPath>
</defs>
</svg>
