<svg width="16" height="16" viewBox="0 0 16 16" fill="none" xmlns="http://www.w3.org/2000/svg">
<path d="M9.52501 6.8665L9.02501 6L3.96401 8.923L3.46551 8.635C3.5981 8.52711 3.71094 8.39701 3.79901 8.2505C3.94735 7.99358 4.01618 7.69843 3.99679 7.40239C3.97739 7.10635 3.87065 6.82271 3.69005 6.58734C3.50945 6.35197 3.26311 6.17544 2.98218 6.08007C2.70125 5.9847 2.39835 5.97478 2.11178 6.05156C1.82522 6.12834 1.56786 6.28838 1.37224 6.51143C1.17663 6.73448 1.05155 7.01053 1.01283 7.30466C0.974104 7.5988 1.02347 7.89781 1.15469 8.16389C1.28591 8.42997 1.49308 8.65117 1.75001 8.7995L2.96401 9.5L1.75001 10.201C1.46821 10.3594 1.24439 10.6037 1.11118 10.8983C0.977981 11.1929 0.942363 11.5223 1.00952 11.8385C1.07668 12.1547 1.24311 12.4412 1.48453 12.6562C1.72595 12.8712 2.02975 13.0035 2.35161 13.0337C2.67348 13.0639 2.99658 12.9905 3.2738 12.8242C3.55103 12.6579 3.76788 12.4074 3.89273 12.1092C4.01758 11.811 4.0439 11.4807 3.96786 11.1665C3.89182 10.8523 3.71739 10.5706 3.47001 10.3625L3.96401 10.0775L7.29501 12L7.79501 11.135L4.96401 9.5L9.52501 6.8665ZM2.01701 7.63C1.98703 7.51827 1.99673 7.3996 2.04444 7.29422C2.09215 7.18884 2.17493 7.10326 2.27866 7.05207C2.3824 7.00087 2.50068 6.98724 2.61334 7.01348C2.72601 7.03971 2.82609 7.10421 2.89653 7.19597C2.96698 7.28773 3.00343 7.40107 2.99967 7.51669C2.99591 7.63231 2.95217 7.74305 2.87592 7.83004C2.79966 7.91703 2.6956 7.97488 2.58147 7.99375C2.46734 8.01261 2.3502 7.99132 2.25001 7.9335C2.19303 7.90084 2.14309 7.85719 2.1031 7.8051C2.0631 7.753 2.03384 7.69349 2.01701 7.63ZM2.50001 11C2.5878 10.9999 2.67406 11.0229 2.75013 11.0668C2.8262 11.1106 2.88939 11.1737 2.93334 11.2497C2.97729 11.3257 3.00046 11.4119 3.00052 11.4997C3.00058 11.5875 2.97752 11.6737 2.93366 11.7498C2.8898 11.8258 2.8267 11.889 2.75069 11.9329C2.67467 11.9768 2.58844 12 2.50065 12C2.41286 12 2.32661 11.9769 2.25058 11.933C2.17454 11.8892 2.1114 11.826 2.06751 11.75C2.02364 11.674 2.00054 11.5879 2.00052 11.5001C2.0005 11.4124 2.02356 11.3262 2.06738 11.2502C2.1112 11.1742 2.17425 11.1111 2.25019 11.0672C2.32612 11.0233 2.41228 11.0001 2.50001 11ZM8.50001 13H10.5V14H8.50001V13ZM5.00001 13H7.00001V14H5.00001V13Z" fill="white"/>
<path d="M14 14H12V13H14V2H3.5V4H2.5V2C2.50026 1.73486 2.60571 1.48066 2.79319 1.29319C2.98066 1.10571 3.23486 1.00026 3.5 1H14C14.2651 1.00026 14.5193 1.10571 14.7068 1.29319C14.8943 1.48066 14.9997 1.73486 15 2V13C14.9997 13.2651 14.8943 13.5193 14.7068 13.7068C14.5193 13.8943 14.2651 13.9997 14 14Z" fill="white"/>
</svg>
