<svg width="16" height="16" viewBox="0 0 16 16" fill="none" xmlns="http://www.w3.org/2000/svg">
<path fill-rule="evenodd" clip-rule="evenodd" d="M4.9999 11.4999C4.9999 11.3673 5.05258 11.2401 5.14635 11.1464C5.24011 11.0526 5.36729 10.9999 5.4999 10.9999H14.4999C14.6325 10.9999 14.7597 11.0526 14.8535 11.1464C14.9472 11.2401 14.9999 11.3673 14.9999 11.4999C14.9999 11.6325 14.9472 11.7597 14.8535 11.8535C14.7597 11.9472 14.6325 11.9999 14.4999 11.9999H5.4999C5.36729 11.9999 5.24011 11.9472 5.14635 11.8535C5.05258 11.7597 4.9999 11.6325 4.9999 11.4999ZM4.9999 7.49992C4.9999 7.36731 5.05258 7.24013 5.14635 7.14636C5.24011 7.0526 5.36729 6.99992 5.4999 6.99992H14.4999C14.6325 6.99992 14.7597 7.0526 14.8535 7.14636C14.9472 7.24013 14.9999 7.36731 14.9999 7.49992C14.9999 7.63253 14.9472 7.7597 14.8535 7.85347C14.7597 7.94724 14.6325 7.99992 14.4999 7.99992H5.4999C5.36729 7.99992 5.24011 7.94724 5.14635 7.85347C5.05258 7.7597 4.9999 7.63253 4.9999 7.49992ZM4.9999 3.49992C4.9999 3.36731 5.05258 3.24013 5.14635 3.14636C5.24011 3.0526 5.36729 2.99992 5.4999 2.99992H14.4999C14.6325 2.99992 14.7597 3.0526 14.8535 3.14636C14.9472 3.24013 14.9999 3.36731 14.9999 3.49992C14.9999 3.63253 14.9472 3.7597 14.8535 3.85347C14.7597 3.94724 14.6325 3.99992 14.4999 3.99992H5.4999C5.36729 3.99992 5.24011 3.94724 5.14635 3.85347C5.05258 3.7597 4.9999 3.63253 4.9999 3.49992ZM3.8539 2.14592C3.90046 2.19236 3.93741 2.24754 3.96261 2.30828C3.98782 2.36903 4.00079 2.43415 4.00079 2.49992C4.00079 2.56568 3.98782 2.63081 3.96261 2.69155C3.93741 2.7523 3.90046 2.80747 3.8539 2.85392L2.3539 4.35392C2.30745 4.40048 2.25228 4.43742 2.19153 4.46263C2.13079 4.48784 2.06567 4.50081 1.9999 4.50081C1.93413 4.50081 1.86901 4.48784 1.80827 4.46263C1.74752 4.43742 1.69234 4.40048 1.6459 4.35392L1.1459 3.85392C1.09941 3.80743 1.06253 3.75224 1.03738 3.6915C1.01222 3.63076 0.999268 3.56566 0.999268 3.49992C0.999268 3.43417 1.01222 3.36907 1.03738 3.30833C1.06253 3.24759 1.09941 3.19241 1.1459 3.14592C1.19239 3.09943 1.24758 3.06255 1.30832 3.03739C1.36906 3.01223 1.43416 2.99929 1.4999 2.99929C1.56564 2.99929 1.63074 3.01223 1.69148 3.03739C1.75222 3.06255 1.80741 3.09943 1.8539 3.14592L1.9999 3.29292L3.1459 2.14592C3.19234 2.09935 3.24752 2.06241 3.30827 2.0372C3.36901 2.012 3.43413 1.99902 3.4999 1.99902C3.56567 1.99902 3.63079 2.012 3.69153 2.0372C3.75228 2.06241 3.80745 2.09935 3.8539 2.14592ZM3.8539 6.14592C3.90046 6.19236 3.93741 6.24754 3.96261 6.30828C3.98782 6.36903 4.00079 6.43415 4.00079 6.49992C4.00079 6.56568 3.98782 6.63081 3.96261 6.69155C3.93741 6.7523 3.90046 6.80747 3.8539 6.85392L2.3539 8.35392C2.30745 8.40048 2.25228 8.43742 2.19153 8.46263C2.13079 8.48784 2.06567 8.50081 1.9999 8.50081C1.93413 8.50081 1.86901 8.48784 1.80827 8.46263C1.74752 8.43742 1.69234 8.40048 1.6459 8.35392L1.1459 7.85392C1.05201 7.76003 0.999268 7.63269 0.999268 7.49992C0.999268 7.36714 1.05201 7.2398 1.1459 7.14592C1.23979 7.05203 1.36712 6.99929 1.4999 6.99929C1.63267 6.99929 1.76001 7.05203 1.8539 7.14592L1.9999 7.29292L3.1459 6.14592C3.19234 6.09935 3.24752 6.06241 3.30827 6.0372C3.36901 6.012 3.43413 5.99902 3.4999 5.99902C3.56567 5.99902 3.63079 6.012 3.69153 6.0372C3.75228 6.06241 3.80745 6.09935 3.8539 6.14592ZM3.8539 10.1459C3.90046 10.1924 3.93741 10.2475 3.96261 10.3083C3.98782 10.369 4.00079 10.4341 4.00079 10.4999C4.00079 10.5657 3.98782 10.6308 3.96261 10.6916C3.93741 10.7523 3.90046 10.8075 3.8539 10.8539L2.3539 12.3539C2.30745 12.4005 2.25228 12.4374 2.19153 12.4626C2.13079 12.4878 2.06567 12.5008 1.9999 12.5008C1.93413 12.5008 1.86901 12.4878 1.80827 12.4626C1.74752 12.4374 1.69234 12.4005 1.6459 12.3539L1.1459 11.8539C1.05201 11.76 0.999268 11.6327 0.999268 11.4999C0.999268 11.3671 1.05201 11.2398 1.1459 11.1459C1.23979 11.052 1.36712 10.9993 1.4999 10.9993C1.63267 10.9993 1.76001 11.052 1.8539 11.1459L1.9999 11.2929L3.1459 10.1459C3.19234 10.0994 3.24752 10.0624 3.30827 10.0372C3.36901 10.012 3.43413 9.99902 3.4999 9.99902C3.56567 9.99902 3.63079 10.012 3.69153 10.0372C3.75228 10.0624 3.80745 10.0994 3.8539 10.1459Z" fill="white"/>
</svg>
