<svg width="16" height="16" viewBox="0 0 16 16" fill="none" xmlns="http://www.w3.org/2000/svg">
<path d="M8.00008 10.6665C8.3537 10.6665 8.69284 10.807 8.94289 11.057C9.19294 11.3071 9.33341 11.6462 9.33341 11.9998C9.33341 12.3535 9.19294 12.6926 8.94289 12.9426C8.69284 13.1927 8.3537 13.3332 8.00008 13.3332C7.64646 13.3332 7.30732 13.1927 7.05727 12.9426C6.80722 12.6926 6.66675 12.3535 6.66675 11.9998C6.66675 11.6462 6.80722 11.3071 7.05727 11.057C7.30732 10.807 7.64646 10.6665 8.00008 10.6665ZM8.00008 6.6665C8.3537 6.6665 8.69284 6.80698 8.94289 7.05703C9.19294 7.30708 9.33341 7.64622 9.33341 7.99984C9.33341 8.35346 9.19294 8.6926 8.94289 8.94265C8.69284 9.19269 8.3537 9.33317 8.00008 9.33317C7.64646 9.33317 7.30732 9.19269 7.05727 8.94265C6.80722 8.6926 6.66675 8.35346 6.66675 7.99984C6.66675 7.64622 6.80722 7.30708 7.05727 7.05703C7.30732 6.80698 7.64646 6.6665 8.00008 6.6665M8.00008 2.6665C8.3537 2.6665 8.69284 2.80698 8.94289 3.05703C9.19294 3.30708 9.33341 3.64622 9.33341 3.99984C9.33341 4.35346 9.19294 4.6926 8.94289 4.94265C8.69284 5.19269 8.3537 5.33317 8.00008 5.33317C7.64646 5.33317 7.30732 5.19269 7.05727 4.94265C6.80722 4.6926 6.66675 4.35346 6.66675 3.99984C6.66675 3.64622 6.80722 3.30708 7.05727 3.05703C7.30732 2.80698 7.64646 2.6665 8.00008 2.6665Z" fill="currentColor"/>
</svg>
