<svg width="25" height="24" viewBox="0 0 25 24" fill="none" xmlns="http://www.w3.org/2000/svg">
<path d="M17.7998 15.3002C17.6165 15.4835 17.3831 15.5752 17.0998 15.5752C16.8165 15.5752 16.5831 15.4835 16.3998 15.3002L12.4998 11.4002L8.5998 15.3002C8.41647 15.4835 8.18314 15.5752 7.8998 15.5752C7.61647 15.5752 7.38314 15.4835 7.1998 15.3002C7.01647 15.1169 6.9248 14.8835 6.9248 14.6002C6.9248 14.3169 7.01647 14.0835 7.1998 13.9002L11.7998 9.3002C11.8998 9.2002 12.0081 9.12919 12.1248 9.0872C12.2415 9.04586 12.3665 9.02519 12.4998 9.02519C12.6331 9.02519 12.7581 9.04586 12.8748 9.0872C12.9915 9.12919 13.0998 9.2002 13.1998 9.3002L17.7998 13.9002C17.9831 14.0835 18.0748 14.3169 18.0748 14.6002C18.0748 14.8835 17.9831 15.1169 17.7998 15.3002Z" fill="currentColor"/>
</svg>
