<svg width="60" height="60" viewBox="0 0 60 60" fill="none" xmlns="http://www.w3.org/2000/svg">
    <rect x="2" y="2" width="56" height="56" rx="28" fill="#121212"/>
    <g clip-path="url(#clip0_157_71118)">
        <path d="M26.882 29.998C25.392 29.232 23.942 28.844 22.574 28.844C22.388 28.844 22.2 28.85 22.014 28.866C20.2246 29.0348 18.4701 29.4682 16.808 30.152L14.002 39.884C15.93 39.17 17.636 38.824 19.198 38.824C21.724 38.824 23.558 39.768 25.072 40.74C25.79 38.306 27.51 32.424 28.024 30.668C27.6493 30.4359 27.2685 30.2138 26.882 30.002V29.998ZM30.51 32.47L27.684 42.288C28.522 42.768 31.344 44.29 33.504 44.29C35.248 44.29 37.2 43.844 39.468 42.922L42.166 33.486C40.334 34.078 38.576 34.378 36.932 34.378C33.934 34.378 31.834 33.406 30.51 32.474V32.47ZM23.15 25.524C25.56 25.548 27.342 26.468 28.82 27.414L31.718 17.498C31.108 17.148 29.506 16.276 28.348 15.98C27.557 15.7976 26.7477 15.707 25.936 15.71C24.318 15.74 22.548 16.146 20.534 16.954L17.77 26.66C19.796 25.896 21.54 25.524 23.148 25.524H23.152H23.15ZM46 20.192C44.162 20.906 42.368 21.27 40.656 21.27C37.79 21.27 35.678 20.276 34.31 19.322L31.436 29.266C33.366 30.506 35.446 31.138 37.628 31.138C39.408 31.138 41.252 30.71 43.112 29.866L43.106 29.796L43.222 29.768L46.002 20.192H46Z" fill="white"/>
    </g>
    <rect x="2" y="2" width="56" height="56" rx="28" stroke="#393939" stroke-width="4"/>
    <defs>
        <clipPath id="clip0_157_71118">
            <rect width="32" height="32" fill="white" transform="translate(14 14)"/>
        </clipPath>
    </defs>
</svg>
