<svg width="24" height="24" viewBox="0 0 24 24" fill="none" xmlns="http://www.w3.org/2000/svg">
<path d="M7.53321 21.7143C4.76035 21.7143 2.17558 20.9078 0 19.5162C1.84714 19.6358 5.10692 19.3495 7.1345 17.4155C4.08435 17.2756 2.7088 14.9362 2.52938 13.9365C2.78854 14.0365 4.02454 14.1565 4.72229 13.8766C1.21363 12.9968 0.675367 9.91771 0.79498 8.97798C1.45285 9.43784 2.56925 9.5978 3.00783 9.55781C-0.261606 7.21849 0.914594 3.69951 1.49273 2.93973C3.83899 6.19028 7.35532 8.01592 11.7055 8.11746C11.6234 7.75773 11.5801 7.38322 11.5801 6.99855C11.5801 4.23793 13.8115 2 16.564 2C18.0022 2 19.2981 2.61093 20.2077 3.58815C21.1688 3.36295 22.6151 2.83577 23.3222 2.37989C22.9658 3.65952 21.8562 4.72699 21.1851 5.12264C21.1906 5.1361 21.1796 5.10912 21.1851 5.12264C21.7746 5.03346 23.3698 4.72689 24 4.29933C23.6884 5.01821 22.512 6.21348 21.5466 6.88265C21.7262 14.804 15.6656 21.7143 7.53321 21.7143Z" fill="#00ED7B"/>
</svg>
