<svg width="16" height="16" viewBox="0 0 16 16" fill="none" xmlns="http://www.w3.org/2000/svg">
<path d="M7.99042 11.672H8.74442L8.98642 12.8103H7.87476" stroke="white" stroke-width="0.5" stroke-linecap="round" stroke-linejoin="round"/>
<path d="M14.0526 10.5904L10.1959 10.6614L8.74423 11.672L8.87223 5.59471L9.66923 3.61671L13.5402 2.07971L14.1666 3.98671L13.5972 6.23538L13.6542 7.37371L13.2842 7.91971L14.0526 10.5904ZM14.0526 10.5904L13.3552 13.4224L10.5089 12.54L8.98623 13.9204H7.99023L14.0526 10.5904ZM8.8129 8.41471L11.4626 8.35571M13.2842 7.91971L10.5659 7.11771L13.2842 7.91971ZM13.5972 6.23538L14.0952 6.15005L13.5972 6.23538ZM14.0952 6.77604L13.6272 6.83305L14.0952 6.77604Z" stroke="white" stroke-width="0.5" stroke-linecap="round" stroke-linejoin="round"/>
<path d="M8.74438 11.672L10.5091 12.54M11.8824 10.6304L10.5091 12.54L10.1961 10.6614L11.4627 8.35571L10.5661 7.11771L8.87239 5.59471L13.5404 2.07971L11.8824 10.6304Z" stroke="white" stroke-width="0.5" stroke-linecap="round" stroke-linejoin="round"/>
<path d="M8.00967 11.672H7.25567L7.01367 12.8104H7.87467M9.15001 9.8877L10.212 9.4927L9.454 9.0977L9.15001 9.8877V9.8877ZM9.66934 3.6167H7.99034H9.66934Z" stroke="white" stroke-width="0.5" stroke-linecap="round" stroke-linejoin="round"/>
<path d="M7.18692 8.41471L4.53725 8.35571M1.94725 10.5904L5.80392 10.6614L7.25559 11.672L7.12758 5.59471L6.33059 3.61671L2.45959 2.07971L1.83325 3.98671L2.40259 6.23538L2.34559 7.37371L2.71559 7.91971L1.94725 10.5904L2.64459 13.4224L5.49092 12.54L7.01359 13.9204H8.00958L1.94725 10.5904ZM2.71559 7.91971L5.43392 7.11771L2.71559 7.91971ZM2.40259 6.23538L1.90425 6.15005L2.40259 6.23538ZM1.90425 6.77604L2.37259 6.83305L1.90425 6.77604Z" stroke="white" stroke-width="0.5" stroke-linecap="round" stroke-linejoin="round"/>
<path d="M7.25572 11.672L5.49105 12.54M4.11772 10.6304L5.49105 12.54L5.80405 10.6614L4.53738 8.35571L5.43405 7.11771L7.12772 5.59471L2.45972 2.07971L4.11772 10.6304Z" stroke="white" stroke-width="0.5" stroke-linecap="round" stroke-linejoin="round"/>
<path d="M6.33075 3.6167H8.00975M6.85009 9.8877L5.78809 9.4927L6.54609 9.0977L6.85009 9.8877V9.8877Z" stroke="white" stroke-width="0.5" stroke-linecap="round" stroke-linejoin="round"/>
</svg>
