<svg width="16" height="16" viewBox="0 0 16 16" fill="none" xmlns="http://www.w3.org/2000/svg">
<rect x="8" width="11.3137" height="11.3137" rx="2" transform="rotate(45 8 0)" fill="#F0FF95" stroke="black" stroke-width="0.4"/>
<path fill-rule="evenodd" clip-rule="evenodd" d="M4.88281 7.7445L4.88551 7.74324L7.97925 9.55397V9.55406L7.97933 9.55401L7.97941 9.55406V9.55397L11.0731 7.74324L11.0758 7.7445L11.0745 7.7424L11.0758 7.74166L11.0734 7.74056L7.97941 2.57547V2.5752L7.97933 2.57533L7.97925 2.5752V2.57547L4.88517 7.74056L4.88281 7.74166L4.88407 7.7424L4.88281 7.7445ZM7.97933 10.2212L4.88281 8.36475L7.97925 12.8101V12.8103L7.97933 12.8102L7.97941 12.8103V12.8101L11.0758 8.36475L7.97933 10.2212Z" fill="#131313"/>
</svg>
