<svg width="16" height="14" viewBox="0 0 16 14" fill="none" xmlns="http://www.w3.org/2000/svg">
<path fill-rule="evenodd" clip-rule="evenodd" d="M2.95748 4.76868C3.02226 4.29904 3.42364 3.94922 3.89773 3.94922H11.9674C12.4415 3.94922 12.8429 4.29904 12.9077 4.76868L13.9176 12.0907C13.9963 12.6611 13.5531 13.1696 12.9773 13.1696H2.8878C2.31204 13.1696 1.86888 12.6611 1.94755 12.0907L2.95748 4.76868ZM4.25226 5.30515L3.35453 11.8136H12.5106L11.6129 5.30515H4.25226Z" fill="white"/>
<path fill-rule="evenodd" clip-rule="evenodd" d="M1.35593 2.18601V5.44025H1.61841C1.99284 5.44025 2.29638 5.74378 2.29638 6.11821C2.29638 6.49264 1.99284 6.79618 1.61841 6.79618H1.22034C0.546365 6.79618 0 6.24982 0 5.57584V2.05042C0 1.37644 0.546364 0.830078 1.22034 0.830078H14.7797C15.4536 0.830078 16 1.37644 16 2.05042V5.57584C16 6.24982 15.4536 6.79618 14.7797 6.79618H14.2472C13.8728 6.79618 13.5693 6.49264 13.5693 6.11821C13.5693 5.74378 13.8728 5.44025 14.2472 5.44025H14.6441V2.18601H1.35593Z" fill="white"/>
</svg>
