<svg width="46" height="46" viewBox="0 0 46 46" fill="none" xmlns="http://www.w3.org/2000/svg">
<rect x="3" y="3" width="40" height="40" rx="20" fill="#00ED76"/>
<path d="M19.007 13.385C17.5784 13.7787 16.1595 14.2068 14.7515 14.669C14.6229 14.7106 14.5087 14.7876 14.4217 14.891C14.3347 14.9944 14.2785 15.1202 14.2595 15.254C13.4285 21.4895 15.3485 26.039 17.639 29.036C18.6088 30.3176 19.7651 31.4466 21.0695 32.3855C21.5885 32.7515 22.0475 33.0155 22.409 33.185C22.589 33.2705 22.736 33.3275 22.8485 33.362C22.8977 33.3793 22.9484 33.3918 23 33.3995C23.051 33.3912 23.1011 33.3787 23.15 33.362C23.264 33.3275 23.411 33.2705 23.591 33.185C23.951 33.0155 24.4115 32.75 24.9305 32.3855C26.2349 31.4466 27.3912 30.3176 28.361 29.036C30.6515 26.0405 32.5715 21.4895 31.7405 15.254C31.7217 15.1201 31.6656 14.9943 31.5786 14.8908C31.4915 14.7874 31.3772 14.7105 31.2485 14.669C30.272 14.3495 28.6235 13.829 26.993 13.3865C25.328 12.935 23.7965 12.6005 23 12.6005C22.205 12.6005 20.672 12.935 19.007 13.3865V13.385ZM18.608 11.84C20.2355 11.3975 21.965 11 23 11C24.035 11 25.7645 11.3975 27.392 11.84C29.057 12.29 30.7355 12.8225 31.7225 13.145C32.1352 13.2813 32.501 13.5312 32.778 13.8661C33.055 14.2009 33.232 14.6071 33.2885 15.038C34.1825 21.7535 32.108 26.7305 29.591 30.023C28.5237 31.4315 27.251 32.6718 25.8155 33.7025C25.3191 34.0592 24.7932 34.3728 24.2435 34.64C23.8235 34.838 23.372 35 23 35C22.628 35 22.178 34.838 21.7565 34.64C21.2068 34.3728 20.6809 34.0592 20.1845 33.7025C18.749 32.6717 17.4764 31.4314 16.409 30.023C13.892 26.7305 11.8175 21.7535 12.7115 15.038C12.768 14.6071 12.945 14.2009 13.222 13.8661C13.499 13.5312 13.8648 13.2813 14.2775 13.145C15.7103 12.6752 17.1542 12.2401 18.608 11.84Z" fill="#121212"/>
<path d="M27.281 18.7194C27.3508 18.789 27.4062 18.8718 27.444 18.9629C27.4818 19.054 27.5013 19.1517 27.5013 19.2504C27.5013 19.349 27.4818 19.4467 27.444 19.5378C27.4062 19.6289 27.3508 19.7117 27.281 19.7814L22.781 24.2814C22.7113 24.3512 22.6285 24.4066 22.5374 24.4444C22.4463 24.4822 22.3486 24.5017 22.25 24.5017C22.1513 24.5017 22.0536 24.4822 21.9625 24.4444C21.8714 24.4066 21.7886 24.3512 21.719 24.2814L19.469 22.0314C19.3992 21.9616 19.3439 21.8788 19.3062 21.7877C19.2684 21.6966 19.249 21.599 19.249 21.5004C19.249 21.4017 19.2684 21.3041 19.3062 21.213C19.3439 21.1219 19.3992 21.0391 19.469 20.9694C19.5387 20.8996 19.6215 20.8443 19.7126 20.8066C19.8037 20.7688 19.9014 20.7494 20 20.7494C20.0986 20.7494 20.1962 20.7688 20.2873 20.8066C20.3785 20.8443 20.4612 20.8996 20.531 20.9694L22.25 22.6899L26.219 18.7194C26.2886 18.6495 26.3714 18.5941 26.4625 18.5563C26.5536 18.5185 26.6513 18.499 26.75 18.499C26.8486 18.499 26.9463 18.5185 27.0374 18.5563C27.1285 18.5941 27.2113 18.6495 27.281 18.7194Z" fill="#121212"/>
<rect x="3" y="3" width="40" height="40" rx="20" stroke="#41C681" stroke-width="6"/>
</svg>
