<svg width="60" height="60" viewBox="0 0 60 60" fill="none" xmlns="http://www.w3.org/2000/svg">
    <rect x="2" y="2" width="56" height="56" rx="28" fill="#00ED7B"/>
    <path d="M40.6391 36.3232C40.9415 36.4443 41.2022 36.6508 41.3894 36.9175C41.5575 37.1676 41.6756 37.4697 41.7496 37.8239C41.7896 38.032 41.8377 38.2241 41.8897 38.4042C41.9878 38.7417 42.1354 39.0627 42.3279 39.3567C42.422 39.5028 42.548 39.6628 42.7041 39.8409C42.8382 39.987 42.9582 40.1751 43.0643 40.4032C43.1621 40.6084 43.2146 40.8322 43.2183 41.0595C43.2261 41.278 43.1606 41.4928 43.0323 41.6698C42.9017 41.8417 42.7427 41.9899 42.562 42.1081C42.3219 42.2741 42.0718 42.4202 41.8116 42.5463C41.5515 42.6703 41.2914 42.8004 41.0313 42.9365C40.6423 43.1218 40.2707 43.3415 39.9207 43.5928C39.6085 43.8229 39.2944 44.1131 38.9822 44.4692C38.6183 44.8769 38.197 45.2294 37.7316 45.5158C37.4939 45.6665 37.2358 45.7824 36.9652 45.8599C36.7051 45.932 36.445 45.98 36.1848 46C35.5805 46 35.0803 45.896 34.6841 45.6878C34.2879 45.4797 33.9437 45.0996 33.6516 44.5473C33.5675 44.3892 33.4855 44.2911 33.4014 44.2491C33.2717 44.1941 33.135 44.1571 32.9952 44.1391L31.4124 44.015C30.8922 43.975 30.3619 43.953 29.8197 43.953C29.3693 43.9536 28.9197 43.9897 28.475 44.061C28.0168 44.1351 27.5625 44.2231 27.1143 44.3272C27.0223 44.3472 26.9282 44.4272 26.8342 44.5613C26.7171 44.7239 26.5858 44.876 26.442 45.0155C26.247 45.2011 26.0199 45.3496 25.7716 45.4537C25.4179 45.5919 25.0408 45.6605 24.6611 45.6558C24.3169 45.6558 23.9467 45.6198 23.5505 45.5478C23.1799 45.4833 22.8214 45.3618 22.488 45.1876C21.8865 44.8799 21.2445 44.659 20.581 44.5313C19.9547 44.4172 19.2944 44.3112 18.596 44.2191C18.3646 44.189 18.1348 44.1469 17.9077 44.093C17.6979 44.0456 17.5003 43.955 17.3274 43.8269C17.1688 43.7096 17.0365 43.5603 16.9392 43.3887C16.8325 43.1701 16.7784 42.9296 16.7811 42.6863C16.7811 42.3622 16.8232 42.05 16.9072 41.7479C16.9912 41.4477 17.0373 41.1276 17.0473 40.7954C17.0473 40.5653 17.0313 40.3412 17.0012 40.1231C16.9682 39.8895 16.9468 39.6544 16.9372 39.4187C16.9372 38.8884 17.0633 38.4983 17.3134 38.2461C17.5635 37.996 17.9277 37.7979 18.4079 37.6518C18.6213 37.5873 18.8222 37.4871 19.0022 37.3557C19.1674 37.2311 19.3238 37.0954 19.4705 36.9495C19.6194 36.7999 19.7553 36.6379 19.8767 36.4652C20.0027 36.2871 20.1428 36.1091 20.2989 35.933C20.33 35.8929 20.3469 35.8436 20.3469 35.7929C20.3469 35.6668 20.3409 35.5468 20.3309 35.4327L20.2989 35.0565C20.2989 34.3482 20.4089 33.6358 20.6271 32.9155C20.8472 32.1951 21.1333 31.4947 21.4875 30.8044C21.8411 30.1182 22.2381 29.4552 22.6761 28.8194C23.1123 28.1851 23.5465 27.5948 23.9727 27.0525C24.5517 26.3278 25.011 25.5151 25.3334 24.6453C25.6336 23.8129 25.7916 22.9045 25.8016 21.924C25.8016 21.5098 25.7816 21.0975 25.7396 20.6913C25.6976 20.2758 25.6769 19.8584 25.6776 19.4407C25.6776 18.6063 25.7716 17.8559 25.9577 17.1896C26.1458 16.5213 26.438 15.949 26.8342 15.4687C27.2304 14.9885 27.7466 14.6303 28.3809 14.3902C29.0193 14.1501 29.7796 14.02 30.6641 14C31.7186 14 32.557 14.2081 33.1833 14.6263C33.8076 15.0425 34.2879 15.5888 34.6201 16.2671C34.9542 16.9435 35.1683 17.6999 35.2604 18.5343C35.3564 19.3667 35.4084 20.2111 35.4185 21.0655V21.3317C35.4185 21.7599 35.4225 22.1401 35.4345 22.4722C35.4531 23.1476 35.6069 23.8123 35.8867 24.4272C36.0328 24.7494 36.2509 25.0996 36.543 25.4737C37.0433 26.1321 37.5555 26.7944 38.0758 27.4607C38.596 28.1271 39.0703 28.8154 39.4965 29.5218C39.9247 30.2321 40.2749 30.9725 40.545 31.7429C40.8172 32.5153 40.9572 33.3477 40.9672 34.2441C40.9699 34.9509 40.8591 35.6535 40.6391 36.3252V36.3232ZM27.5245 20.035C27.6686 20.035 27.7886 20.071 27.8847 20.1431C27.9823 20.2216 28.0575 20.3244 28.1028 20.4412C28.153 20.5614 28.1893 20.687 28.2108 20.8154C28.2309 20.9415 28.2429 21.0715 28.2429 21.2076C28.2461 21.2935 28.2297 21.3791 28.1948 21.4577C28.1606 21.5242 28.1129 21.5828 28.0548 21.6298L27.8667 21.7859C27.7996 21.8427 27.7374 21.9049 27.6806 21.972C27.6055 22.0888 27.5032 22.1856 27.3824 22.2541C27.2585 22.3261 27.1383 22.4042 27.0223 22.4882C26.9114 22.5687 26.807 22.6576 26.7101 22.7544C26.6616 22.8066 26.6243 22.8681 26.6002 22.9352C26.5761 23.0022 26.5659 23.0734 26.57 23.1446C26.57 23.2386 26.6161 23.3167 26.7101 23.3787C26.9434 23.5256 27.1285 23.7378 27.2424 23.989C27.3464 24.2291 27.4625 24.4632 27.5865 24.6933C27.7106 24.9215 27.8727 25.1136 28.0708 25.2716C28.2689 25.4277 28.577 25.5058 28.9912 25.5058H29.0873C29.5035 25.4857 29.8997 25.3757 30.2759 25.1776C30.6501 24.9795 31.0263 24.7714 31.4004 24.5513C31.4656 24.5146 31.5339 24.4838 31.6045 24.4592C31.6772 24.4333 31.7454 24.3962 31.8066 24.3492L32.9472 23.4587C32.9671 23.3917 32.9831 23.3235 32.9952 23.2546C33.0074 23.1815 33.0181 23.1081 33.0273 23.0345C33.0308 22.935 33.0028 22.837 32.9472 22.7544C32.896 22.6818 32.8332 22.6182 32.7611 22.5663C32.6811 22.5117 32.5904 22.4749 32.495 22.4582C32.3996 22.4391 32.3059 22.4123 32.2149 22.3782C31.9654 22.3269 31.727 22.2321 31.5105 22.098C31.2956 21.9646 31.0642 21.8596 30.8222 21.7859C30.7821 21.7739 30.7501 21.7439 30.7281 21.6918C30.7043 21.6302 30.6836 21.5675 30.6661 21.5038C30.6455 21.4378 30.64 21.368 30.6501 21.2997C30.6615 21.2472 30.6559 21.1926 30.6341 21.1436C30.6341 21.0195 30.6441 20.8894 30.6661 20.7534C30.6877 20.6156 30.7352 20.4832 30.8061 20.3632C30.8671 20.252 30.9527 20.1562 31.0563 20.083C31.1796 20.011 31.3196 19.9724 31.4625 19.971C31.7866 19.971 32.0208 20.091 32.1668 20.3312C32.3129 20.5713 32.3909 20.8314 32.4009 21.1116C32.4035 21.2361 32.3768 21.3595 32.3229 21.4717C32.2695 21.5786 32.2421 21.6965 32.2429 21.8159C32.2429 21.9 32.2709 21.956 32.3229 21.988C32.3859 22.0225 32.4554 22.0437 32.527 22.05C32.7671 22.05 32.9212 21.994 32.9952 21.8799C33.0795 21.7211 33.1221 21.5435 33.1193 21.3637C33.1193 21.1236 33.0993 20.8574 33.0593 20.5653C33.0197 20.2826 32.9345 20.0083 32.8071 19.7529C32.6905 19.513 32.5257 19.2998 32.3229 19.1266C32.1058 18.954 31.8336 18.8659 31.5565 18.8784C31.0163 18.8784 30.6241 19.0125 30.3839 19.2846C30.1438 19.5548 30.0198 19.961 30.0097 20.5033C30.0097 20.6593 30.0198 20.8154 30.0398 20.9715C30.0598 21.1296 30.0718 21.2856 30.0718 21.4417C30.0718 21.4937 30.0658 21.5198 30.0558 21.5198C30.0233 21.5127 29.9918 21.502 29.9617 21.4877C29.8994 21.4625 29.8374 21.4365 29.7756 21.4097C29.6991 21.3774 29.6202 21.3513 29.5395 21.3317C29.4065 21.2994 29.2684 21.2939 29.1333 21.3157C29.0503 21.3262 28.9668 21.3315 28.8832 21.3317C28.7371 21.3317 28.6631 21.3057 28.6631 21.2536C28.6631 21.0975 28.6551 20.8995 28.6331 20.6593C28.613 20.4192 28.561 20.1791 28.477 19.939C28.4071 19.7253 28.3016 19.5251 28.1648 19.3467C28.0388 19.1906 27.8527 19.1066 27.6025 19.0965C27.4345 19.0927 27.2716 19.1544 27.1483 19.2686C27.0199 19.3875 26.9093 19.5243 26.8202 19.6748C26.7243 19.8374 26.6655 20.0192 26.6481 20.2071C26.6313 20.3743 26.6106 20.5411 26.586 20.7074C26.5941 20.9834 26.6412 21.2569 26.7261 21.5198C26.7781 21.6858 26.8362 21.8319 26.8982 21.958C26.9602 22.082 27.0343 22.1441 27.1183 22.1441C27.1683 22.1441 27.2384 22.1081 27.3204 22.036C27.4044 21.962 27.4465 21.8959 27.4465 21.8319C27.4465 21.7999 27.4305 21.7799 27.3984 21.7699C27.3682 21.7595 27.3364 21.7541 27.3044 21.7539C27.2324 21.7539 27.1683 21.7179 27.1163 21.6438C27.0627 21.5671 27.0209 21.4828 26.9922 21.3937C26.9594 21.2955 26.928 21.1967 26.8982 21.0975C26.8359 20.8276 26.875 20.5441 27.0082 20.3012C27.1023 20.1331 27.2744 20.045 27.5245 20.035V20.035ZM24.1148 44.3752C24.3649 44.3752 24.611 44.3552 24.8512 44.3112C25.0889 44.2703 25.3169 44.1855 25.5235 44.061C25.7216 43.9464 25.8838 43.7787 25.9917 43.5768C26.1056 43.3423 26.1696 43.0868 26.1798 42.8264C26.1798 42.6403 26.148 42.4555 26.0858 42.2801C26.0222 42.1012 25.9325 41.9326 25.8197 41.7799C25.6962 41.5841 25.5605 41.3964 25.4134 41.2176C25.2663 41.0382 25.1307 40.8498 25.0072 40.6533C24.8126 40.3673 24.6192 40.0805 24.427 39.7929C24.2409 39.5128 24.0528 39.2166 23.8667 38.9025C23.7021 38.6362 23.5453 38.3653 23.3964 38.09C23.2434 37.809 23.0653 37.5425 22.8642 37.2936C22.7372 37.1351 22.5906 36.9932 22.428 36.8714C22.2609 36.7459 22.0566 36.6797 21.8477 36.6833C21.6297 36.6801 21.4184 36.7587 21.2554 36.9035C21.0691 37.0658 20.8964 37.2432 20.7391 37.4337C20.5546 37.65 20.3561 37.8538 20.1448 38.044C19.9247 38.2421 19.6446 38.3982 19.3004 38.5123C19.0675 38.5747 18.8532 38.6928 18.6761 38.8564C18.53 39.0025 18.456 39.2266 18.456 39.5288C18.456 39.7369 18.472 39.945 18.504 40.1531C18.534 40.3612 18.556 40.5713 18.566 40.7794C18.566 41.0595 18.526 41.3257 18.44 41.5758C18.3592 41.8123 18.3174 42.0603 18.3159 42.3102C18.3159 42.5923 18.416 42.7904 18.612 42.9045C18.8121 43.0205 19.0343 43.0986 19.2844 43.1386C19.5985 43.1926 19.8947 43.2326 20.1768 43.2646C20.457 43.2967 20.7331 43.3447 21.0052 43.4047C21.2754 43.4687 21.5455 43.5348 21.8177 43.6088C22.0878 43.6808 22.3759 43.7969 22.6781 43.953C22.7381 43.983 22.8342 44.021 22.9582 44.061L23.3804 44.2011C23.5365 44.2551 23.6826 44.2972 23.8187 44.3272C23.9155 44.3531 24.0147 44.3692 24.1148 44.3752V44.3752ZM29.8377 42.4983C30.1298 42.4983 30.442 42.4682 30.7761 42.4042C31.4565 42.2767 32.1145 42.0502 32.7291 41.7319C33.0153 41.586 33.2872 41.4138 33.5415 41.2176C33.5668 41.1891 33.5883 41.1575 33.6055 41.1236C33.6255 41.0834 33.6409 41.0411 33.6516 40.9975V40.9815C33.7136 40.7534 33.7656 40.5013 33.8076 40.2311C33.851 39.9559 33.8877 39.6797 33.9177 39.4027C33.948 39.1257 33.9847 38.8495 34.0278 38.5743C34.0678 38.3042 34.1058 38.038 34.1358 37.7779C34.1778 37.4978 34.2299 37.2256 34.2919 36.9655C34.3559 36.7054 34.438 36.4592 34.542 36.2291C34.6449 36.0025 34.7879 35.7964 34.9642 35.6208C35.1694 35.423 35.4011 35.2547 35.6526 35.1206V35.0885L35.6366 35.0425C35.64 34.9364 35.6726 34.8333 35.7306 34.7444C35.8007 34.6295 35.8789 34.5198 35.9647 34.4162C36.048 34.311 36.1489 34.2209 36.2629 34.1501C36.367 34.0876 36.4769 34.0354 36.591 33.994C36.528 33.7426 36.4599 33.4924 36.3869 33.2436C36.3145 32.996 36.2517 32.7457 36.1988 32.4932C36.1476 32.1737 36.0856 31.8561 36.0127 31.5408C35.9548 31.2962 35.8812 31.0556 35.7926 30.8204C35.7031 30.5912 35.5818 30.3757 35.4325 30.1801C35.2784 29.972 35.0843 29.7199 34.8562 29.4297C34.769 29.3323 34.6901 29.2279 34.6201 29.1176C34.5657 28.9935 34.5345 28.8606 34.528 28.7254C34.5031 28.5886 34.4717 28.453 34.434 28.3192C34.2934 27.8124 34.1319 27.3117 33.9497 26.8184C33.8536 26.555 33.7386 26.2989 33.6055 26.052C33.4993 25.8544 33.3844 25.6614 33.2614 25.4737C33.1573 25.3177 33.0473 25.2396 32.9332 25.2396C32.6831 25.2396 32.3849 25.3397 32.0408 25.5378C31.6986 25.7359 31.3324 25.954 30.9482 26.1941C30.562 26.4342 30.1878 26.6583 29.8217 26.8664C29.4575 27.0745 29.1293 27.1726 28.8372 27.1626C28.5254 27.1624 28.2226 27.0582 27.9767 26.8664C27.7117 26.6645 27.4701 26.4336 27.2564 26.1781C27.0383 25.918 26.8562 25.6938 26.7101 25.5058C26.564 25.3177 26.456 25.2136 26.3819 25.1936C26.2999 25.1936 26.2519 25.2556 26.2419 25.3797C26.2307 25.5201 26.2254 25.661 26.2259 25.8019V26.068C26.2259 26.1321 26.2159 26.1721 26.1938 26.1941C26.0798 26.4342 25.9537 26.6683 25.8197 26.8964C25.6836 27.1266 25.5495 27.3607 25.4134 27.6008C25.1439 28.0622 24.9933 28.5835 24.9752 29.1176C24.9752 29.2736 24.9852 29.4297 25.0072 29.5858C25.0273 29.7419 25.0793 29.8939 25.1633 30.04L25.1313 30.1001C25.051 30.2116 24.962 30.3166 24.8652 30.4142C24.7666 30.5147 24.6781 30.6246 24.601 30.7424C24.2183 31.3078 23.9423 31.9385 23.7866 32.6033C23.6306 33.2696 23.5465 33.948 23.5365 34.6343C23.5365 34.8124 23.5485 34.9905 23.5685 35.1666C23.5885 35.3447 23.6005 35.5208 23.6005 35.6989C23.5999 35.7566 23.5946 35.8141 23.5845 35.8709C23.5745 35.9278 23.5691 35.9853 23.5685 36.043C23.791 36.0681 24.0049 36.1426 24.1948 36.2611C24.435 36.3972 24.6951 36.5693 24.9752 36.7774C25.2554 36.9855 25.5235 37.2256 25.7736 37.4978C26.0238 37.7679 26.2619 38.032 26.492 38.2941C26.7221 38.5543 26.8882 38.8144 26.9922 39.0745C27.0963 39.3347 27.1643 39.5488 27.1943 39.7149C27.1997 39.8358 27.1803 39.9567 27.1373 40.0699C27.0943 40.1831 27.0286 40.2863 26.9442 40.3732C26.7648 40.5482 26.5526 40.6863 26.3199 40.7794C26.498 41.0915 26.7161 41.3577 26.9762 41.5758C27.2364 41.7959 27.5185 41.972 27.8207 42.1081C28.1228 42.2441 28.451 42.3422 28.8051 42.4042C29.1593 42.4682 29.5055 42.4983 29.8377 42.4983V42.4983ZM36.1068 44.7194C36.3249 44.7194 36.539 44.6873 36.7471 44.6253C37.0625 44.5349 37.3626 44.398 37.6376 44.2191C37.9097 44.041 38.1578 43.8229 38.3879 43.5608C38.9315 42.9336 39.5966 42.4231 40.3429 42.06L40.8592 41.8259C41.0363 41.7487 41.2081 41.6598 41.3734 41.5598C41.4928 41.4841 41.6036 41.3955 41.7036 41.2956C41.7539 41.2469 41.7938 41.1884 41.8206 41.1237C41.8475 41.059 41.8608 40.9895 41.8597 40.9195C41.8598 40.839 41.8435 40.7593 41.8116 40.6853C41.7743 40.6021 41.7273 40.5235 41.6716 40.4512C41.529 40.2527 41.3935 40.0491 41.2654 39.8409C41.1495 39.6515 41.0498 39.4527 40.9672 39.2466L40.7171 38.6223C40.6269 38.3931 40.5533 38.1577 40.497 37.918C40.4753 37.8439 40.4385 37.7751 40.3889 37.7159C40.2884 37.5655 40.151 37.4433 39.9899 37.361C39.8288 37.2787 39.6493 37.239 39.4685 37.2456C39.2819 37.2449 39.0983 37.2932 38.9362 37.3857L38.4039 37.6838C38.2187 37.7866 38.0312 37.8853 37.8417 37.98C37.6573 38.0727 37.4537 38.1207 37.2474 38.1201C37.0629 38.1281 36.881 38.0739 36.7311 37.966C36.5873 37.8517 36.4698 37.7077 36.3869 37.5438C36.298 37.3769 36.2198 37.2044 36.1528 37.0275L35.9647 36.5113C35.8832 36.6451 35.7895 36.771 35.6846 36.8874C35.5775 37.0067 35.4927 37.1443 35.4345 37.2936C35.2984 37.6058 35.2143 37.954 35.1843 38.3402C35.1323 38.9445 35.0643 39.5328 34.9802 40.1071C34.8946 40.6926 34.7539 41.2688 34.56 41.8279C34.5047 42.0067 34.4626 42.1893 34.434 42.3742C34.4029 42.5658 34.3815 42.7588 34.3699 42.9525C34.3699 43.4627 34.528 43.8849 34.8402 44.2191C35.1523 44.5513 35.5745 44.7194 36.1068 44.7194V44.7194Z" fill="black"/>
    <rect x="2" y="2" width="56" height="56" rx="28" stroke="#547163" stroke-width="4"/>
</svg>
