<svg width="16" height="16" viewBox="0 0 16 16" fill="none" xmlns="http://www.w3.org/2000/svg">
<path d="M6.19371 11.5267C6.25538 11.5885 6.32864 11.6376 6.40929 11.671C6.48994 11.7045 6.5764 11.7217 6.66371 11.7217C6.75102 11.7217 6.83748 11.7045 6.91813 11.671C6.99877 11.6376 7.07203 11.5885 7.13371 11.5267L10.1937 8.46672C10.2555 8.40504 10.3045 8.33178 10.338 8.25113C10.3715 8.17048 10.3887 8.08403 10.3887 7.99672C10.3887 7.9094 10.3715 7.82295 10.338 7.7423C10.3045 7.66165 10.2555 7.58839 10.1937 7.52672L7.13371 4.46672C7.07199 4.405 6.99871 4.35603 6.91807 4.32263C6.83743 4.28923 6.751 4.27204 6.66371 4.27204C6.57642 4.27204 6.48999 4.28923 6.40935 4.32263C6.3287 4.35603 6.25543 4.405 6.19371 4.46672C6.13199 4.52844 6.08303 4.60171 6.04963 4.68235C6.01622 4.763 5.99903 4.84943 5.99903 4.93672C5.99903 5.024 6.01622 5.11044 6.04963 5.19108C6.08303 5.27172 6.13199 5.34499 6.19371 5.40672L8.78038 8.00005L6.19371 10.5867C5.93371 10.8467 5.94038 11.2734 6.19371 11.5267Z" fill="white"/>
</svg>
