<svg width="16" height="16" viewBox="0 0 16 16" fill="none" xmlns="http://www.w3.org/2000/svg">
<path d="M10.4286 2.85714C10.4286 2.62981 10.5189 2.4118 10.6796 2.25105C10.8404 2.09031 11.0584 2 11.2857 2H13C13.2273 2 13.4453 2.09031 13.6061 2.25105C13.7668 2.4118 13.8571 2.62981 13.8571 2.85714V13.1429H14.2857C14.3994 13.1429 14.5084 13.188 14.5888 13.2684C14.6691 13.3488 14.7143 13.4578 14.7143 13.5714C14.7143 13.6851 14.6691 13.7941 14.5888 13.8745C14.5084 13.9548 14.3994 14 14.2857 14H1.42857C1.31491 14 1.2059 13.9548 1.12553 13.8745C1.04515 13.7941 1 13.6851 1 13.5714C1 13.4578 1.04515 13.3488 1.12553 13.2684C1.2059 13.188 1.31491 13.1429 1.42857 13.1429H1.85714V10.5714C1.85714 10.3441 1.94745 10.1261 2.10819 9.96534C2.26894 9.80459 2.48696 9.71429 2.71429 9.71429H4.42857C4.6559 9.71429 4.87392 9.80459 5.03466 9.96534C5.19541 10.1261 5.28571 10.3441 5.28571 10.5714V13.1429H6.14286V7.14286C6.14286 6.91553 6.23316 6.69751 6.39391 6.53677C6.55465 6.37602 6.77267 6.28571 7 6.28571H8.71429C8.94161 6.28571 9.15963 6.37602 9.32038 6.53677C9.48112 6.69751 9.57143 6.91553 9.57143 7.14286V13.1429H10.4286V2.85714Z" fill="white"/>
</svg>
