<svg width="60" height="60" viewBox="0 0 60 60" fill="none" xmlns="http://www.w3.org/2000/svg">
<rect x="2" y="2" width="56" height="56" rx="28" fill="#121212"/>
<path d="M40.6393 36.3232C40.9417 36.4443 41.2024 36.6508 41.3897 36.9175C41.5577 37.1676 41.6758 37.4697 41.7498 37.8239C41.7899 38.032 41.8379 38.2241 41.8899 38.4042C41.988 38.7417 42.1357 39.0627 42.3281 39.3567C42.4222 39.5028 42.5482 39.6628 42.7043 39.8409C42.8384 39.987 42.9584 40.1751 43.0645 40.4032C43.1623 40.6084 43.2148 40.8322 43.2186 41.0595C43.2263 41.278 43.1608 41.4928 43.0325 41.6698C42.9019 41.8417 42.7429 41.9899 42.5622 42.1081C42.3221 42.2741 42.072 42.4202 41.8119 42.5463C41.5517 42.6703 41.2916 42.8004 41.0315 42.9365C40.6425 43.1218 40.2709 43.3415 39.9209 43.5928C39.6088 43.8229 39.2946 44.1131 38.9824 44.4692C38.6185 44.8769 38.1973 45.2294 37.7318 45.5158C37.4941 45.6665 37.236 45.7824 36.9654 45.8599C36.7053 45.932 36.4452 45.98 36.1851 46C35.5807 46 35.0805 45.896 34.6843 45.6878C34.2881 45.4797 33.9439 45.0996 33.6518 44.5473C33.5677 44.3892 33.4857 44.2911 33.4017 44.2491C33.2719 44.1941 33.1352 44.1571 32.9955 44.1391L31.4127 44.015C30.8924 43.975 30.3621 43.953 29.8199 43.953C29.3695 43.9536 28.9199 43.9897 28.4752 44.061C28.017 44.1351 27.5627 44.2231 27.1145 44.3272C27.0225 44.3472 26.9284 44.4272 26.8344 44.5613C26.7173 44.7239 26.586 44.8759 26.4422 45.0155C26.2472 45.2011 26.0201 45.3496 25.7718 45.4537C25.4181 45.5919 25.041 45.6605 24.6613 45.6558C24.3171 45.6558 23.9469 45.6198 23.5507 45.5478C23.1801 45.4833 22.8217 45.3618 22.4882 45.1876C21.8867 44.8799 21.2447 44.659 20.5812 44.5313C19.9549 44.4172 19.2946 44.3112 18.5963 44.2191C18.3648 44.189 18.135 44.1469 17.9079 44.093C17.6981 44.0456 17.5005 43.955 17.3276 43.8269C17.169 43.7096 17.0368 43.5603 16.9394 43.3887C16.8327 43.1701 16.7786 42.9296 16.7814 42.6863C16.7814 42.3622 16.8234 42.05 16.9074 41.7479C16.9915 41.4477 17.0375 41.1276 17.0475 40.7954C17.0475 40.5653 17.0315 40.3412 17.0015 40.1231C16.9684 39.8895 16.947 39.6544 16.9374 39.4187C16.9374 38.8884 17.0635 38.4983 17.3136 38.2461C17.5637 37.996 17.9279 37.7979 18.4082 37.6518C18.6215 37.5872 18.8224 37.4871 19.0025 37.3557C19.1676 37.2311 19.324 37.0954 19.4707 36.9495C19.6196 36.7999 19.7555 36.6379 19.8769 36.4652C20.003 36.2871 20.143 36.1091 20.2991 35.933C20.3302 35.8929 20.3471 35.8436 20.3471 35.7929C20.3471 35.6668 20.3411 35.5468 20.3311 35.4327L20.2991 35.0565C20.2991 34.3482 20.4092 33.6358 20.6273 32.9155C20.8474 32.1951 21.1335 31.4947 21.4877 30.8044C21.8413 30.1182 22.2383 29.4552 22.6763 28.8194C23.1125 28.1851 23.5467 27.5948 23.9729 27.0525C24.5519 26.3278 25.0112 25.5151 25.3336 24.6453C25.6338 23.8129 25.7919 22.9045 25.8019 21.924C25.8019 21.5098 25.7819 21.0975 25.7398 20.6913C25.6978 20.2758 25.6771 19.8584 25.6778 19.4407C25.6778 18.6063 25.7718 17.8559 25.9579 17.1896C26.146 16.5213 26.4382 15.949 26.8344 15.4687C27.2306 14.9885 27.7468 14.6303 28.3812 14.3902C29.0195 14.1501 29.7798 14.02 30.6643 14C31.7188 14 32.5572 14.2081 33.1835 14.6263C33.8079 15.0425 34.2881 15.5888 34.6203 16.2671C34.9544 16.9435 35.1685 17.6999 35.2606 18.5343C35.3566 19.3667 35.4087 20.2111 35.4187 21.0655V21.3317C35.4187 21.7599 35.4227 22.1401 35.4347 22.4722C35.4533 23.1476 35.6071 23.8123 35.8869 24.4272C36.033 24.7494 36.2511 25.0996 36.5432 25.4737C37.0435 26.1321 37.5557 26.7944 38.076 27.4607C38.5963 28.1271 39.0705 28.8154 39.4967 29.5218C39.9249 30.2321 40.2751 30.9725 40.5452 31.7429C40.8174 32.5153 40.9574 33.3477 40.9674 34.2441C40.9701 34.9509 40.8593 35.6535 40.6393 36.3252V36.3232ZM27.5247 20.035C27.6688 20.035 27.7889 20.071 27.8849 20.1431C27.9825 20.2216 28.0577 20.3244 28.103 20.4412C28.1532 20.5614 28.1895 20.687 28.2111 20.8154C28.2311 20.9415 28.2431 21.0715 28.2431 21.2076C28.2463 21.2935 28.2299 21.3791 28.1951 21.4577C28.1608 21.5242 28.1131 21.5828 28.055 21.6298L27.8669 21.7859C27.7998 21.8427 27.7376 21.9049 27.6808 21.972C27.6058 22.0888 27.5034 22.1856 27.3827 22.2541C27.2587 22.3261 27.1385 22.4042 27.0225 22.4882C26.9116 22.5687 26.8073 22.6576 26.7103 22.7544C26.6619 22.8066 26.6245 22.8681 26.6004 22.9352C26.5763 23.0022 26.5661 23.0735 26.5702 23.1446C26.5702 23.2386 26.6163 23.3167 26.7103 23.3787C26.9436 23.5256 27.1287 23.7379 27.2426 23.989C27.3466 24.2291 27.4627 24.4632 27.5868 24.6933C27.7108 24.9215 27.8729 25.1136 28.071 25.2716C28.2691 25.4277 28.5772 25.5058 28.9915 25.5058H29.0875C29.5037 25.4857 29.8999 25.3757 30.2761 25.1776C30.6503 24.9795 31.0265 24.7714 31.4007 24.5513C31.4658 24.5146 31.5341 24.4838 31.6048 24.4592C31.6775 24.4333 31.7456 24.3962 31.8069 24.3492L32.9474 23.4587C32.9673 23.3917 32.9833 23.3235 32.9955 23.2546C33.0076 23.1815 33.0183 23.1081 33.0275 23.0345C33.031 22.935 33.003 22.837 32.9474 22.7544C32.8963 22.6818 32.8334 22.6182 32.7613 22.5663C32.6813 22.5117 32.5906 22.4749 32.4952 22.4582C32.3998 22.4391 32.3062 22.4123 32.2151 22.3782C31.9656 22.3269 31.7272 22.2321 31.5107 22.098C31.2958 21.9646 31.0644 21.8596 30.8224 21.7859C30.7824 21.7739 30.7503 21.7439 30.7283 21.6918C30.7045 21.6302 30.6838 21.5675 30.6663 21.5038C30.6457 21.4378 30.6402 21.368 30.6503 21.2997C30.6617 21.2472 30.6561 21.1926 30.6343 21.1436C30.6343 21.0195 30.6443 20.8894 30.6663 20.7534C30.6879 20.6156 30.7354 20.4832 30.8064 20.3632C30.8674 20.252 30.9529 20.1562 31.0565 20.083C31.1799 20.011 31.3199 19.9724 31.4627 19.971C31.7869 19.971 32.021 20.091 32.167 20.3312C32.3131 20.5713 32.3912 20.8314 32.4012 21.1116C32.4037 21.2361 32.377 21.3595 32.3231 21.4717C32.2697 21.5786 32.2423 21.6965 32.2431 21.8159C32.2431 21.9 32.2711 21.956 32.3231 21.988C32.3861 22.0225 32.4556 22.0437 32.5272 22.05C32.7673 22.05 32.9214 21.994 32.9955 21.8799C33.0797 21.7211 33.1223 21.5435 33.1195 21.3637C33.1195 21.1236 33.0995 20.8574 33.0595 20.5653C33.0199 20.2826 32.9347 20.0083 32.8074 19.7529C32.6907 19.513 32.5259 19.2998 32.3231 19.1266C32.106 18.954 31.8338 18.8659 31.5567 18.8784C31.0165 18.8784 30.6243 19.0125 30.3842 19.2846C30.144 19.5548 30.02 19.961 30.01 20.5033C30.01 20.6593 30.02 20.8154 30.04 20.9715C30.06 21.1296 30.072 21.2856 30.072 21.4417C30.072 21.4937 30.066 21.5198 30.056 21.5198C30.0235 21.5127 29.992 21.502 29.9619 21.4877C29.8996 21.4625 29.8376 21.4365 29.7758 21.4097C29.6994 21.3774 29.6204 21.3513 29.5397 21.3317C29.4067 21.2994 29.2686 21.2939 29.1335 21.3157C29.0506 21.3262 28.967 21.3315 28.8834 21.3317C28.7373 21.3317 28.6633 21.3057 28.6633 21.2536C28.6633 21.0975 28.6553 20.8995 28.6333 20.6593C28.6133 20.4192 28.5612 20.1791 28.4772 19.939C28.4073 19.7253 28.3018 19.5251 28.165 19.3467C28.039 19.1906 27.8529 19.1066 27.6028 19.0965C27.4347 19.0927 27.2718 19.1544 27.1485 19.2686C27.0201 19.3875 26.9096 19.5243 26.8204 19.6748C26.7245 19.8374 26.6657 20.0192 26.6483 20.2071C26.6315 20.3743 26.6108 20.5411 26.5863 20.7074C26.5943 20.9834 26.6414 21.2569 26.7263 21.5198C26.7783 21.6858 26.8364 21.8319 26.8984 21.958C26.9604 22.082 27.0345 22.1441 27.1185 22.1441C27.1685 22.1441 27.2386 22.1081 27.3206 22.036C27.4047 21.962 27.4467 21.8959 27.4467 21.8319C27.4467 21.7999 27.4307 21.7799 27.3987 21.7699C27.3684 21.7595 27.3366 21.7541 27.3046 21.7539C27.2326 21.7539 27.1685 21.7179 27.1165 21.6438C27.0629 21.5671 27.0211 21.4828 26.9925 21.3937C26.9596 21.2955 26.9283 21.1967 26.8984 21.0975C26.8361 20.8276 26.8753 20.5441 27.0085 20.3012C27.1025 20.1331 27.2746 20.045 27.5247 20.035ZM24.115 44.3752C24.3651 44.3752 24.6113 44.3552 24.8514 44.3112C25.0891 44.2703 25.3171 44.1855 25.5237 44.061C25.7219 43.9464 25.884 43.7787 25.992 43.5768C26.1058 43.3423 26.1698 43.0868 26.18 42.8264C26.1801 42.6403 26.1483 42.4555 26.086 42.2801C26.0224 42.1012 25.9327 41.9326 25.8199 41.7799C25.6964 41.5841 25.5607 41.3964 25.4137 41.2176C25.2666 41.0382 25.1309 40.8498 25.0075 40.6533C24.8129 40.3673 24.6194 40.0805 24.4272 39.7929C24.2411 39.5128 24.053 39.2166 23.8669 38.9025C23.7024 38.6362 23.5455 38.3653 23.3967 38.09C23.2437 37.809 23.0655 37.5425 22.8644 37.2936C22.7374 37.1351 22.5908 36.9932 22.4282 36.8714C22.2611 36.7459 22.0569 36.6797 21.8479 36.6833C21.6299 36.6801 21.4186 36.7587 21.2556 36.9035C21.0693 37.0658 20.8966 37.2432 20.7393 37.4337C20.5548 37.65 20.3563 37.8538 20.145 38.044C19.9249 38.2421 19.6448 38.3982 19.3006 38.5123C19.0677 38.5747 18.8535 38.6928 18.6763 38.8564C18.5302 39.0025 18.4562 39.2266 18.4562 39.5288C18.4562 39.7369 18.4722 39.945 18.5042 40.1531C18.5342 40.3612 18.5562 40.5713 18.5662 40.7794C18.5662 41.0595 18.5262 41.3257 18.4402 41.5758C18.3595 41.8123 18.3176 42.0603 18.3161 42.3102C18.3161 42.5923 18.4162 42.7904 18.6123 42.9045C18.8124 43.0205 19.0345 43.0986 19.2846 43.1386C19.5988 43.1926 19.8949 43.2326 20.177 43.2646C20.4572 43.2966 20.7333 43.3447 21.0055 43.4047C21.2756 43.4687 21.5457 43.5348 21.8179 43.6088C22.088 43.6808 22.3761 43.7969 22.6783 43.953C22.7383 43.983 22.8344 44.021 22.9584 44.061L23.3806 44.2011C23.5367 44.2551 23.6828 44.2972 23.8189 44.3272C23.9157 44.3531 24.0149 44.3692 24.115 44.3752ZM29.8379 42.4983C30.13 42.4983 30.4422 42.4682 30.7763 42.4042C31.4567 42.2767 32.1147 42.0502 32.7293 41.7319C33.0155 41.586 33.2874 41.4138 33.5417 41.2176C33.567 41.1891 33.5885 41.1575 33.6058 41.1236C33.6257 41.0834 33.6411 41.0411 33.6518 40.9975V40.9815C33.7138 40.7534 33.7658 40.5013 33.8079 40.2311C33.8512 39.9559 33.8879 39.6797 33.9179 39.4027C33.9482 39.1257 33.9849 38.8495 34.028 38.5743C34.068 38.3042 34.106 38.038 34.136 37.7779C34.178 37.4978 34.2301 37.2256 34.2921 36.9655C34.3561 36.7054 34.4382 36.4592 34.5422 36.2291C34.6451 36.0025 34.7881 35.7964 34.9644 35.6208C35.1697 35.423 35.4013 35.2547 35.6528 35.1206V35.0885L35.6368 35.0425C35.6403 34.9364 35.6728 34.8333 35.7308 34.7444C35.8009 34.6295 35.8791 34.5198 35.9649 34.4162C36.0482 34.311 36.1491 34.2209 36.2631 34.1501C36.3672 34.0876 36.4771 34.0354 36.5913 33.994C36.5282 33.7426 36.4601 33.4924 36.3872 33.2436C36.3147 32.996 36.2519 32.7457 36.1991 32.4932C36.1479 32.1737 36.0858 31.8561 36.013 31.5408C35.955 31.2962 35.8815 31.0556 35.7929 30.8204C35.7033 30.5912 35.582 30.3757 35.4327 30.1801C35.2786 29.972 35.0845 29.7199 34.8564 29.4297C34.7692 29.3323 34.6903 29.2279 34.6203 29.1176C34.5659 28.9935 34.5347 28.8606 34.5282 28.7254C34.5033 28.5886 34.4719 28.453 34.4342 28.3192C34.2936 27.8124 34.1321 27.3117 33.9499 26.8184C33.8538 26.555 33.7388 26.2989 33.6058 26.052C33.4995 25.8544 33.3846 25.6614 33.2616 25.4737C33.1575 25.3177 33.0475 25.2396 32.9334 25.2396C32.6833 25.2396 32.3852 25.3397 32.041 25.5378C31.6988 25.7359 31.3326 25.954 30.9484 26.1941C30.5622 26.4342 30.1881 26.6583 29.8219 26.8664C29.4577 27.0745 29.1295 27.1726 28.8374 27.1626C28.5256 27.1624 28.2228 27.0582 27.9769 26.8664C27.7119 26.6645 27.4703 26.4336 27.2566 26.1781C27.0385 25.918 26.8564 25.6938 26.7103 25.5058C26.5642 25.3177 26.4562 25.2136 26.3822 25.1936C26.3001 25.1936 26.2521 25.2556 26.2421 25.3797C26.2309 25.5201 26.2256 25.661 26.2261 25.8019V26.068C26.2261 26.1321 26.2161 26.1721 26.1941 26.1941C26.08 26.4342 25.9539 26.6683 25.8199 26.8964C25.6838 27.1266 25.5497 27.3607 25.4137 27.6008C25.1441 28.0622 24.9935 28.5835 24.9754 29.1176C24.9754 29.2736 24.9855 29.4297 25.0075 29.5858C25.0275 29.7419 25.0795 29.8939 25.1635 30.04L25.1315 30.1C25.0512 30.2116 24.9622 30.3166 24.8654 30.4142C24.7668 30.5147 24.6783 30.6246 24.6013 30.7424C24.2185 31.3078 23.9425 31.9385 23.7869 32.6033C23.6308 33.2696 23.5467 33.948 23.5367 34.6343C23.5367 34.8124 23.5487 34.9905 23.5687 35.1666C23.5888 35.3447 23.6008 35.5208 23.6008 35.6989C23.6001 35.7566 23.5948 35.8141 23.5848 35.8709C23.5747 35.9278 23.5693 35.9853 23.5687 36.043C23.7912 36.0681 24.0052 36.1426 24.1951 36.2611C24.4352 36.3972 24.6953 36.5693 24.9754 36.7774C25.2556 36.9855 25.5237 37.2256 25.7738 37.4978C26.024 37.7679 26.2621 38.032 26.4922 38.2941C26.7223 38.5543 26.8884 38.8144 26.9925 39.0745C27.0965 39.3347 27.1645 39.5488 27.1946 39.7149C27.1999 39.8358 27.1805 39.9567 27.1375 40.0699C27.0945 40.1831 27.0288 40.2863 26.9444 40.3732C26.765 40.5482 26.5529 40.6863 26.3201 40.7794C26.4982 41.0915 26.7163 41.3577 26.9764 41.5758C27.2366 41.7959 27.5187 41.972 27.8209 42.1081C28.123 42.2441 28.4512 42.3422 28.8054 42.4042C29.1595 42.4682 29.5057 42.4983 29.8379 42.4983ZM36.107 44.7194C36.3251 44.7194 36.5392 44.6873 36.7473 44.6253C37.0627 44.5349 37.3628 44.398 37.6378 44.2191C37.9099 44.041 38.158 43.8229 38.3882 43.5608C38.9317 42.9336 39.5968 42.4231 40.3431 42.06L40.8594 41.8259C41.0365 41.7487 41.2083 41.6598 41.3736 41.5598C41.4931 41.4841 41.6038 41.3955 41.7038 41.2956C41.7542 41.247 41.794 41.1884 41.8208 41.1237C41.8477 41.059 41.861 40.9895 41.8599 40.9195C41.86 40.839 41.8437 40.7593 41.8119 40.6853C41.7745 40.6021 41.7275 40.5235 41.6718 40.4512C41.5292 40.2527 41.3937 40.0491 41.2656 39.8409C41.1497 39.6515 41.05 39.4527 40.9674 39.2466L40.7173 38.6223C40.6271 38.3931 40.5535 38.1577 40.4972 37.918C40.4755 37.8439 40.4387 37.7751 40.3892 37.7159C40.2886 37.5655 40.1512 37.4433 39.9901 37.361C39.829 37.2787 39.6495 37.239 39.4687 37.2456C39.2821 37.2449 39.0985 37.2932 38.9364 37.3857L38.4042 37.6838C38.2189 37.7866 38.0314 37.8853 37.8419 37.98C37.6575 38.0727 37.4539 38.1207 37.2476 38.1201C37.0631 38.1281 36.8812 38.0739 36.7313 37.966C36.5875 37.8517 36.4701 37.7077 36.3872 37.5438C36.2982 37.3769 36.22 37.2044 36.153 37.0275L35.9649 36.5113C35.8835 36.6451 35.7897 36.771 35.6848 36.8874C35.5777 37.0067 35.4929 37.1443 35.4347 37.2936C35.2986 37.6058 35.2146 37.954 35.1846 38.3402C35.1325 38.9445 35.0645 39.5328 34.9804 40.1071C34.8948 40.6926 34.7541 41.2688 34.5602 41.8279C34.5049 42.0067 34.4628 42.1893 34.4342 42.3742C34.4031 42.5658 34.3817 42.7588 34.3701 42.9525C34.3701 43.4627 34.5282 43.8849 34.8404 44.2191C35.1525 44.5513 35.5747 44.7194 36.107 44.7194Z" fill="white"/>
<rect x="2" y="2" width="56" height="56" rx="28" stroke="#393939" stroke-width="4"/>
</svg>
