<svg width="16" height="16" viewBox="0 0 16 16" fill="none" xmlns="http://www.w3.org/2000/svg">
<path d="M14 7.19445C14.0021 8.00104 13.8136 8.79671 13.45 9.51667C13.0188 10.3794 12.3559 11.1051 11.5356 11.6123C10.7154 12.1196 9.77003 12.3885 8.80555 12.3889C7.99896 12.391 7.20329 12.2025 6.48333 11.8389L3 13L4.16111 9.51667C3.79746 8.79671 3.60901 8.00104 3.61111 7.19445C3.61148 6.22997 3.88037 5.28464 4.38766 4.46435C4.89495 3.64406 5.6206 2.9812 6.48333 2.55002C7.20329 2.18636 7.99896 1.99791 8.80555 2.00002H9.1111C10.3849 2.07029 11.588 2.60793 12.49 3.50998C13.3921 4.41204 13.9297 5.61513 14 6.8889V7.19445Z" stroke="white" stroke-linecap="round" stroke-linejoin="round"/>
</svg>
