<svg width="16" height="16" viewBox="0 0 16 16" fill="none" xmlns="http://www.w3.org/2000/svg">
<path d="M9.5249 6.8665L9.0249 6L3.9639 8.923L3.4654 8.635C3.59799 8.52711 3.71084 8.39701 3.7989 8.2505C3.94725 7.99358 4.01607 7.69843 3.99668 7.40239C3.97728 7.10635 3.87054 6.82271 3.68994 6.58734C3.50934 6.35197 3.263 6.17544 2.98207 6.08007C2.70114 5.9847 2.39824 5.97478 2.11168 6.05156C1.82511 6.12834 1.56775 6.28838 1.37214 6.51143C1.17652 6.73448 1.05145 7.01053 1.01272 7.30466C0.973997 7.5988 1.02336 7.89781 1.15458 8.16389C1.2858 8.42997 1.49297 8.65117 1.7499 8.7995L2.9639 9.5L1.7499 10.201C1.4681 10.3594 1.24428 10.6037 1.11108 10.8983C0.977874 11.1929 0.942256 11.5223 1.00942 11.8385C1.07658 12.1547 1.243 12.4412 1.48442 12.6562C1.72585 12.8712 2.02964 13.0035 2.3515 13.0337C2.67337 13.0639 2.99647 12.9905 3.2737 12.8242C3.55092 12.6579 3.76777 12.4074 3.89262 12.1092C4.01747 11.811 4.0438 11.4807 3.96776 11.1665C3.89171 10.8523 3.71728 10.5706 3.4699 10.3625L3.9639 10.0775L7.2949 12L7.7949 11.135L4.9639 9.5L9.5249 6.8665ZM2.0169 7.63C1.98693 7.51827 1.99662 7.3996 2.04433 7.29422C2.09204 7.18884 2.17482 7.10326 2.27856 7.05207C2.38229 7.00087 2.50057 6.98724 2.61324 7.01348C2.7259 7.03971 2.82598 7.10421 2.89643 7.19597C2.96687 7.28773 3.00332 7.40107 2.99956 7.51669C2.9958 7.63231 2.95207 7.74305 2.87581 7.83004C2.79956 7.91703 2.6955 7.97488 2.58137 7.99375C2.46723 8.01261 2.35009 7.99132 2.2499 7.9335C2.19292 7.90084 2.14298 7.85719 2.10299 7.8051C2.06299 7.753 2.03373 7.69349 2.0169 7.63ZM2.4999 11C2.58769 10.9999 2.67396 11.0229 2.75002 11.0668C2.82609 11.1106 2.88928 11.1737 2.93323 11.2497C2.97719 11.3257 3.00036 11.4119 3.00041 11.4997C3.00047 11.5875 2.97741 11.6737 2.93355 11.7498C2.8897 11.8258 2.82659 11.889 2.75058 11.9329C2.67457 11.9768 2.58833 12 2.50054 12C2.41275 12 2.3265 11.9769 2.25047 11.933C2.17443 11.8892 2.1113 11.826 2.0674 11.75C2.02354 11.674 2.00044 11.5879 2.00041 11.5001C2.00039 11.4124 2.02345 11.3262 2.06727 11.2502C2.1111 11.1742 2.17414 11.1111 2.25008 11.0672C2.32602 11.0233 2.41218 11.0001 2.4999 11ZM8.4999 13H10.4999V14H8.4999V13ZM4.9999 13H6.9999V14H4.9999V13Z" fill="white"/>
<path d="M14 14H12V13H14V2H3.5V4H2.5V2C2.50026 1.73486 2.60571 1.48066 2.79319 1.29319C2.98066 1.10571 3.23486 1.00026 3.5 1H14C14.2651 1.00026 14.5193 1.10571 14.7068 1.29319C14.8943 1.48066 14.9997 1.73486 15 2V13C14.9997 13.2651 14.8943 13.5193 14.7068 13.7068C14.5193 13.8943 14.2651 13.9997 14 14Z" fill="white"/>
</svg>
