<svg width="16" height="16" viewBox="0 0 16 16" fill="none" xmlns="http://www.w3.org/2000/svg">
<path fill-rule="evenodd" clip-rule="evenodd" d="M8 5.5C8.13261 5.5 8.25979 5.55268 8.35355 5.64645C8.44732 5.74021 8.5 5.86739 8.5 6V7.5H10C10.1326 7.5 10.2598 7.55268 10.3536 7.64645C10.4473 7.74021 10.5 7.86739 10.5 8C10.5 8.13261 10.4473 8.25979 10.3536 8.35355C10.2598 8.44732 10.1326 8.5 10 8.5H8.5V10C8.5 10.1326 8.44732 10.2598 8.35355 10.3536C8.25979 10.4473 8.13261 10.5 8 10.5C7.86739 10.5 7.74021 10.4473 7.64645 10.3536C7.55268 10.2598 7.5 10.1326 7.5 10V8.5H6C5.86739 8.5 5.74021 8.44732 5.64645 8.35355C5.55268 8.25979 5.5 8.13261 5.5 8C5.5 7.86739 5.55268 7.74021 5.64645 7.64645C5.74021 7.55268 5.86739 7.5 6 7.5H7.5V6C7.5 5.86739 7.55268 5.74021 7.64645 5.64645C7.74021 5.55268 7.86739 5.5 8 5.5Z" fill="white"/>
<path d="M10.273 2.51317L9.352 1.56917L10.067 0.871172L10.689 1.50817L11.579 1.49717C11.9643 1.49261 12.3465 1.56513 12.7033 1.71046C13.0602 1.85579 13.3843 2.071 13.6567 2.34343C13.9292 2.61586 14.1444 2.94002 14.2897 3.29683C14.435 3.65365 14.5076 4.03592 14.503 4.42117L14.493 5.31117L15.129 5.93317C15.4045 6.20234 15.6233 6.52386 15.7728 6.87882C15.9222 7.23378 15.9992 7.61503 15.9992 8.00017C15.9992 8.38531 15.9222 8.76656 15.7728 9.12152C15.6233 9.47649 15.4045 9.798 15.129 10.0672L14.492 10.6892L14.503 11.5792C14.5076 11.9644 14.435 12.3467 14.2897 12.7035C14.1444 13.0603 13.9292 13.3845 13.6567 13.6569C13.3843 13.9293 13.0602 14.1446 12.7033 14.2899C12.3465 14.4352 11.9643 14.5077 11.579 14.5032L10.689 14.4932L10.067 15.1292C9.79783 15.4046 9.47632 15.6235 9.12136 15.7729C8.76639 15.9224 8.38514 15.9994 8 15.9994C7.61487 15.9994 7.23361 15.9224 6.87865 15.7729C6.52369 15.6235 6.20217 15.4046 5.933 15.1292L5.311 14.4922L4.421 14.5032C4.03575 14.5077 3.65348 14.4352 3.29667 14.2899C2.93985 14.1446 2.61569 13.9293 2.34326 13.6569C2.07083 13.3845 1.85562 13.0603 1.71029 12.7035C1.56496 12.3467 1.49244 11.9644 1.497 11.5792L1.507 10.6892L0.871004 10.0672C0.595544 9.798 0.376665 9.47649 0.227227 9.12152C0.0777894 8.76656 0.000808716 8.38531 0.000808716 8.00017C0.000808716 7.61503 0.0777894 7.23378 0.227227 6.87882C0.376665 6.52386 0.595544 6.20234 0.871004 5.93317L1.508 5.31117L1.497 4.42117C1.49244 4.03592 1.56496 3.65365 1.71029 3.29683C1.85562 2.94002 2.07083 2.61586 2.34326 2.34343C2.61569 2.071 2.93985 1.85579 3.29667 1.71046C3.65348 1.56513 4.03575 1.49261 4.421 1.49717L5.311 1.50717L5.933 0.871172C6.20217 0.595712 6.52369 0.376832 6.87865 0.227395C7.23361 0.0779572 7.61487 0.000976562 8 0.000976562C8.38514 0.000976562 8.76639 0.0779572 9.12136 0.227395C9.47632 0.376832 9.79783 0.595712 10.067 0.871172L9.352 1.56917C9.17597 1.38896 8.96567 1.24576 8.73349 1.14799C8.50131 1.05022 8.25193 0.999852 8 0.999852C7.74808 0.999852 7.49869 1.05022 7.26651 1.14799C7.03433 1.24576 6.82404 1.38896 6.648 1.56917L5.728 2.51317L4.408 2.49717C4.15618 2.49436 3.90634 2.5419 3.67315 2.637C3.43996 2.7321 3.22812 2.87285 3.05009 3.05097C2.87206 3.22909 2.73143 3.441 2.63645 3.67424C2.54147 3.90748 2.49406 4.15735 2.497 4.40917L2.513 5.72717L1.569 6.64817C1.38879 6.82421 1.24559 7.0345 1.14782 7.26668C1.05005 7.49886 0.999684 7.74825 0.999684 8.00017C0.999684 8.2521 1.05005 8.50148 1.14782 8.73366C1.24559 8.96584 1.38879 9.17613 1.569 9.35217L2.513 10.2722L2.497 11.5922C2.49419 11.844 2.54173 12.0938 2.63683 12.327C2.73193 12.5602 2.87268 12.7721 3.0508 12.9501C3.22893 13.1281 3.44083 13.2687 3.67407 13.3637C3.90731 13.4587 4.15718 13.5061 4.409 13.5032L5.727 13.4872L6.648 14.4312C6.82404 14.6114 7.03433 14.7546 7.26651 14.8524C7.49869 14.9501 7.74808 15.0005 8 15.0005C8.25193 15.0005 8.50131 14.9501 8.73349 14.8524C8.96567 14.7546 9.17597 14.6114 9.352 14.4312L10.272 13.4872L11.592 13.5032C11.8438 13.506 12.0937 13.4584 12.3269 13.3633C12.5601 13.2682 12.7719 13.1275 12.9499 12.9494C13.1279 12.7712 13.2686 12.5593 13.3636 12.3261C13.4585 12.0929 13.506 11.843 13.503 11.5912L13.487 10.2732L14.431 9.35217C14.6112 9.17613 14.7544 8.96584 14.8522 8.73366C14.95 8.50148 15.0003 8.2521 15.0003 8.00017C15.0003 7.74825 14.95 7.49886 14.8522 7.26668C14.7544 7.0345 14.6112 6.82421 14.431 6.64817L13.487 5.72817L13.503 4.40817C13.5058 4.15635 13.4583 3.9065 13.3632 3.67331C13.2681 3.44012 13.1273 3.22829 12.9492 3.05026C12.7711 2.87223 12.5592 2.7316 12.3259 2.63661C12.0927 2.54163 11.8428 2.49422 11.591 2.49717L10.273 2.51317Z" fill="white"/>
</svg>
