<svg width="67" height="64" viewBox="0 0 67 64" fill="none" xmlns="http://www.w3.org/2000/svg">
<path d="M35.6878 42.59L35.1878 42.59L35.1878 43.09L35.1878 53.5L30.7851 53.5L30.7851 21.2698L30.7851 20.7698L30.2851 20.7698L16.8054 20.7698L16.3054 20.7698L16.3054 21.2698L16.3054 23.4906L6.5 23.4906L6.5 13.6349L16.3054 13.6349L16.3054 15.8556L16.3054 16.3556L16.8054 16.3556L30.2851 16.3556L30.7851 16.3556L30.7851 15.8556L30.7851 5.5L35.1878 5.5L35.1878 37.6485L35.1878 38.1485L35.6878 38.1485L49.1946 38.1485L49.6946 38.1485L49.6946 37.6485L49.6946 35.4278L59.5 35.4278L59.5 45.3107L49.6946 45.3107L49.6946 43.09L49.6946 42.59L49.1946 42.59L35.6878 42.59Z" fill="#00ED76" stroke="#2D2E35"/>
<path d="M18.1402 15.8929L18.1339 15.8864L18.1274 15.8799L12.1204 9.87552C10.9525 8.70816 9.0475 8.70816 7.87962 9.87552L1.87255 15.8799L1.86613 15.8864L1.85981 15.8929C1.2991 16.4741 1 17.2313 1 18C1 18.7687 1.2991 19.5259 1.85981 20.1071L1.86613 20.1136L1.87255 20.1201L7.87962 26.1245C9.0475 27.2918 10.9525 27.2918 12.1204 26.1245L18.1274 20.1201C18.7256 19.5222 19 18.7523 19 18C19 17.2313 18.7009 16.4741 18.1402 15.8929Z" fill="#D1ADFF" stroke="#2D2E35" stroke-width="2"/>
<path d="M65.1402 37.8929L65.1339 37.8864L65.1274 37.8799L59.1204 31.8755C57.9525 30.7082 56.0475 30.7082 54.8796 31.8755L48.8726 37.8799L48.8661 37.8864L48.8598 37.8929C48.2991 38.4741 48 39.2313 48 40C48 40.7687 48.2991 41.5259 48.8598 42.1071L48.8661 42.1136L48.8726 42.1201L54.8796 48.1245C56.0475 49.2918 57.9525 49.2918 59.1204 48.1245L65.1274 42.1201C65.7256 41.5222 66 40.7523 66 40C66 39.2313 65.7009 38.4741 65.1402 37.8929Z" fill="#D1ADFF" stroke="#2D2E35" stroke-width="2"/>
<ellipse cx="36.685" cy="61.0136" rx="22.685" ry="0.986305" fill="#242424"/>
</svg>
