<svg width="15" height="14" viewBox="0 0 15 14" fill="none" xmlns="http://www.w3.org/2000/svg">
<path fill-rule="evenodd" clip-rule="evenodd" d="M2.02992 6.78423C2.02992 10.0312 4.38406 12.2434 7.02832 12.701C7.10025 12.7135 7.16902 12.74 7.23071 12.7791C7.29239 12.8181 7.34578 12.8689 7.38783 12.9286C7.42987 12.9883 7.45975 13.0556 7.47576 13.1269C7.49177 13.1981 7.49359 13.2718 7.48112 13.3437C7.46866 13.4156 7.44214 13.4844 7.4031 13.5461C7.36406 13.6078 7.31325 13.6612 7.25357 13.7032C7.19389 13.7452 7.12652 13.7751 7.05529 13.7911C6.98407 13.8071 6.91039 13.809 6.83846 13.7965C3.73339 13.2589 0.918457 10.6413 0.918457 6.78423C0.918457 5.14476 1.66406 3.85623 2.53446 2.87703C3.15846 2.17516 3.87206 1.6045 4.44592 1.16823H2.70086C2.55941 1.16823 2.42375 1.11204 2.32373 1.01202C2.22371 0.912 2.16752 0.776345 2.16752 0.634896C2.16752 0.493447 2.22371 0.357792 2.32373 0.257772C2.42375 0.157753 2.55941 0.101563 2.70086 0.101562H5.90086C6.04231 0.101563 6.17796 0.157753 6.27798 0.257772C6.378 0.357792 6.43419 0.493447 6.43419 0.634896V3.8349C6.43419 3.97634 6.378 4.112 6.27798 4.21202C6.17796 4.31204 6.04231 4.36823 5.90086 4.36823C5.75941 4.36823 5.62375 4.31204 5.52373 4.21202C5.42371 4.112 5.36752 3.97634 5.36752 3.8349V1.86583L5.36646 1.86796C4.75632 2.32663 4.01179 2.88876 3.36646 3.61516C2.60379 4.47276 2.02992 5.50956 2.02992 6.78316V6.78423ZM13.8785 7.2173C13.8785 4.0045 11.5745 1.8061 8.96432 1.31543C8.89158 1.30309 8.82201 1.27638 8.7597 1.23687C8.69738 1.19735 8.64356 1.14583 8.60137 1.08529C8.55917 1.02475 8.52946 0.956423 8.51396 0.884282C8.49846 0.812141 8.49748 0.737635 8.51107 0.665111C8.52467 0.592587 8.55258 0.523498 8.59316 0.461873C8.63374 0.400248 8.68619 0.347322 8.74745 0.306182C8.8087 0.265043 8.87754 0.236515 8.94994 0.222261C9.02233 0.208007 9.09685 0.208314 9.16912 0.223163C12.2347 0.799163 14.9899 3.40183 14.9899 7.2173C14.9899 8.85676 14.2443 10.1442 13.3739 11.1245C12.7499 11.8264 12.0363 12.397 11.4625 12.8333H13.2075C13.349 12.8333 13.4846 12.8895 13.5846 12.9895C13.6847 13.0895 13.7409 13.2252 13.7409 13.3666C13.7409 13.5081 13.6847 13.6437 13.5846 13.7438C13.4846 13.8438 13.349 13.9 13.2075 13.9H10.0075C9.86608 13.9 9.73042 13.8438 9.6304 13.7438C9.53038 13.6437 9.47419 13.5081 9.47419 13.3666V10.1666C9.47419 10.0252 9.53038 9.88953 9.6304 9.78951C9.73042 9.68949 9.86608 9.6333 10.0075 9.6333C10.149 9.6333 10.2846 9.68949 10.3846 9.78951C10.4847 9.88953 10.5409 10.0252 10.5409 10.1666V12.1346H10.543C11.1521 11.6738 11.8977 11.1128 12.5419 10.3853C13.3046 9.52876 13.8785 8.49196 13.8785 7.2173Z" fill="white"/>
</svg>
