<svg width="64" height="64" viewBox="0 0 64 64" fill="none" xmlns="http://www.w3.org/2000/svg">
<path d="M35 36.6C28.28 36.6 26.08 39.3675 25.36 41.192C26.629 41.7511 27.6711 42.7416 28.3107 43.9965C28.9502 45.2514 29.1481 46.694 28.8709 48.081C28.5936 49.468 27.8583 50.7146 26.7889 51.6107C25.7195 52.5067 24.3813 52.9974 23 53C19.68 53 17 50.253 17 46.85C17 44.1645 18.66 41.889 21 41.0485V23.9515C19.8281 23.53 18.8132 22.7449 18.0964 21.7053C17.3796 20.6657 16.9964 19.423 17 18.15C17 14.747 19.68 12 23 12C26.32 12 29 14.747 29 18.15C29 20.8355 27.34 23.111 25 23.9515V34.796C26.76 33.4635 29.32 32.5 33 32.5C38.34 32.5 40.12 29.753 40.7 27.9285C39.6058 27.4613 38.6708 26.6729 38.0125 25.6626C37.3542 24.6522 37.0019 23.465 37 22.25C37 18.847 39.68 16.1 43 16.1C46.32 16.1 49 18.847 49 22.25C49 24.997 47.24 27.375 44.82 28.113C44.3 31.0445 42.36 36.6 35 36.6ZM23 44.8C21.9 44.8 21 45.7225 21 46.85C21 47.9775 21.9 48.9 23 48.9C24.1 48.9 25 47.9775 25 46.85C25 45.7225 24.1 44.8 23 44.8ZM23 16.1C21.9 16.1 21 17.0225 21 18.15C21 19.2775 21.9 20.2 23 20.2C24.1 20.2 25 19.2775 25 18.15C25 17.0225 24.1 16.1 23 16.1ZM43 20.2C41.9 20.2 41 21.1225 41 22.25C41 23.3775 41.9 24.3 43 24.3C44.1 24.3 45 23.3775 45 22.25C45 21.1225 44.1 20.2 43 20.2Z" fill="#33AD6E"/>
<path fill-rule="evenodd" clip-rule="evenodd" d="M24.9224 42.2476C24.3638 42.0015 24.0996 41.3394 24.3285 40.7594C24.7681 39.6454 25.6456 38.2912 27.355 37.2287C29.0524 36.1736 31.4955 35.452 35 35.452C38.3687 35.452 40.3816 34.1988 41.632 32.7056C42.9199 31.1677 43.4823 29.272 43.7245 27.9065C43.8001 27.4807 44.1015 27.1349 44.5041 27.0122C46.4464 26.4198 47.8864 24.4933 47.8864 22.25C47.8864 19.4872 45.7109 17.248 43 17.248C40.2894 17.248 38.1141 19.4867 38.1136 22.2491C38.1154 23.2359 38.4015 24.2008 38.9369 25.0225C39.4726 25.8445 40.234 26.4869 41.1262 26.8679C41.6641 27.0976 41.9396 27.7156 41.7583 28.286C41.415 29.3657 40.712 30.7292 39.3026 31.8173C37.8884 32.909 35.8608 33.648 33 33.648C29.5152 33.648 27.1969 34.5571 25.6592 35.7213C25.3209 35.9774 24.8715 36.0157 24.497 35.8202C24.1225 35.6247 23.8864 35.2288 23.8864 34.796V23.9515C23.8864 23.4631 24.1862 23.0281 24.6336 22.8674C26.5397 22.1828 27.8864 20.3325 27.8864 18.15C27.8864 15.3872 25.711 13.148 23 13.148C20.2891 13.148 18.1137 15.3872 18.1137 18.15V18.1533C18.1107 19.1864 18.4217 20.1954 19.0042 21.0402C19.5867 21.8851 20.4122 22.5242 21.3669 22.8676C21.8141 23.0284 22.1137 23.4633 22.1137 23.9515V41.0485C22.1137 41.5369 21.8139 41.9719 21.3664 42.1326C19.4603 42.8172 18.1137 44.6675 18.1137 46.85C18.1137 49.6127 20.2888 51.8517 22.9995 51.852C24.1258 51.8495 25.2159 51.4492 26.0865 50.7198C26.9573 49.9902 27.5549 48.9761 27.7801 47.8493C28.0053 46.7226 27.8447 45.5506 27.3248 44.5304C26.8049 43.5102 25.9568 42.7034 24.9224 42.2476ZM23 53C19.68 53 17 50.253 17 46.85C17 44.1645 18.66 41.889 21 41.0485V23.9515C19.8281 23.53 18.8132 22.7449 18.0964 21.7053C17.3796 20.6657 16.9964 19.423 17 18.15C17 14.747 19.68 12 23 12C26.32 12 29 14.747 29 18.15C29 20.8355 27.34 23.111 25 23.9515V34.796C25.3405 34.5382 25.711 34.2942 26.1137 34.0684C27.7925 33.1268 30.032 32.5 33 32.5C37.3791 32.5 39.3641 30.6527 40.2566 28.9817C40.2892 28.9207 40.3203 28.8598 40.3501 28.7994C40.499 28.4966 40.613 28.2022 40.7 27.9285C39.6058 27.4613 38.6708 26.6729 38.0125 25.6626C37.3542 24.6522 37.0019 23.465 37 22.25C37 18.847 39.68 16.1 43 16.1C46.32 16.1 49 18.847 49 22.25C49 24.997 47.24 27.375 44.82 28.113C44.3 31.0445 42.36 36.6 35 36.6C29.4471 36.6 26.9805 38.4897 25.885 40.1755C25.6972 40.4645 25.5497 40.7475 25.4339 41.0139C25.4077 41.0742 25.3831 41.1336 25.36 41.192C26.629 41.7511 27.6711 42.7416 28.3107 43.9965C28.9502 45.2514 29.1481 46.694 28.8709 48.081C28.5936 49.468 27.8583 50.7146 26.7889 51.6107C25.7195 52.5067 24.3813 52.9974 23 53ZM19.8864 46.85C19.8864 45.0823 21.291 43.652 23 43.652C24.7091 43.652 26.1137 45.0823 26.1137 46.85C26.1137 48.6177 24.7091 50.048 23 50.048C21.291 50.048 19.8864 48.6177 19.8864 46.85ZM19.8864 18.15C19.8864 16.3823 21.291 14.952 23 14.952C24.7091 14.952 26.1137 16.3823 26.1137 18.15C26.1137 19.9177 24.7091 21.348 23 21.348C21.291 21.348 19.8864 19.9177 19.8864 18.15ZM39.8864 22.25C39.8864 20.4823 41.291 19.052 43 19.052C44.7091 19.052 46.1136 20.4823 46.1136 22.25C46.1136 24.0177 44.7091 25.448 43 25.448C41.291 25.448 39.8864 24.0177 39.8864 22.25ZM21 46.85C21 45.7225 21.9 44.8 23 44.8C24.1 44.8 25 45.7225 25 46.85C25 47.9775 24.1 48.9 23 48.9C21.9 48.9 21 47.9775 21 46.85ZM21 18.15C21 17.0225 21.9 16.1 23 16.1C24.1 16.1 25 17.0225 25 18.15C25 19.2775 24.1 20.2 23 20.2C21.9 20.2 21 19.2775 21 18.15ZM41 22.25C41 21.1225 41.9 20.2 43 20.2C44.1 20.2 45 21.1225 45 22.25C45 23.3775 44.1 24.3 43 24.3C41.9 24.3 41 23.3775 41 22.25Z" fill="#2D2E35"/>
<path d="M30.2488 14.6578L30.2425 14.6513L30.2361 14.6448L25.3554 9.76625C24.3332 8.74458 22.6668 8.74458 21.6446 9.76625L16.7639 14.6448L16.7575 14.6513L16.7512 14.6578C16.262 15.1649 16 15.8267 16 16.5C16 17.1733 16.262 17.8351 16.7512 18.3422L16.7575 18.3487L16.7639 18.3552L21.6446 23.2338C22.6668 24.2554 24.3332 24.2554 25.3554 23.2338L30.2361 18.3552C30.76 17.8315 31 17.157 31 16.5C31 15.8267 30.738 15.1649 30.2488 14.6578Z" fill="#33AD6E" stroke="#2D2E35" stroke-width="2"/>
<path d="M49.2488 19.6578L49.2425 19.6513L49.2361 19.6448L44.3554 14.7662C43.3332 13.7446 41.6668 13.7446 40.6446 14.7662L35.7639 19.6448L35.7575 19.6513L35.7512 19.6578C35.262 20.1649 35 20.8267 35 21.5C35 22.1733 35.262 22.8351 35.7512 23.3422L35.7575 23.3487L35.7639 23.3552L40.6446 28.2338C41.6668 29.2554 43.3332 29.2554 44.3554 28.2338L49.2361 23.3552C49.76 22.8315 50 22.157 50 21.5C50 20.8267 49.738 20.1649 49.2488 19.6578Z" fill="#33AD6E" stroke="#2D2E35" stroke-width="2"/>
<path d="M30.2488 46.6578L30.2425 46.6513L30.2361 46.6448L25.3554 41.7662C24.3332 40.7446 22.6668 40.7446 21.6446 41.7662L16.7639 46.6448L16.7575 46.6513L16.7512 46.6578C16.262 47.1649 16 47.8267 16 48.5C16 49.1733 16.262 49.8351 16.7512 50.3422L16.7575 50.3487L16.7639 50.3552L21.6446 55.2338C22.6668 56.2554 24.3332 56.2554 25.3554 55.2338L30.2361 50.3552C30.76 49.8315 31 49.157 31 48.5C31 47.8267 30.738 47.1649 30.2488 46.6578Z" fill="#33AD6E" stroke="#2D2E35" stroke-width="2"/>
<path d="M43.9996 46.1996L55.7996 34.3996C56.1663 34.0329 56.6329 33.8496 57.1996 33.8496C57.7663 33.8496 58.2329 34.0329 58.5996 34.3996C58.9663 34.7663 59.1496 35.2329 59.1496 35.7996C59.1496 36.3663 58.9663 36.8329 58.5996 37.1996L45.3996 50.3996C44.9996 50.7996 44.5329 50.9996 43.9996 50.9996C43.4663 50.9996 42.9996 50.7996 42.5996 50.3996L37.3996 45.1996C37.0329 44.8329 36.8496 44.3663 36.8496 43.7996C36.8496 43.2329 37.0329 42.7663 37.3996 42.3996C37.7663 42.0329 38.2329 41.8496 38.7996 41.8496C39.3663 41.8496 39.8329 42.0329 40.1996 42.3996L43.9996 46.1996Z" fill="#00ED76"/>
<ellipse cx="34.685" cy="61.0136" rx="22.685" ry="0.986305" fill="#242424"/>
</svg>
