<svg width="64" height="64" viewBox="0 0 64 64" fill="none" xmlns="http://www.w3.org/2000/svg">
<path d="M9.00675 49.2759L12.1341 43.9542L13.4274 44.7142L16.0335 40.2794L14.7403 39.5194L17.8677 34.1976L19.1609 34.9576L21.7671 30.5228L20.4738 29.7628L23.6012 24.4411L24.8945 25.201L27.5006 20.7662L26.2074 20.0063L29.3348 14.6845L30.628 15.4445L31.5 13.9606L32.372 15.4445L33.6652 14.6845L36.7926 20.0063L35.4994 20.7662L38.1055 25.201L39.3988 24.4411L42.5262 29.7628L41.2329 30.5228L43.8391 34.9576L45.1323 34.1976L48.2597 39.5194L46.9665 40.2794L49.5726 44.7142L50.8659 43.9542L53.9932 49.2759L52.7 50.0359L53.5604 51.5H51.828V53H45.5732V51.5H40.3609V53H34.1062V51.5H28.8938V53H22.6391V51.5H17.4268V53H11.172V51.5H9.4396L10.3 50.0359L9.00675 49.2759ZM31.0689 13.2271L31.0694 13.2279C31.0692 13.2276 31.0691 13.2273 31.0689 13.2271L31.5 12.9737L31.0689 13.2271Z" stroke="#00ED76" stroke-width="3" stroke-linejoin="round" stroke-dasharray="5 6"/>
<circle cx="9" cy="51" r="5.5" fill="#78A7FF" stroke="#2D2E35" stroke-linejoin="round"/>
<path d="M37.9252 10.5933L37.9253 10.5932L37.9188 10.5868L33.4135 6.08345C32.6353 5.30552 31.3647 5.30552 30.5865 6.08345L26.0812 10.5868L26.0811 10.5867L26.0748 10.5932C25.699 10.9828 25.5 11.4885 25.5 12C25.5 12.5115 25.699 13.0172 26.0748 13.4068L26.0747 13.4068L26.0812 13.4132L30.5865 17.9165C31.3647 18.6945 32.6353 18.6945 33.4135 17.9165L37.9188 13.4132C38.3168 13.0154 38.5 12.5033 38.5 12C38.5 11.4885 38.301 10.9828 37.9252 10.5933Z" fill="#78A7FF" stroke="#2D2E35" stroke-linejoin="round"/>
<path d="M54.3322 45.3474C53.9365 44.7533 53.0635 44.7533 52.6678 45.3474L47.1064 53.6956C46.6637 54.3602 47.1401 55.25 47.9387 55.25H59.0613C59.8599 55.25 60.3363 54.3602 59.8936 53.6956L54.3322 45.3474Z" fill="#78A7FF" stroke="#2D2E35" stroke-linejoin="round"/>
<ellipse cx="34.685" cy="58.0136" rx="22.685" ry="0.986305" fill="#242424"/>
</svg>
