<svg width="24" height="24" viewBox="0 0 24 24" fill="none" xmlns="http://www.w3.org/2000/svg">
<path d="M19.8552 8.60059C19.7807 8.4293 19.6597 8.28231 19.506 8.17627C19.3522 8.07022 19.1718 8.00936 18.9852 8.00059H14.4052L15.6752 3.26059C15.7157 3.11226 15.7214 2.95661 15.6919 2.80572C15.6624 2.65483 15.5985 2.51278 15.5052 2.39059C15.4121 2.26957 15.2924 2.1715 15.1555 2.1039C15.0186 2.03629 14.8679 2.00095 14.7152 2.00059H7.71523C7.48947 1.99285 7.26774 2.06179 7.08615 2.19616C6.90457 2.33053 6.77383 2.52242 6.71523 2.74059L4.03523 12.7406C3.99478 12.8889 3.98908 13.0446 4.01856 13.1955C4.04804 13.3463 4.11192 13.4884 4.20523 13.6106C4.29941 13.7329 4.42065 13.8318 4.55945 13.8995C4.69825 13.9672 4.85082 14.0018 5.00523 14.0006H8.87523L7.06523 20.7406C7.00593 20.9579 7.02175 21.1889 7.11013 21.3961C7.19852 21.6034 7.35428 21.7747 7.55219 21.8823C7.7501 21.9899 7.97855 22.0276 8.20053 21.9892C8.42251 21.9507 8.62502 21.8385 8.77523 21.6706L19.6752 9.67059C19.805 9.52847 19.891 9.35192 19.923 9.16212C19.9549 8.97232 19.9314 8.77735 19.8552 8.60059ZM10.0652 17.2806L11.1352 13.2806C11.1757 13.1323 11.1814 12.9766 11.1519 12.8257C11.1224 12.6748 11.0585 12.5328 10.9652 12.4106C10.8721 12.2896 10.7524 12.1915 10.6155 12.1239C10.4786 12.0563 10.3279 12.021 10.1752 12.0206H6.33523L8.47523 4.00059H13.4052L12.1352 8.74059C12.0945 8.89164 12.0897 9.05016 12.1213 9.20339C12.153 9.35662 12.2201 9.50029 12.3174 9.62284C12.4147 9.7454 12.5393 9.84342 12.6814 9.90902C12.8234 9.97463 12.9789 10.006 13.1352 10.0006H16.7052L10.0652 17.2806Z" fill="#121212"/>
</svg>
