<svg width="16" height="16" viewBox="0 0 16 16" fill="none" xmlns="http://www.w3.org/2000/svg">
<path d="M7.95561 7.68904C9.15561 7.68904 10.0889 6.71126 10.0889 5.51126C10.0889 4.31126 9.11117 3.37793 7.91116 3.37793C6.71117 3.37793 5.77783 4.35571 5.77783 5.51126C5.77783 6.71126 6.75561 7.68904 7.95561 7.68904ZM7.91116 4.26682C7.95561 4.26682 7.95561 4.26682 7.91116 4.26682C8.62228 4.26682 9.20005 4.8446 9.20005 5.55571C9.20005 6.26682 8.62228 6.80015 7.91116 6.80015C7.20005 6.80015 6.66672 6.22237 6.66672 5.55571C6.66672 4.8446 7.2445 4.26682 7.91116 4.26682Z" fill="#F2F4F7"/>
<path d="M14.5334 7.42207C13.689 6.66652 12.5779 6.26652 11.4223 6.31096H11.0667C10.9779 6.66652 10.8445 6.97763 10.6667 7.24429C10.9334 7.19985 11.1556 7.19985 11.4223 7.19985C12.2667 7.15541 13.1112 7.42207 13.7779 7.91096V11.111H14.6667V7.55541L14.5334 7.42207Z" fill="#F2F4F7"/>
<path d="M10.4001 3.46669C10.6223 2.93336 11.2445 2.66669 11.8223 2.88891C12.3556 3.11113 12.6223 3.73336 12.4001 4.31113C12.2223 4.71113 11.8223 4.9778 11.4223 4.9778C11.3334 4.9778 11.2001 4.9778 11.1112 4.93336C11.1556 5.15558 11.1556 5.3778 11.1556 5.55558V5.82224C11.2445 5.82224 11.3334 5.86669 11.4223 5.86669C12.5334 5.86669 13.4223 4.9778 13.4223 3.91113C13.4223 2.80002 12.5334 1.91113 11.4667 1.91113C10.7556 1.91113 10.1334 2.26669 9.77783 2.88891C10.0001 3.02224 10.2223 3.20002 10.4001 3.46669Z" fill="#F2F4F7"/>
<path d="M5.33325 7.28922C5.15547 7.02256 5.02214 6.71144 4.93325 6.35589H4.5777C3.42214 6.31144 2.31103 6.71145 1.46659 7.42256L1.33325 7.55589V11.1114H2.22214V7.91144C2.93325 7.42256 3.73325 7.15589 4.5777 7.20033C4.84436 7.20033 5.11103 7.24478 5.33325 7.28922Z" fill="#F2F4F7"/>
<path d="M4.57787 5.82175C4.66675 5.82175 4.75564 5.82175 4.84453 5.77731V5.51064C4.84453 5.28842 4.84453 5.0662 4.88898 4.88842C4.80009 4.93286 4.66675 4.93286 4.57787 4.93286C4.00009 4.93286 3.5112 4.44397 3.5112 3.86619C3.5112 3.28842 4.00009 2.79953 4.57787 2.79953C5.02231 2.79953 5.42231 3.0662 5.60009 3.4662C5.77787 3.24397 6.04453 3.02175 6.26675 2.84397C5.68898 1.91064 4.48898 1.59953 3.55564 2.17731C2.62231 2.75508 2.3112 3.95508 2.88898 4.88842C3.24453 5.46619 3.86675 5.82175 4.57787 5.82175Z" fill="#F2F4F7"/>
<path d="M11.5999 10.0892L11.511 9.95589C10.6221 8.97811 9.37767 8.40033 8.04434 8.44477C6.711 8.40033 5.42211 8.97811 4.53322 9.95589L4.44434 10.0892V13.467C4.44434 13.867 4.75545 14.2226 5.19989 14.2226H10.8888C11.2888 14.2226 11.6443 13.867 11.6443 13.467V10.0892H11.5999ZM10.711 13.3337H5.33322V10.4003C6.04434 9.68922 7.02211 9.33366 8.04434 9.33366C9.02211 9.28922 9.99989 9.68922 10.711 10.4003V13.3337Z" fill="#F2F4F7"/>
</svg>
