<svg width="16" height="16" viewBox="0 0 16 16" fill="none" xmlns="http://www.w3.org/2000/svg">
<path d="M9.66675 1.3335H4.00008C3.64646 1.3335 3.30732 1.47397 3.05727 1.72402C2.80722 1.97407 2.66675 2.31321 2.66675 2.66683V13.3335C2.66675 13.6871 2.80722 14.0263 3.05727 14.2763C3.30732 14.5264 3.64646 14.6668 4.00008 14.6668H12.0001C12.3537 14.6668 12.6928 14.5264 12.9429 14.2763C13.1929 14.0263 13.3334 13.6871 13.3334 13.3335V5.00016L9.66675 1.3335Z" stroke="#00ED7B" stroke-linecap="round" stroke-linejoin="round"/>
<path d="M6.66683 12.0002C7.40321 12.0002 8.00016 11.4032 8.00016 10.6668C8.00016 9.93045 7.40321 9.3335 6.66683 9.3335C5.93045 9.3335 5.3335 9.93045 5.3335 10.6668C5.3335 11.4032 5.93045 12.0002 6.66683 12.0002Z" stroke="#00ED7B" stroke-linecap="round" stroke-linejoin="round"/>
<path d="M10.6667 6.66699L7.66675 9.66699M10.0001 7.33366L10.6667 8.00033" stroke="#00ED7B" stroke-linecap="round" stroke-linejoin="round"/>
</svg>
