<svg width="16" height="16" viewBox="0 0 16 16" fill="none" xmlns="http://www.w3.org/2000/svg">
<path d="M9.80629 4.47328C9.74462 4.41148 9.67136 4.36245 9.59071 4.32899C9.51006 4.29554 9.4236 4.27832 9.33629 4.27832C9.24898 4.27832 9.16252 4.29554 9.08187 4.32899C9.00123 4.36245 8.92797 4.41148 8.86629 4.47328L5.80629 7.53328C5.74449 7.59496 5.69546 7.66822 5.662 7.74887C5.62855 7.82952 5.61133 7.91597 5.61133 8.00328C5.61133 8.0906 5.62855 8.17705 5.662 8.2577C5.69546 8.33835 5.74449 8.41161 5.80629 8.47328L8.86629 11.5333C8.92801 11.595 9.00129 11.644 9.08193 11.6774C9.16257 11.7108 9.249 11.728 9.33629 11.728C9.42358 11.728 9.51001 11.7108 9.59065 11.6774C9.6713 11.644 9.74457 11.595 9.80629 11.5333C9.86801 11.4716 9.91697 11.3983 9.95038 11.3176C9.98378 11.237 10.001 11.1506 10.001 11.0633C10.001 10.976 9.98378 10.8896 9.95038 10.8089C9.91697 10.7283 9.86801 10.655 9.80629 10.5933L7.21962 7.99995L9.80629 5.41328C10.0663 5.15328 10.0596 4.72662 9.80629 4.47328Z" fill="white"/>
</svg>
