<svg width="20" height="20" viewBox="0 0 20 20" fill="none" xmlns="http://www.w3.org/2000/svg">
    <path d="M15.4089 2.00293H8.09814V11.8655H17.974V4.55474C17.974 3.15622 16.8207 2.00293 15.4222 2.00293C15.4156 2.00293 15.4089 2.00293 15.4089 2.00293Z" fill="white"/>
    <path d="M5.81799 2.00293H4.55865C3.16012 2.00293 2.00684 3.15622 2.00684 4.55474V5.81408H5.81799V2.00293Z" fill="white"/>
    <path d="M2 8.09375H5.81115V11.9049H2V8.09375Z" fill="white"/>
    <path d="M14.189 17.9694H15.4483C16.8468 17.9694 18.0001 16.8161 18.0001 15.4176V15.411V14.1914H14.189V17.9694Z" fill="white"/>
    <path d="M8.09814 14.1855H11.9093V17.9967H8.09814V14.1855Z" fill="white"/>
    <path d="M2 14.1855V15.4449C2 16.8434 3.15329 17.9967 4.55181 17.9967H5.81115V14.1855H2Z" fill="white"/>
</svg>
