<svg width="213" height="54" viewBox="0 0 213 54" fill="none" xmlns="http://www.w3.org/2000/svg">
    <g filter="url(#filter0_dd_123_71659)">
        <g clip-path="url(#clip0_123_71659)">
            <path fill-rule="evenodd" clip-rule="evenodd" d="M48.9993 30.6455L31.4011 48.2633C29.1237 50.5432 25.397 50.5432 23.1196 48.2633L18.9137 44.0527L38.2755 24.6376C38.4585 24.454 38.7555 24.4539 38.9387 24.6373L41.9594 27.6614C42.9641 28.6672 44.5998 28.6672 45.6044 27.6614L49.124 24.1379C49.405 23.8566 49.5905 23.5474 49.7058 23.236C50.3605 24.2263 50.697 25.3632 50.697 26.5002C50.697 27.9925 50.1587 29.4848 48.9993 30.6455ZM43.9375 17.2874C43.9533 17.3298 43.9783 17.3697 44.0124 17.4038L48.1297 21.5257C48.3782 21.733 48.461 22.0232 48.461 22.3134C48.461 22.6035 48.3782 22.8937 48.1297 23.1424L44.6101 26.666C44.1546 27.122 43.4093 27.122 42.9538 26.666L39.933 23.6418C39.2003 22.9083 38.0122 22.9089 37.2802 23.643L17.9194 43.0573L11.6559 36.7868C11.5934 36.697 11.522 36.6114 11.442 36.5312L8.41996 33.5058C8.21292 33.2571 8.0887 32.9669 8.0887 32.6767C8.0887 32.3866 8.17151 32.0964 8.41996 31.8477L11.9396 28.3241C12.3951 27.8681 13.1404 27.8681 13.5959 28.3241L16.6179 31.3495C17.3501 32.0825 18.5372 32.0825 19.2695 31.3495L32.6019 18.0022C33.0593 17.5443 33.0593 16.8019 32.6019 16.3441L29.0823 12.8205C28.8752 12.5718 28.751 12.2816 28.751 11.9914C28.751 11.7013 28.8338 11.4111 29.0823 11.1624L32.6019 7.63881C33.0574 7.18282 33.8027 7.18282 34.2582 7.63881L37.2911 10.6751C37.3712 10.7552 37.4567 10.8266 37.5465 10.8893L43.9375 17.2874ZM32.6666 6.00395L31.4011 4.73706C29.1237 2.45711 25.397 2.45711 23.1196 4.73706L5.52144 22.3548C4.40343 23.5155 3.82373 25.0078 3.82373 26.5002C3.82373 27.9925 4.40343 29.4848 5.52144 30.6455L6.79018 31.9157C6.89796 31.5503 7.09607 31.1822 7.42563 30.8522L10.9453 27.3287C11.9499 26.3229 13.5856 26.3229 14.5902 27.3287L17.6122 30.3541C17.7953 30.5373 18.0921 30.5373 18.2751 30.3541L31.4414 17.1731L28.0428 13.7708L28.002 13.7217C27.6375 13.2839 27.3448 12.6855 27.3448 11.9914C27.3448 11.4086 27.5238 10.7317 28.088 10.1669L31.6076 6.64337C31.9139 6.33676 32.2788 6.12362 32.6666 6.00395Z" fill="#00ED7B"/>
            <path d="M45.3219 17.0881L45.322 17.088L48.8374 13.5687C49.3101 13.0954 49.4611 12.5307 49.4611 12.0329C49.4611 11.4562 49.2174 10.9472 48.8984 10.5641L48.8694 10.5293L48.8374 10.4972L45.3177 6.97361C44.4716 6.12657 43.0925 6.12657 42.2464 6.97361L40.4304 8.79174L40.4245 8.79756L39.2302 9.97355C38.8878 10.3107 38.3384 10.3084 37.9988 9.96845L36.8292 8.79756L34.9659 6.93215C34.1198 6.08512 32.7407 6.08512 31.8946 6.93215L28.3749 10.4557C27.9022 10.929 27.7512 11.4938 27.7512 11.9915C27.7512 12.5682 27.995 13.0772 28.3139 13.4603L28.3429 13.4952L28.3749 13.5273L31.8946 17.0508C31.962 17.1183 31.962 17.2281 31.8946 17.2955L18.5621 30.6428C18.2205 30.9848 17.6672 30.9848 17.3256 30.6428L16.2497 29.5658L14.3036 27.6175C13.4575 26.7704 12.0784 26.7704 11.2323 27.6175L7.71263 31.141C7.23985 31.6143 7.08887 32.1791 7.08887 32.6768C7.08887 33.2535 7.33264 33.7625 7.65155 34.1456L7.68057 34.1805L7.71263 34.2126L9.65878 36.1609L10.7346 37.238C11.0768 37.5806 11.0768 38.1365 10.7346 38.479L10.1557 39.0587L7.71263 41.5044L8.42013 42.2111L7.71263 41.5044C7.23985 41.9777 7.08887 42.5425 7.08887 43.0402C7.08887 43.6169 7.33264 44.1259 7.65155 44.509L7.68057 44.5439L7.71263 44.576L11.2323 48.0995C12.0784 48.9466 13.4575 48.9466 14.3036 48.0995L16.7466 45.6538L16.7472 45.6531L37.9885 24.3492C38.33 24.0067 38.8838 24.0064 39.2256 24.3486L40.5073 25.6317L42.2464 27.3728C43.0925 28.2198 44.4716 28.2198 45.3177 27.3728L48.8374 23.8492C49.3101 23.3759 49.4611 22.8112 49.4611 22.3134C49.4611 21.8508 49.3276 21.248 48.8109 20.7926L47.0983 19.078L45.2081 17.1858C45.2459 17.158 45.2844 17.1256 45.3219 17.0881Z" fill="white" stroke="black" stroke-width="2"/>
            <path d="M34.6108 16.6569L38.1293 13.176L38.1293 13.176L38.1314 13.1739C38.3916 12.9134 38.82 12.9134 39.0802 13.1739L39.0802 13.1739L39.0823 13.176L42.5833 16.6396C42.7244 16.8154 42.7848 16.9894 42.7848 17.1317C42.7848 17.3181 42.7361 17.471 42.5998 17.6074L39.0802 21.1309C38.82 21.3914 38.3916 21.3914 38.1314 21.1309L34.6291 17.6248C34.4875 17.4487 34.4268 17.2742 34.4268 17.1317C34.4268 16.9457 34.4753 16.7931 34.6108 16.6569Z" fill="#121212" stroke="#121212"/>
        </g>
    </g>
    <path d="M124.172 45.9815H123.033V36.6299H124.172V40.4123H124.224C124.302 40.2905 124.425 40.1601 124.593 40.021C124.744 39.8993 124.906 39.7884 125.079 39.6884C125.264 39.5841 125.506 39.4949 125.804 39.421C126.106 39.3428 126.411 39.3036 126.717 39.3036C127.697 39.3036 128.517 39.6167 129.178 40.2427C129.834 40.8775 130.162 41.6992 130.162 42.7078C130.162 43.7251 129.834 44.5468 129.178 45.1729C128.517 45.7989 127.697 46.112 126.717 46.112C126.044 46.112 125.495 45.9815 125.072 45.7207C124.701 45.4903 124.449 45.2924 124.315 45.1272L124.224 45.0033H124.172V45.9815ZM128.342 44.3838C128.778 43.9447 128.996 43.386 128.996 42.7078C128.996 42.0383 128.778 41.4796 128.342 41.0318C127.898 40.5927 127.311 40.3732 126.581 40.3732C125.864 40.3732 125.284 40.5884 124.839 41.0188C124.395 41.4492 124.172 42.0122 124.172 42.7078C124.172 43.386 124.39 43.9447 124.826 44.3838C125.262 44.8272 125.847 45.049 126.581 45.049C127.315 45.049 127.902 44.8272 128.342 44.3838Z" fill="white"/>
    <path d="M130.751 39.4341H131.975L134.494 44.6968H134.533L136.773 39.4341H138.01L135.012 46.3532C134.632 47.2445 134.282 47.8727 133.963 48.2379C133.643 48.6031 133.166 48.7857 132.532 48.7857C132.182 48.7857 131.917 48.7509 131.735 48.6814L131.632 48.6553V47.651C131.856 47.738 132.122 47.7814 132.428 47.7814C132.778 47.7814 133.045 47.6706 133.231 47.4488C133.412 47.2358 133.604 46.8706 133.807 46.3532L133.898 46.112L130.751 39.4341Z" fill="white"/>
    <path d="M143.067 45.9815H141.927V36.6299H143.067V40.4123H143.119C143.196 40.2905 143.319 40.1601 143.488 40.021C143.639 39.8993 143.801 39.7884 143.973 39.6884C144.159 39.5841 144.401 39.4949 144.698 39.421C145.001 39.3428 145.305 39.3036 145.611 39.3036C146.591 39.3036 147.412 39.6167 148.072 40.2427C148.728 40.8775 149.056 41.6992 149.056 42.7078C149.056 43.7251 148.728 44.5468 148.072 45.1729C147.412 45.7989 146.591 46.112 145.611 46.112C144.938 46.112 144.39 45.9815 143.967 45.7207C143.596 45.4903 143.343 45.2924 143.209 45.1272L143.119 45.0033H143.067V45.9815ZM147.237 44.3838C147.673 43.9447 147.891 43.386 147.891 42.7078C147.891 42.0383 147.673 41.4796 147.237 41.0318C146.792 40.5927 146.205 40.3732 145.475 40.3732C144.759 40.3732 144.178 40.5884 143.734 41.0188C143.289 41.4492 143.067 42.0122 143.067 42.7078C143.067 43.386 143.285 43.9447 143.721 44.3838C144.157 44.8272 144.742 45.049 145.475 45.049C146.209 45.049 146.796 44.8272 147.237 44.3838Z" fill="white"/>
    <path d="M150.785 36.6299H151.925V45.9815H150.785V36.6299Z" fill="white"/>
    <path d="M154.664 45.1794C153.99 44.5577 153.654 43.7338 153.654 42.7078C153.654 41.6861 153.99 40.8623 154.664 40.2362C155.333 39.6145 156.185 39.3036 157.221 39.3036C158.249 39.3036 159.101 39.6145 159.779 40.2362C160.448 40.8623 160.783 41.6861 160.783 42.7078C160.783 43.7338 160.448 44.5577 159.779 45.1794C159.101 45.8011 158.249 46.112 157.221 46.112C156.185 46.112 155.333 45.8011 154.664 45.1794ZM158.963 44.3903C159.399 43.9512 159.617 43.3904 159.617 42.7078C159.617 42.0252 159.399 41.4644 158.963 41.0253C158.527 40.5905 157.947 40.3732 157.221 40.3732C156.492 40.3732 155.911 40.5905 155.479 41.0253C155.039 41.46 154.819 42.0209 154.819 42.7078C154.819 43.3947 155.039 43.9556 155.479 44.3903C155.915 44.8294 156.496 45.049 157.221 45.049C157.938 45.049 158.518 44.8294 158.963 44.3903Z" fill="white"/>
    <path d="M163.263 45.1664C162.589 44.5447 162.252 43.7208 162.252 42.6948C162.252 41.6687 162.589 40.847 163.263 40.2297C163.927 39.6123 164.78 39.3036 165.82 39.3036C166.412 39.3036 166.94 39.4036 167.407 39.6036C167.886 39.808 168.248 40.0536 168.494 40.3405C169.008 40.9362 169.265 41.4818 169.265 41.9774H168.087C168.043 41.7905 167.97 41.6057 167.866 41.4231C167.758 41.2361 167.633 41.0731 167.491 40.934C167.327 40.7775 167.096 40.6449 166.798 40.5362C166.504 40.4275 166.179 40.3732 165.82 40.3732C165.091 40.3732 164.51 40.5905 164.078 41.0253C163.638 41.46 163.418 42.0165 163.418 42.6948C163.418 43.373 163.638 43.9316 164.078 44.3708C164.514 44.8142 165.095 45.0359 165.82 45.0359C166.183 45.0359 166.511 44.9816 166.804 44.8729C167.102 44.7642 167.331 44.6273 167.491 44.4621C167.789 44.1534 167.974 43.8664 168.048 43.6012L168.087 43.4317H169.265C169.265 43.9186 169.008 44.4599 168.494 45.0555C168.24 45.3511 167.877 45.5989 167.407 45.7989C166.94 45.9989 166.412 46.0989 165.82 46.0989C164.784 46.0989 163.932 45.7881 163.263 45.1664Z" fill="white"/>
    <path d="M177.294 45.9815H175.785L172.127 42.6556V45.9815H170.987V36.6299H172.127V42.5643L175.559 39.4341H177.074L173.584 42.6035L177.294 45.9815Z" fill="white"/>
    <path d="M182.921 44.0447C182.921 43.7882 182.798 43.5904 182.552 43.4512C182.297 43.3078 181.989 43.2273 181.626 43.2099C181.25 43.1882 180.847 43.1491 180.415 43.0926C179.949 43.036 179.543 42.9687 179.198 42.8904C178.827 42.8121 178.518 42.6361 178.272 42.3622C178.022 42.0926 177.896 41.7318 177.896 41.2796C177.896 40.6231 178.175 40.1275 178.732 39.7927C179.288 39.4667 180.009 39.3036 180.894 39.3036C181.792 39.3036 182.517 39.4862 183.07 39.8514C183.618 40.2166 183.892 40.7905 183.892 41.5731H182.727C182.727 41.1644 182.58 40.8623 182.286 40.6666C181.997 40.471 181.533 40.3732 180.894 40.3732C179.673 40.3732 179.062 40.6753 179.062 41.2796C179.062 41.5274 179.187 41.7166 179.437 41.847C179.688 41.9818 179.996 42.0578 180.363 42.0752C180.704 42.0926 181.11 42.1296 181.581 42.1861C182.025 42.247 182.429 42.3187 182.792 42.4013C183.158 42.4926 183.469 42.6752 183.724 42.9491C183.97 43.2317 184.093 43.5969 184.093 44.0447C184.093 44.5316 183.94 44.9359 183.633 45.2577C183.331 45.575 182.951 45.7968 182.494 45.9228C182.049 46.0489 181.525 46.112 180.92 46.112C179.655 46.112 178.753 45.7989 178.214 45.1729C177.907 44.8164 177.754 44.3729 177.754 43.8425V43.6338H178.919V43.8425C178.919 44.6425 179.586 45.0425 180.92 45.0425C182.254 45.0511 182.921 44.7186 182.921 44.0447Z" fill="white"/>
    <path d="M193.45 45.9815H191.928L190.257 40.6666H190.199L188.528 45.9815H187.007L185.084 39.4341H186.236L187.764 44.7229H187.816L189.487 39.4341H190.97L192.64 44.7229H192.698L194.22 39.4341H195.373L193.45 45.9815Z" fill="white"/>
    <path d="M196.376 44.149C196.376 43.4795 196.659 42.9839 197.225 42.6622C197.786 42.3448 198.507 42.1861 199.387 42.1861C199.836 42.1861 200.251 42.2404 200.63 42.3491C201.028 42.4622 201.306 42.5687 201.466 42.6687L201.718 42.8317V41.8013C201.718 41.3579 201.556 41.0101 201.233 40.7579C200.909 40.5014 200.421 40.3732 199.769 40.3732C198.47 40.3732 197.82 40.7297 197.82 41.4427H196.681C196.685 40.721 196.976 40.184 197.555 39.8319C198.129 39.4797 198.867 39.3036 199.769 39.3036C200.676 39.3036 201.416 39.5167 201.99 39.9427C202.564 40.3732 202.854 40.9927 202.858 41.8013V44.1816C202.858 44.512 202.901 44.7425 202.987 44.8729C203.074 44.999 203.216 45.062 203.415 45.062C203.587 45.062 203.702 45.0381 203.758 44.9903L203.784 44.9772V46.0076C203.65 46.0772 203.456 46.112 203.201 46.112C202.769 46.112 202.45 46.0185 202.243 45.8315C202.079 45.6924 201.958 45.5468 201.88 45.3946L201.848 45.3164H201.796C201.688 45.425 201.578 45.5163 201.466 45.5902C201.332 45.6815 201.185 45.762 201.025 45.8315C200.602 46.0185 200.087 46.112 199.478 46.112C198.558 46.112 197.812 45.9533 197.237 45.6359C196.663 45.3229 196.376 44.8272 196.376 44.149ZM199.646 43.2556C198.243 43.2556 197.542 43.5534 197.542 44.149C197.542 44.749 198.243 45.049 199.646 45.049C200.061 45.049 200.438 45.0033 200.779 44.912C201.116 44.8294 201.347 44.7512 201.472 44.6773C201.589 44.6164 201.671 44.562 201.718 44.5142V43.7643C201.671 43.7164 201.589 43.6621 201.472 43.6012C201.325 43.5317 201.097 43.4578 200.786 43.3795C200.453 43.2969 200.074 43.2556 199.646 43.2556Z" fill="white"/>
    <path d="M206.186 48.6553H205.046V39.4341H206.186V40.4123H206.238C206.316 40.2905 206.439 40.1601 206.607 40.021C206.758 39.8993 206.92 39.7884 207.093 39.6884C207.278 39.5841 207.52 39.4949 207.818 39.421C208.12 39.3428 208.424 39.3036 208.731 39.3036C209.711 39.3036 210.531 39.6167 211.191 40.2427C211.847 40.8775 212.176 41.6992 212.176 42.7078C212.176 43.7251 211.847 44.5468 211.191 45.1729C210.531 45.7989 209.711 46.112 208.731 46.112C208.057 46.112 207.509 45.9815 207.086 45.7207C206.715 45.4903 206.462 45.2924 206.329 45.1272L206.238 45.0033H206.186V48.6553ZM210.356 44.3838C210.792 43.9447 211.01 43.386 211.01 42.7078C211.01 42.0383 210.792 41.4796 210.356 41.0318C209.911 40.5927 209.324 40.3732 208.595 40.3732C207.861 40.3732 207.276 40.5927 206.84 41.0318C206.404 41.4796 206.186 42.0383 206.186 42.7078C206.186 43.4034 206.411 43.9664 206.859 44.3968C207.304 44.8316 207.883 45.049 208.595 45.049C209.329 45.049 209.916 44.8272 210.356 44.3838Z" fill="white"/>
    <path d="M80.3823 19.5486H76.3815V19.1245C76.3815 17.8522 75.2989 17.0983 73.2278 17.0983C72.2864 17.0983 71.5333 17.2397 70.9685 17.5695C70.3566 17.8994 70.0742 18.3706 70.0742 18.9832C70.0742 19.8785 70.9685 20.3968 72.2394 20.6795C73.5102 20.9623 75.1577 21.1507 76.7109 21.5748C77.5111 21.8104 78.2171 22.046 78.829 22.3759C79.4409 22.7057 80.0058 23.177 80.3823 23.8367C80.7589 24.4964 80.9942 25.2974 80.9942 26.1927C80.9942 27.842 80.2882 29.1143 78.9702 30.0096C77.6052 30.9049 75.7225 31.3761 73.322 31.3761C68.4739 31.4232 65.6968 29.5384 65.6968 26.0042V25.3917H69.6976V26.0985C69.6976 27.7477 71.0156 28.3603 73.4161 28.3603C75.8637 28.3603 77.0875 27.6535 77.0875 26.287C77.0875 25.4859 76.1932 24.9676 74.9223 24.6848C73.6514 24.4021 72.004 24.2136 70.4508 23.7424C69.6506 23.5068 68.9445 23.2241 68.3326 22.8471C67.6737 22.5173 67.1559 21.9989 66.7794 21.3392C66.3557 20.6795 66.1675 19.9256 66.1675 19.0303C66.1675 17.4753 66.7794 16.2972 68.0502 15.4019C69.274 14.5066 71.0156 14.0354 73.2278 14.0354C75.4871 14.0354 77.2758 14.4595 78.4996 15.3548C79.7234 16.2501 80.3823 17.5224 80.3823 19.1245V19.5486Z" fill="white"/>
    <path d="M84.148 21.9053H82.3594V19.8791L85.7013 16.6748H87.584V19.078H91.3496V21.9053H87.584V26.1462C87.584 27.0415 87.7723 27.6541 88.1959 28.0311C88.6196 28.3609 89.1844 28.5494 89.9375 28.5494C90.5965 28.5494 91.2554 28.3609 91.4908 28.2196L91.7261 28.1253V30.9997C91.1142 31.2825 90.3611 31.4238 89.4668 31.4238C85.9366 31.4238 84.148 29.9159 84.148 26.6174V21.9053Z" fill="white"/>
    <path d="M94.9736 24.9671C96.0091 24.3545 97.28 24.0247 98.8333 24.0247C99.6334 24.0247 100.387 24.1189 100.998 24.2603C101.657 24.4488 102.081 24.5901 102.363 24.7786L102.74 25.0613V23.2707C102.74 22.7524 102.552 22.3283 102.128 21.9513C101.752 21.6215 101.093 21.433 100.151 21.433C99.4922 21.433 98.9274 21.5272 98.3626 21.81C97.7977 22.0456 97.5624 22.4697 97.5624 22.988H93.9851C93.9851 21.6215 94.55 20.5848 95.6796 19.878C96.7622 19.1712 98.2684 18.8413 100.151 18.8413C102.034 18.8413 103.54 19.2183 104.576 19.9722C105.658 20.7262 106.176 21.81 106.176 23.3178V27.0876C106.176 28.0771 106.411 28.407 106.976 28.407L107.494 28.3127V31.2343C107.212 31.3756 106.694 31.4699 105.988 31.4699C105.141 31.4699 104.34 31.2343 103.917 30.8573C103.493 30.5274 103.211 30.1505 103.117 29.9149L103.022 29.7264H102.834C102.834 29.7735 102.505 30.3861 101.469 30.8573C100.81 31.1871 99.6805 31.4227 98.3155 31.4227C96.9034 31.4227 95.6796 31.0929 94.7382 30.4803C93.7969 29.8677 93.3262 28.9724 93.3262 27.7473C93.4203 26.5221 93.9381 25.6268 94.9736 24.9671ZM101.516 28.5483C101.987 28.407 102.316 28.2185 102.505 28.0771L102.74 27.8415V27.1347C102.693 27.0876 102.599 27.0404 102.505 26.9462C102.363 26.852 102.081 26.7577 101.563 26.6163C101.045 26.475 100.481 26.4279 99.8217 26.4279C97.9389 26.4279 96.9505 26.8048 96.9505 27.6059C96.9505 28.407 97.8919 28.7839 99.8217 28.7839C100.481 28.7839 101.045 28.6897 101.516 28.5483Z" fill="white"/>
    <path d="M121.992 19.124L116.814 25.0142L122.415 31.2342H118.32L112.907 25.2969V31.2342H109.471V14.2705H112.954V24.7786L117.944 19.124H121.992Z" fill="white"/>
    <path d="M136.348 26.0528H126.322C126.322 26.7597 126.604 27.4194 127.169 27.9377C127.734 28.456 128.534 28.7388 129.57 28.7388C130.181 28.7388 130.699 28.6445 131.17 28.4089C131.641 28.2204 131.923 27.9848 132.064 27.7963L132.3 27.5136H136.112C136.112 27.6078 136.065 27.7492 136.018 27.9377C135.971 28.1262 135.783 28.4089 135.5 28.8801C135.218 29.3513 134.841 29.7283 134.418 30.1053C133.994 30.4351 133.335 30.765 132.488 31.0477C131.641 31.3304 130.652 31.4718 129.57 31.4718C127.499 31.4718 125.851 30.9063 124.58 29.8225C123.309 28.6916 122.65 27.1837 122.65 25.2046C122.65 23.2255 123.309 21.7177 124.58 20.5867C125.851 19.4558 127.499 18.9375 129.57 18.9375C131.594 18.9375 133.241 19.503 134.512 20.5867C135.783 21.6705 136.442 23.2255 136.442 25.2046L136.348 26.0528ZM127.216 22.3302C126.651 22.8486 126.369 23.3669 126.369 23.9324H132.723C132.723 23.3669 132.441 22.8015 131.923 22.2831C131.358 21.7648 130.605 21.5292 129.57 21.5292C128.581 21.5763 127.781 21.8119 127.216 22.3302Z" fill="white"/>
    <path d="M147.974 31.1871V25.1084C147.974 23.0351 146.797 21.9513 144.914 21.9513C143.926 21.9513 143.173 22.234 142.655 22.7995C142.137 23.3649 141.855 24.166 141.855 25.0613V31.14H138.372V14.2705H141.855V21.1031H142.043C142.09 20.9618 142.137 20.8204 142.608 20.3021C142.843 20.0664 143.078 19.8308 143.408 19.5952C144.02 19.1711 145.15 18.7942 146.42 18.7942C147.927 18.7942 149.15 19.2183 150.092 20.1136C151.033 21.0089 151.504 22.3283 151.504 24.0718V31.14H147.974V31.1871Z" fill="white"/>
    <path d="M172.402 19.124V25.2027C172.402 27.276 173.579 28.3598 175.462 28.3598C176.45 28.3598 177.203 28.0771 177.721 27.4645C178.239 26.8991 178.521 26.1451 178.521 25.2027V19.124H182.004V31.1871H178.521V29.1609H178.333C178.286 29.3023 178.239 29.4436 177.768 29.9148C177.533 30.1976 177.297 30.4332 176.968 30.6217C176.356 31.0457 175.226 31.4227 173.956 31.4227C172.449 31.4227 171.226 30.9986 170.284 30.1033C169.343 29.208 168.872 27.9357 168.872 26.1451V19.0769H172.402V19.124Z" fill="white"/>
    <path d="M192.642 22.8474C192.642 22.4704 192.595 22.2819 192.312 21.9521C192.03 21.6222 191.324 21.4808 190.194 21.4808C188.688 21.4808 187.935 21.8578 187.935 22.6118C187.935 22.9887 188.264 23.2243 188.829 23.3657C189.441 23.5542 190.147 23.6484 191.041 23.7427C191.889 23.8369 192.783 23.9312 193.63 24.1196C194.478 24.3081 195.231 24.6851 195.843 25.2506C196.454 25.816 196.737 26.6171 196.737 27.6066C196.737 30.1983 194.619 31.4706 190.43 31.4706C186.24 31.4706 184.169 30.1041 184.169 27.371V26.9941H187.747V27.371C187.747 28.4548 188.547 28.8789 190.43 28.8789C192.265 28.8789 193.16 28.4548 193.207 27.6538C193.207 27.2768 192.971 27.0412 192.548 26.8056C192.124 26.6171 191.559 26.4757 190.9 26.4286C190.241 26.3815 189.535 26.2872 188.782 26.1459C188.029 26.0045 187.323 25.8631 186.664 25.6275C186.005 25.439 185.487 25.0621 185.017 24.4966C184.546 23.9312 184.358 23.2715 184.358 22.4704C184.358 21.2924 184.875 20.3499 185.958 19.7374C187.041 19.1248 188.453 18.7949 190.288 18.7949C194.242 18.7949 196.219 20.1143 196.219 22.7531H192.642V22.8474Z" fill="white"/>
    <path d="M212.129 26.0528H202.103C202.103 26.7597 202.385 27.4194 202.95 27.9377C203.515 28.456 204.315 28.7388 205.351 28.7388C205.963 28.7388 206.48 28.6445 206.951 28.4089C207.422 28.2204 207.704 27.9848 207.845 27.7963L208.081 27.5136H211.893C211.893 27.6078 211.846 27.7492 211.799 27.9377C211.752 28.1262 211.564 28.4089 211.282 28.8801C210.999 29.3513 210.623 29.7283 210.199 30.1053C209.775 30.4351 209.116 30.765 208.269 31.0477C207.422 31.3304 206.433 31.4718 205.351 31.4718C203.28 31.4718 201.632 30.9063 200.361 29.8225C199.091 28.6916 198.432 27.1837 198.432 25.2046C198.432 23.2255 199.091 21.7177 200.361 20.5867C201.632 19.4558 203.28 18.9375 205.351 18.9375C207.375 18.9375 209.022 19.503 210.293 20.5867C211.564 21.6705 212.223 23.2255 212.223 25.2046L212.129 26.0528ZM202.997 22.3302C202.433 22.8486 202.15 23.3669 202.15 23.9324H208.504C208.504 23.3669 208.222 22.8015 207.704 22.2831C207.139 21.7648 206.386 21.5292 205.351 21.5292C204.315 21.5763 203.562 21.8119 202.997 22.3302Z" fill="white"/>
    <path fill-rule="evenodd" clip-rule="evenodd" d="M155.175 20.5372C153.904 21.6681 153.245 23.176 153.245 25.1551C153.245 27.1342 153.904 28.6892 155.175 29.773C156.446 30.8568 158.093 31.4223 160.164 31.4223C162.235 31.4223 163.883 30.9039 165.154 29.773C166.424 28.6421 167.083 27.1342 167.083 25.1551C167.083 23.176 166.424 21.6681 165.154 20.5372C163.883 19.4534 162.235 18.8879 160.164 18.8879C158.093 18.8879 156.446 19.4063 155.175 20.5372ZM160.588 22.329L162.471 24.2138C162.706 24.4966 162.706 24.8735 162.518 25.1563L160.917 26.7584V28.6432H159.364V26.7584L157.811 25.1091C157.576 24.8735 157.576 24.4494 157.811 24.2138L159.694 22.329C159.929 22.0934 160.353 22.0934 160.588 22.329Z" fill="white"/>
    <defs>
        <filter id="filter0_dd_123_71659" x="0.82373" y="1.03735" width="52.873" height="52.9255" filterUnits="userSpaceOnUse" color-interpolation-filters="sRGB">
            <feFlood flood-opacity="0" result="BackgroundImageFix"/>
            <feColorMatrix in="SourceAlpha" type="matrix" values="0 0 0 0 0 0 0 0 0 0 0 0 0 0 0 0 0 0 127 0" result="hardAlpha"/>
            <feOffset dy="1"/>
            <feGaussianBlur stdDeviation="1"/>
            <feColorMatrix type="matrix" values="0 0 0 0 1 0 0 0 0 1 0 0 0 0 1 0 0 0 0.06 0"/>
            <feBlend mode="normal" in2="BackgroundImageFix" result="effect1_dropShadow_123_71659"/>
            <feColorMatrix in="SourceAlpha" type="matrix" values="0 0 0 0 0 0 0 0 0 0 0 0 0 0 0 0 0 0 127 0" result="hardAlpha"/>
            <feOffset dy="1"/>
            <feGaussianBlur stdDeviation="1.5"/>
            <feColorMatrix type="matrix" values="0 0 0 0 1 0 0 0 0 1 0 0 0 0 1 0 0 0 0.1 0"/>
            <feBlend mode="normal" in2="effect1_dropShadow_123_71659" result="effect2_dropShadow_123_71659"/>
            <feBlend mode="normal" in="SourceGraphic" in2="effect2_dropShadow_123_71659" result="shape"/>
        </filter>
        <clipPath id="clip0_123_71659">
            <rect width="46.8732" height="46.9254" fill="white" transform="translate(3.82373 3.03735)"/>
        </clipPath>
    </defs>
</svg>
