<?xml version="1.0" encoding="UTF-8"?>
<svg xmlns="http://www.w3.org/2000/svg" xmlns:xlink="http://www.w3.org/1999/xlink" width="16px" height="16px" viewBox="0 0 16 16" version="1.1">
<g id="surface1">
<rect x="0" y="0" width="16" height="16" style="fill:rgb(100%,100%,100%);fill-opacity:1;stroke:none;"/>
<path style=" stroke:none;fill-rule:evenodd;fill:rgb(0%,0%,0%);fill-opacity:1;" d="M 15.335938 0 L 0.660156 0 C 0.296875 0 0 0.296875 0 0.660156 L 0 15.339844 C 0 15.703125 0.296875 16 0.660156 16 L 15.335938 16 C 15.703125 16 16 15.703125 16 15.339844 L 16 0.660156 C 16 0.296875 15.703125 0 15.335938 0 Z M 3.964844 12.746094 C 3.964844 13.109375 3.667969 13.40625 3.300781 13.40625 L 2.105469 13.40625 C 1.738281 13.40625 1.441406 13.109375 1.441406 12.746094 L 1.441406 9.496094 C 1.441406 9.132812 1.738281 8.835938 2.105469 8.835938 L 3.300781 8.835938 C 3.667969 8.835938 3.964844 9.132812 3.964844 9.496094 Z M 7.496094 12.746094 C 7.496094 13.109375 7.199219 13.40625 6.832031 13.40625 L 5.636719 13.40625 C 5.269531 13.40625 4.972656 13.109375 4.972656 12.746094 L 4.972656 3.253906 C 4.972656 2.890625 5.269531 2.59375 5.636719 2.59375 L 6.832031 2.59375 C 7.199219 2.59375 7.496094 2.890625 7.496094 3.253906 Z M 11.027344 12.746094 C 11.027344 13.109375 10.730469 13.40625 10.363281 13.40625 L 9.167969 13.40625 C 8.800781 13.40625 8.503906 13.109375 8.503906 12.746094 L 8.503906 4.925781 C 8.503906 4.558594 8.800781 4.265625 9.167969 4.265625 L 10.363281 4.265625 C 10.730469 4.265625 11.027344 4.558594 11.027344 4.925781 Z M 14.558594 12.746094 C 14.558594 13.109375 14.261719 13.40625 13.894531 13.40625 L 12.699219 13.40625 C 12.332031 13.40625 12.035156 13.109375 12.035156 12.746094 L 12.035156 7.101562 C 12.035156 6.734375 12.332031 6.4375 12.699219 6.4375 L 13.894531 6.4375 C 14.261719 6.4375 14.558594 6.734375 14.558594 7.101562 Z M 14.558594 12.746094 "/>
</g>
</svg>
