<svg width="48" height="48" viewBox="0 0 48 48" fill="none" xmlns="http://www.w3.org/2000/svg">
<path d="M45.4284 24.0001C45.4284 26.8141 44.8742 29.6006 43.7973 32.2005C42.7204 34.8003 41.142 37.1626 39.1521 39.1524C37.1623 41.1422 34.8 42.7206 32.2002 43.7975C29.6004 44.8744 26.8139 45.4287 23.9999 45.4287C21.1858 45.4287 18.3993 44.8744 15.7995 43.7975C13.1997 42.7206 10.8374 41.1422 8.84757 39.1524C6.85774 37.1626 5.27933 34.8003 4.20244 32.2005C3.12555 29.6006 2.57129 26.8141 2.57129 24.0001C2.57129 21.1861 3.12556 18.3996 4.20244 15.7997C5.27933 13.1999 6.85775 10.8376 8.84758 8.84781C10.8374 6.85798 13.1997 5.27957 15.7995 4.20268C18.3993 3.1258 21.1858 2.57153 23.9999 2.57153C26.8139 2.57153 29.6004 3.1258 32.2002 4.20269C34.8001 5.27958 37.1623 6.858 39.1522 8.84782C41.142 10.8377 42.7204 13.1999 43.7973 15.7998C44.8742 18.3996 45.4284 21.1861 45.4284 24.0001L45.4284 24.0001Z" stroke="#4D5F56" stroke-width="4" stroke-linecap="round" stroke-linejoin="round"/>
<path d="M4.20264 32.2005C5.27952 34.8003 6.85794 37.1626 8.84777 39.1524C10.8376 41.1422 13.1999 42.7206 15.7997 43.7975C18.3995 44.8744 21.186 45.4287 24.0001 45.4287C26.8141 45.4287 29.6006 44.8744 32.2004 43.7975C34.8002 42.7206 37.1625 41.1422 39.1523 39.1524C41.1422 37.1626 42.7206 34.8003 43.7975 32.2005C44.8744 29.6006 45.4286 26.8141 45.4286 24.0001C45.4286 21.1861 44.8744 18.3996 43.7975 15.7998C42.7206 13.1999 41.1422 10.8377 39.1524 8.84782C37.1625 6.858 34.8003 5.27958 32.2004 4.20269C29.6006 3.1258 26.8141 2.57153 24.0001 2.57153" stroke="#00ED76" stroke-width="4" stroke-linecap="round" stroke-linejoin="round"/>
</svg>
