<svg width="48" height="48" viewBox="0 0 48 48" fill="none" xmlns="http://www.w3.org/2000/svg">
<path d="M45.4287 24.0001C45.4287 26.8141 44.8744 29.6006 43.7975 32.2005C42.7206 34.8003 41.1422 37.1626 39.1524 39.1524C37.1626 41.1422 34.8003 42.7206 32.2005 43.7975C29.6006 44.8744 26.8141 45.4287 24.0001 45.4287C21.1861 45.4287 18.3996 44.8744 15.7997 43.7975C13.1999 42.7206 10.8376 41.1422 8.84781 39.1524C6.85799 37.1626 5.27957 34.8003 4.20268 32.2005C3.1258 29.6006 2.57153 26.8141 2.57153 24.0001C2.57153 21.1861 3.1258 18.3996 4.20269 15.7997C5.27958 13.1999 6.85799 10.8376 8.84782 8.84781C10.8376 6.85798 13.1999 5.27957 15.7998 4.20268C18.3996 3.1258 21.1861 2.57153 24.0001 2.57153C26.8142 2.57153 29.6006 3.1258 32.2005 4.20269C34.8003 5.27958 37.1626 6.858 39.1524 8.84782C41.1422 10.8377 42.7206 13.1999 43.7975 15.7998C44.8744 18.3996 45.4287 21.1861 45.4287 24.0001L45.4287 24.0001Z" stroke="#4D5F56" stroke-width="4" stroke-linecap="round" stroke-linejoin="round"/>
<path d="M39.152 39.1521C41.1419 37.1623 42.7203 34.8001 43.7972 32.2002C44.8741 29.6004 45.4283 26.8139 45.4283 23.9999C45.4283 21.1858 44.8741 18.3993 43.7972 15.7995C42.7203 13.1997 41.1419 10.8374 39.152 8.84758C37.1622 6.85775 34.7999 5.27933 32.2001 4.20245C29.6003 3.12556 26.8138 2.57129 23.9998 2.57129" stroke="#00ED76" stroke-width="4" stroke-linecap="round" stroke-linejoin="round"/>
</svg>
