<svg width="48" height="48" viewBox="0 0 48 48" fill="none" xmlns="http://www.w3.org/2000/svg">
<path d="M45.4284 23.9999C45.4284 26.8139 44.8742 29.6004 43.7973 32.2002C42.7204 34.8001 41.142 37.1623 39.1521 39.1521C37.1623 41.142 34.8 42.7204 32.2002 43.7973C29.6004 44.8742 26.8139 45.4284 23.9999 45.4284C21.1858 45.4284 18.3993 44.8742 15.7995 43.7973C13.1997 42.7204 10.8374 41.142 8.84757 39.1521C6.85774 37.1623 5.27933 34.8 4.20244 32.2002C3.12555 29.6004 2.57129 26.8139 2.57129 23.9999C2.57129 21.1858 3.12556 18.3993 4.20244 15.7995C5.27933 13.1997 6.85775 10.8374 8.84758 8.84757C10.8374 6.85774 13.1997 5.27932 15.7995 4.20244C18.3993 3.12555 21.1858 2.57129 23.9999 2.57129C26.8139 2.57129 29.6004 3.12556 32.2002 4.20245C34.8001 5.27933 37.1623 6.85775 39.1522 8.84758C41.142 10.8374 42.7204 13.1997 43.7973 15.7995C44.8742 18.3993 45.4284 21.1858 45.4284 23.9999L45.4284 23.9999Z" stroke="#4D5F56" stroke-width="4" stroke-linecap="round" stroke-linejoin="round"/>
<path d="M2.57129 23.9999C2.57129 26.8139 3.12555 29.6004 4.20244 32.2002C5.27933 34.8 6.85774 37.1623 8.84757 39.1521C10.8374 41.142 13.1997 42.7204 15.7995 43.7973C18.3993 44.8742 21.1858 45.4284 23.9999 45.4284C26.8139 45.4284 29.6004 44.8742 32.2002 43.7973C34.8 42.7204 37.1623 41.142 39.1521 39.1521C41.142 37.1623 42.7204 34.8001 43.7973 32.2002C44.8742 29.6004 45.4284 26.8139 45.4284 23.9999C45.4284 21.1858 44.8742 18.3993 43.7973 15.7995C42.7204 13.1997 41.142 10.8374 39.1522 8.84758C37.1623 6.85775 34.8001 5.27933 32.2002 4.20245C29.6004 3.12556 26.8139 2.57129 23.9999 2.57129" stroke="#00ED76" stroke-width="4" stroke-linecap="round" stroke-linejoin="round"/>
</svg>
